<?xml version="1.0" standalone="no"?>
<!DOCTYPE svg PUBLIC "-//W3C//DTD SVG 1.1//EN" "http://www.w3.org/Graphics/SVG/1.1/DTD/svg11.dtd" >
<svg>
<metadata>
Created by FontForge 20120731 at Wed May 23 14:04:05 2018
 By convertio

</metadata>
<defs>
<font id="SeroPro-Bold" horiz-adv-x="1000" >
  <font-face 
    font-family="SeroPro-Bold"
    font-weight="700"
    font-stretch="normal"
    units-per-em="1000"
    panose-1="2 11 8 4 2 1 1 2 1 2"
    ascent="778"
    descent="-222"
    x-height="510"
    cap-height="720"
    bbox="-188 -278 2733 963"
    underline-thickness="109"
    underline-position="7"
    stemh="116"
    stemv="161"
    unicode-range="U+000D-1F4AC"
  />
<missing-glyph horiz-adv-x="500" 
d="M0 0v720h500v-720h-500zM118 602v-484h264v484h-264z" />
    <glyph glyph-name="f_b" unicode="fb" horiz-adv-x="909" 
d="M16 392v118h73v42c0 121 52 174 182 174c18 0 39 -1 58 -4v-116c-12 3 -23 4 -32 4c-37 0 -47 -19 -47 -58v-42h79v-118h-79v-392h-161v392h-73zM383 720h161v-273c40 48 88 75 147 75c111 0 187 -93 187 -259c0 -179 -89 -275 -201 -275c-56 0 -101 24 -139 77v-65h-155
v720zM630 390c-27 0 -54 -12 -86 -43v-195c31 -29 57 -41 84 -41c51 0 89 40 89 141c0 98 -36 138 -87 138z" />
    <glyph glyph-name="f_f" unicode="ff" horiz-adv-x="655" 
d="M250 392v-392h-161v392h-73v118h73v42c0 121 53 174 185 174c18 0 40 -1 59 -4v-116c-13 3 -24 4 -33 4c-40 0 -50 -19 -50 -58v-42h146v42c0 121 53 174 185 174c18 0 40 -1 59 -4v-116c-13 3 -24 4 -33 4c-40 0 -50 -19 -50 -58v-42h84v-118h-84v-392h-161v392h-146z
" />
    <glyph glyph-name="f_f_i" unicode="ffi" horiz-adv-x="924" 
d="M696 0v510h161v-510h-161zM16 392v118h73v42c0 121 53 174 185 174c18 0 40 -1 59 -4v-116c-13 3 -24 4 -33 4c-40 0 -50 -19 -50 -58v-42h146v42c0 121 52 174 182 174c18 0 39 -1 58 -4v-116c-12 3 -23 4 -32 4c-37 0 -47 -19 -47 -58v-42h79v-118h-79v-392h-161v392
h-146v-392h-161v392h-73zM867 652c0 -49 -35 -84 -90 -84s-91 35 -91 84s36 84 91 84s90 -35 90 -84z" />
    <glyph glyph-name="f_f_l" unicode="ffl" horiz-adv-x="924" 
d="M696 0v720h161v-720h-161zM16 392v118h73v42c0 121 53 174 185 174c18 0 40 -1 59 -4v-116c-13 3 -24 4 -33 4c-40 0 -50 -19 -50 -58v-42h146v42c0 121 52 174 182 174c18 0 39 -1 58 -4v-116c-12 3 -23 4 -32 4c-37 0 -47 -19 -47 -58v-42h79v-118h-79v-392h-161v392
h-146v-392h-161v392h-73z" />
    <glyph glyph-name="f_h" unicode="fh" horiz-adv-x="899" 
d="M16 392v118h73v42c0 121 52 174 182 174c18 0 39 -1 58 -4v-116c-12 3 -23 4 -32 4c-37 0 -47 -19 -47 -58v-42h79v-118h-79v-392h-161v392h-73zM383 0v720h161v-272c45 45 102 74 171 74c74 0 135 -34 135 -142v-380h-161v330c0 43 -18 57 -48 57c-34 0 -66 -18 -97 -45
v-342h-161z" />
    <glyph glyph-name="f_i" unicode="fi" horiz-adv-x="617" 
d="M389 0v510h161v-510h-161zM16 392v118h73v42c0 121 52 174 182 174c18 0 39 -1 58 -4v-116c-12 3 -23 4 -32 4c-37 0 -47 -19 -47 -58v-42h79v-118h-79v-392h-161v392h-73zM560 652c0 -49 -35 -84 -90 -84s-91 35 -91 84s36 84 91 84s90 -35 90 -84z" />
    <glyph glyph-name="f_j" unicode="fj" horiz-adv-x="617" 
d="M16 392v118h73v42c0 121 52 174 182 174c18 0 39 -1 58 -4v-116c-12 3 -23 4 -32 4c-37 0 -47 -19 -47 -58v-42h79v-118h-79v-392h-161v392h-73zM550 510v-552c0 -121 -53 -174 -185 -174c-18 0 -40 1 -59 4v116c13 -3 24 -4 33 -4c40 0 50 19 50 58v552h161zM560 652
c0 -49 -35 -84 -90 -84s-91 35 -91 84s36 84 91 84s90 -35 90 -84z" />
    <glyph glyph-name="f_k" unicode="fk" horiz-adv-x="883" 
d="M16 392v118h73v42c0 121 52 174 182 174c18 0 39 -1 58 -4v-116c-12 3 -23 4 -32 4c-37 0 -47 -19 -47 -58v-42h79v-118h-79v-392h-161v392h-73zM383 0v720h161v-397l141 187h172l-167 -188l178 -322h-167l-111 209l-46 -52v-157h-161z" />
    <glyph glyph-name="f_l" unicode="fl" horiz-adv-x="617" 
d="M389 0v720h161v-720h-161zM16 392v118h73v42c0 121 52 174 182 174c18 0 39 -1 58 -4v-116c-12 3 -23 4 -32 4c-37 0 -47 -19 -47 -58v-42h79v-118h-79v-392h-161v392h-73z" />
    <glyph glyph-name="f_t" unicode="ft" horiz-adv-x="678" 
d="M396 145v247h-146v-392h-161v392h-73v118h73v42c0 121 53 174 185 174c18 0 40 -1 59 -4v-116c-13 3 -24 4 -33 4c-40 0 -50 -19 -50 -58v-42h146v170h161v-170h95v-118h-95v-223c0 -42 11 -54 43 -54c19 0 37 4 52 8v-120c-28 -5 -62 -9 -101 -9
c-114 0 -155 34 -155 151z" />
    <glyph glyph-name=".notdef" horiz-adv-x="500" 
d="M0 0v720h500v-720h-500zM118 602v-484h264v484h-264z" />
    <glyph glyph-name=".null" horiz-adv-x="0" 
 />
    <glyph glyph-name="CR" unicode="&#xd;" horiz-adv-x="220" 
 />
    <glyph glyph-name="space" unicode=" " horiz-adv-x="220" 
 />
    <glyph glyph-name="exclam" unicode="!" horiz-adv-x="337" 
d="M260 74c0 -49 -38 -86 -92 -86s-92 37 -92 86s38 86 92 86s92 -37 92 -86zM105 224l-29 496h185l-29 -496h-127z" />
    <glyph glyph-name="quotedbl" unicode="&#x22;" horiz-adv-x="449" 
d="M266 432l-9 288h128l-9 -288h-110zM72 432l-9 288h128l-9 -288h-110z" />
    <glyph glyph-name="numbersign" unicode="#" horiz-adv-x="572" 
d="M262 0l40 186h-97l-40 -186h-130l40 186h-71v110h94l19 88h-80v110h103l40 186h130l-40 -186h97l40 186h130l-40 -186h71v-110h-94l-19 -88h80v-110h-103l-40 -186h-130zM247 384l-19 -88h97l19 88h-97z" />
    <glyph glyph-name="dollar" unicode="$" horiz-adv-x="564" 
d="M235 -100v100c-72 4 -146 24 -203 55l38 131c55 -29 120 -57 187 -57c71 0 113 32 113 79c0 132 -323 56 -323 293c0 113 74 191 188 213v86h98v-81c65 -5 125 -26 174 -54l-38 -135c-50 32 -107 56 -163 56c-61 0 -97 -29 -97 -70c0 -121 323 -48 323 -288
c0 -116 -75 -199 -199 -222v-106h-98z" />
    <glyph glyph-name="percent" unicode="%" horiz-adv-x="823" 
d="M377 557c0 -96 -63 -171 -168 -171c-103 0 -166 73 -166 169s63 171 168 171c103 0 166 -73 166 -169zM260 555c0 54 -16 84 -50 84s-50 -30 -50 -84s16 -84 50 -84s50 30 50 84zM120 0l447 720h136l-447 -720h-136zM780 165c0 -96 -63 -171 -168 -171
c-103 0 -166 73 -166 169s63 171 168 171c103 0 166 -73 166 -169zM663 163c0 54 -16 84 -50 84s-50 -30 -50 -84s16 -84 50 -84s50 30 50 84z" />
    <glyph glyph-name="ampersand" unicode="&#x26;" horiz-adv-x="622" 
d="M93 509c0 108 83 183 221 183c135 0 209 -71 209 -162c0 -90 -72 -139 -158 -182l92 -94c16 25 31 51 47 82l103 -58c-19 -37 -42 -73 -67 -108l79 -80l-102 -102l-75 78c-64 -50 -123 -78 -208 -78c-132 0 -219 67 -219 183c0 89 52 139 148 190v1
c-36 38 -70 78 -70 147zM261 102c36 0 71 15 106 44l-126 133c-39 -27 -66 -53 -66 -96c0 -45 30 -81 86 -81zM240 512c0 -34 22 -58 52 -89c55 26 95 51 95 93c0 34 -25 63 -73 63s-74 -30 -74 -67z" />
    <glyph glyph-name="quotesingle" unicode="'" horiz-adv-x="255" 
d="M72 432l-9 288h128l-9 -288h-110z" />
    <glyph glyph-name="parenleft" unicode="(" horiz-adv-x="373" 
d="M192 279c0 -188 74 -303 160 -390l-82 -75c-101 87 -239 223 -239 465s138 378 239 465l82 -75c-86 -87 -160 -202 -160 -390z" />
    <glyph glyph-name="parenright" unicode=")" horiz-adv-x="373" 
d="M181 279c0 188 -74 303 -160 390l82 75c101 -87 239 -223 239 -465s-138 -378 -239 -465l-82 75c86 87 160 202 160 390z" />
    <glyph glyph-name="asterisk" unicode="*" horiz-adv-x="435" 
d="M407 491l-127 7l69 -105l-74 -44l-58 115l-58 -115l-74 44l69 105l-127 -7v87l127 -7l-69 105l74 44l58 -115l58 115l74 -44l-69 -105l127 7v-87z" />
    <glyph glyph-name="plus" unicode="+" horiz-adv-x="572" 
d="M350 0h-128v193h-180v124h180v193h128v-193h180v-124h-180v-193z" />
    <glyph glyph-name="comma" unicode="," horiz-adv-x="301" 
d="M25 -116c66 40 96 78 109 116c-50 4 -82 39 -82 85c0 49 36 87 92 87c64 0 108 -49 108 -129c0 -75 -38 -152 -158 -223z" />
    <glyph glyph-name="hyphen" unicode="-" horiz-adv-x="406" 
d="M47 258v107h311v-107h-311z" />
    <glyph glyph-name="period" unicode="." horiz-adv-x="301" 
d="M150 -12c-56 0 -96 40 -96 92s40 92 96 92s96 -40 96 -92s-40 -92 -96 -92z" />
    <glyph glyph-name="slash" unicode="/" horiz-adv-x="650" 
d="M24 -40l439 760h163l-439 -760h-163z" />
    <glyph glyph-name="zero" unicode="0" horiz-adv-x="645" 
d="M606 362c0 -245 -121 -374 -285 -374c-162 0 -281 127 -281 370c0 245 121 374 285 374c162 0 281 -127 281 -370zM444 358c0 177 -50 240 -121 240s-121 -63 -121 -240s50 -240 121 -240s121 63 121 240z" />
    <glyph glyph-name="one" unicode="1" horiz-adv-x="402" 
d="M69 506l-45 125l172 89h123v-720h-158v554z" />
    <glyph glyph-name="two" unicode="2" horiz-adv-x="569" 
d="M347 503c0 55 -35 91 -97 91c-65 0 -124 -40 -172 -95l-47 133c53 57 139 101 242 101c142 0 235 -85 235 -218c0 -128 -87 -242 -249 -386h269v-129h-497v116c248 204 316 310 316 387z" />
    <glyph glyph-name="three" unicode="3" horiz-adv-x="557" 
d="M354 208c0 62 -47 92 -159 92c-23 0 -45 0 -76 -3v122c169 0 225 35 225 101c0 53 -37 79 -98 79c-55 0 -107 -21 -170 -57l-38 130c67 37 143 61 229 61c139 0 238 -62 238 -183c0 -84 -47 -143 -138 -176c105 -27 156 -88 156 -176c0 -131 -113 -210 -289 -210
c-86 0 -162 19 -222 48l38 133c59 -29 113 -52 181 -52c77 0 123 29 123 91z" />
    <glyph glyph-name="four" unicode="4" horiz-adv-x="631" 
d="M22 139v122l314 459h180v-451h103v-130h-103v-139h-158v139h-336zM179 269h179v261z" />
    <glyph glyph-name="five" unicode="5" horiz-adv-x="549" 
d="M365 227c0 78 -55 111 -154 111c-39 0 -98 -5 -167 -24l13 406h437v-134h-285l-5 -129c27 3 51 4 68 4c149 0 254 -82 254 -231c0 -156 -114 -242 -291 -242c-83 0 -160 19 -220 48l38 134c58 -28 110 -51 179 -51c86 0 133 36 133 108z" />
    <glyph glyph-name="six" unicode="6" horiz-adv-x="603" 
d="M356 732c64 0 131 -15 181 -43l-38 -135c-47 24 -92 45 -145 45c-81 0 -141 -50 -154 -185c52 53 108 68 159 68c128 0 214 -95 214 -237c0 -166 -117 -257 -254 -257c-162 0 -279 128 -279 366c0 251 130 378 316 378zM317 356c-41 0 -75 -19 -117 -54
c11 -139 59 -187 121 -187c57 0 98 40 98 119c0 78 -39 122 -102 122z" />
    <glyph glyph-name="seven" unicode="7" horiz-adv-x="501" 
d="M243 0h-177c80 221 158 406 243 581h-297v139h479v-130c-88 -176 -167 -365 -248 -590z" />
    <glyph glyph-name="eight" unicode="8" horiz-adv-x="593" 
d="M571 204c0 -134 -114 -216 -281 -216c-165 0 -267 81 -267 202c0 100 69 145 138 175c-60 31 -107 79 -107 163c0 123 101 204 250 204c144 0 236 -76 236 -188c0 -80 -46 -125 -115 -159c72 -29 146 -74 146 -181zM210 537c0 -49 36 -75 95 -100c49 27 79 53 79 99
c0 49 -34 79 -87 79s-87 -31 -87 -78zM409 193c0 62 -56 90 -128 120c-59 -31 -96 -61 -96 -117c0 -61 44 -95 110 -95c67 0 114 35 114 92z" />
    <glyph glyph-name="nine" unicode="9" horiz-adv-x="603" 
d="M246 -12c-61 0 -128 14 -180 43l38 131c47 -24 92 -45 145 -45c81 0 142 51 154 189c-52 -53 -108 -68 -159 -68c-128 0 -214 95 -214 237c0 166 117 257 254 257c162 0 279 -128 279 -365c0 -251 -131 -379 -317 -379zM287 360c37 0 71 16 116 53
c-10 138 -60 188 -122 188c-56 0 -97 -41 -97 -120c0 -77 40 -121 103 -121z" />
    <glyph glyph-name="colon" unicode=":" horiz-adv-x="301" 
d="M150 316c-56 0 -96 40 -96 92s40 92 96 92s96 -40 96 -92s-40 -92 -96 -92zM150 -12c-56 0 -96 40 -96 92s40 92 96 92s96 -40 96 -92s-40 -92 -96 -92z" />
    <glyph glyph-name="semicolon" unicode=";" horiz-adv-x="301" 
d="M25 -116c66 40 96 78 109 116c-50 4 -82 39 -82 85c0 49 36 87 92 87c64 0 108 -49 108 -129c0 -75 -38 -152 -158 -223zM148 316c-56 0 -96 40 -96 92s40 92 96 92s96 -40 96 -92s-40 -92 -96 -92z" />
    <glyph glyph-name="less" unicode="&#x3c;" horiz-adv-x="572" 
d="M42 200v110l488 200v-120l-353 -135l353 -135v-120z" />
    <glyph glyph-name="equal" unicode="=" horiz-adv-x="572" 
d="M530 412v-111h-488v111h488zM530 208v-111h-488v111h488z" />
    <glyph glyph-name="greater" unicode="&#x3e;" horiz-adv-x="572" 
d="M530 310v-110l-488 -200v120l353 135l-353 135v120z" />
    <glyph glyph-name="question" unicode="?" horiz-adv-x="433" 
d="M235 523c0 57 -46 84 -116 84c-13 0 -41 -1 -80 -12v120c43 11 81 17 124 17c140 0 232 -64 232 -186c0 -169 -178 -185 -178 -302c0 -4 0 -15 1 -20h-124c-4 25 -5 44 -5 54c0 127 146 144 146 245zM251 74c0 -49 -38 -86 -92 -86s-92 37 -92 86s38 86 92 86
s92 -37 92 -86z" />
    <glyph glyph-name="at" unicode="@" horiz-adv-x="836" 
d="M605 168c48 0 79 64 79 146c0 147 -99 243 -246 243c-170 0 -287 -129 -287 -299c0 -174 123 -261 270 -261c63 0 123 16 183 39l28 -91c-60 -23 -135 -40 -212 -40c-206 0 -370 123 -370 353c0 226 159 391 389 391c206 0 347 -133 347 -335c0 -158 -87 -233 -191 -233
c-64 0 -105 29 -118 74c-34 -41 -70 -74 -128 -74c-68 0 -122 46 -122 154c0 124 71 238 222 238c60 0 109 -18 137 -30l-20 -189c-1 -9 -2 -16 -2 -26c0 -33 10 -60 41 -60zM373 173c34 0 63 31 87 67l15 137c-12 5 -26 8 -41 8c-82 0 -102 -92 -102 -146
c0 -52 18 -66 41 -66z" />
    <glyph glyph-name="A" unicode="A" horiz-adv-x="695" 
d="M446 720l232 -720h-171l-42 146h-241l-42 -146h-165l237 720h192zM345 565l-86 -298h171z" />
    <glyph glyph-name="B" unicode="B" horiz-adv-x="672" 
d="M77 0v720h262c161 0 256 -62 256 -193c0 -76 -32 -130 -104 -159c93 -27 134 -90 134 -173c0 -122 -88 -195 -271 -195h-277zM237 122h116c76 0 111 27 111 91s-35 91 -111 91h-116v-182zM237 420h91c73 0 106 26 106 87c0 60 -33 86 -106 86h-91v-173z" />
    <glyph glyph-name="C" unicode="C" horiz-adv-x="602" 
d="M536 175l38 -127c-56 -35 -131 -60 -215 -60c-190 0 -321 125 -321 364c0 247 141 380 340 380c77 0 140 -20 192 -53l-38 -139c-49 31 -94 56 -154 56c-100 0 -177 -71 -177 -240s76 -237 180 -237c58 0 105 21 155 56z" />
    <glyph glyph-name="D" unicode="D" horiz-adv-x="718" 
d="M77 720h251c209 0 349 -124 349 -359c0 -239 -145 -361 -349 -361h-251v720zM240 131h88c104 0 186 63 186 226c0 164 -82 227 -186 227h-88v-453z" />
    <glyph glyph-name="E" unicode="E" horiz-adv-x="589" 
d="M77 0v720h473v-136h-310v-156h269v-128h-269v-169h313v-131h-476z" />
    <glyph glyph-name="F" unicode="F" horiz-adv-x="548" 
d="M77 0v720h451v-136h-288v-166h252v-128h-252v-290h-163z" />
    <glyph glyph-name="G" unicode="G" horiz-adv-x="688" 
d="M398 114c25 0 48 3 70 8v148h-118v121h270v-343c-68 -36 -149 -60 -241 -60c-209 0 -341 125 -341 363c0 248 143 381 357 381c93 0 166 -25 225 -65l-38 -139c-55 39 -111 68 -185 68c-115 0 -196 -69 -196 -244c0 -173 79 -238 197 -238z" />
    <glyph glyph-name="H" unicode="H" horiz-adv-x="723" 
d="M77 0v720h163v-284h243v284h163v-720h-163v300h-243v-300h-163z" />
    <glyph glyph-name="I" unicode="I" horiz-adv-x="328" 
d="M83 0v720h163v-720h-163z" />
    <glyph glyph-name="J" unicode="J" horiz-adv-x="411" 
d="M18 0v133c21 -4 52 -8 77 -8c71 0 89 32 89 105v490h163v-490c0 -166 -65 -236 -238 -236c-29 0 -70 2 -91 6z" />
    <glyph glyph-name="K" unicode="K" horiz-adv-x="682" 
d="M77 0v720h163v-297l222 297h188l-223 -270l242 -450h-179l-168 323l-82 -99v-224h-163z" />
    <glyph glyph-name="L" unicode="L" horiz-adv-x="540" 
d="M77 0v720h163v-584h281v-136h-444z" />
    <glyph glyph-name="M" unicode="M" horiz-adv-x="963" 
d="M551 0h-146l-115 372c-13 42 -36 119 -40 153h-2c0 -33 0 -110 -3 -161l-19 -364h-158l61 720h209l106 -375c19 -67 31 -117 37 -154h2c10 49 24 105 40 160l110 369h205l57 -720h-164l-18 360c-3 51 -3 132 -3 165h-2c-4 -33 -27 -112 -40 -153z" />
    <glyph glyph-name="N" unicode="N" horiz-adv-x="731" 
d="M77 0v720h171l255 -419v419h150v-720h-136l-290 477v-477h-150z" />
    <glyph glyph-name="O" unicode="O" horiz-adv-x="723" 
d="M686 362c0 -244 -138 -374 -326 -374c-186 0 -322 128 -322 370c0 244 138 374 326 374c186 0 322 -128 322 -370zM523 358c0 172 -70 238 -161 238s-161 -66 -161 -238s70 -238 161 -238s161 66 161 238z" />
    <glyph glyph-name="P" unicode="P" horiz-adv-x="646" 
d="M77 0v720h270c169 0 270 -78 270 -232c0 -155 -106 -232 -282 -232h-97v-256h-161zM238 587v-203h97c82 0 121 32 121 101c0 70 -39 102 -121 102h-97z" />
    <glyph glyph-name="Q" unicode="Q" horiz-adv-x="729" 
d="M464 -192c-120 0 -183 45 -183 168v24c-144 31 -243 151 -243 358c0 244 138 374 325 374c186 0 321 -128 321 -370c0 -220 -111 -343 -270 -366c4 -47 32 -61 85 -61c34 0 61 6 88 14v-130c-40 -6 -84 -11 -123 -11zM522 358c0 172 -70 238 -161 238s-160 -66 -160 -238
c0 -173 69 -239 160 -239s161 66 161 239z" />
    <glyph glyph-name="R" unicode="R" horiz-adv-x="705" 
d="M478 0l-148 286h-93v-286h-160v720h294c161 0 255 -73 255 -216c0 -101 -47 -166 -134 -198l165 -306h-179zM237 402h117c76 0 112 28 112 92c0 65 -36 93 -112 93h-117v-185z" />
    <glyph glyph-name="S" unicode="S" horiz-adv-x="584" 
d="M38 45l38 133c63 -34 127 -60 192 -60c73 0 115 33 115 82c0 138 -326 63 -326 306c0 139 106 226 261 226c78 0 150 -22 207 -56l-38 -140c-51 34 -111 60 -168 60c-62 0 -99 -31 -99 -75c0 -128 326 -52 326 -300c0 -144 -111 -233 -276 -233c-78 0 -164 20 -232 57z
" />
    <glyph glyph-name="T" unicode="T" horiz-adv-x="583" 
d="M210 0v584h-191v136h545v-136h-191v-584h-163z" />
    <glyph glyph-name="U" unicode="U" horiz-adv-x="689" 
d="M64 260v460h164v-454c0 -108 40 -142 120 -142c79 0 119 34 119 142v454h158v-454c0 -199 -99 -278 -284 -278c-181 0 -277 77 -277 272z" />
    <glyph glyph-name="V" unicode="V" horiz-adv-x="666" 
d="M246 0l-229 720h165l154 -515l155 515h158l-234 -720h-169z" />
    <glyph glyph-name="W" unicode="W" horiz-adv-x="959" 
d="M357 0h-159l-177 720h171l71 -316c13 -58 25 -131 31 -189h2c7 57 18 124 33 186l77 319h154l76 -318c17 -71 27 -132 34 -187h2c6 57 17 127 31 189l71 316h164l-180 -720h-159l-82 338c-16 66 -28 127 -37 186h-2c-11 -75 -27 -151 -36 -187z" />
    <glyph glyph-name="X" unicode="X" horiz-adv-x="688" 
d="M32 0l210 371l-201 349h178l128 -237l127 237h172l-201 -349l210 -371h-179l-136 259l-135 -259h-173z" />
    <glyph glyph-name="Y" unicode="Y" horiz-adv-x="649" 
d="M243 0v290l-234 430h171l147 -279l148 279h165l-234 -430v-290h-163z" />
    <glyph glyph-name="Z" unicode="Z" horiz-adv-x="615" 
d="M29 0v111l331 473h-311v136h526v-116l-331 -473h332v-131h-547z" />
    <glyph glyph-name="bracketleft" unicode="[" horiz-adv-x="423" 
d="M398 -67v-113h-331v900h331v-113h-170v-674h170z" />
    <glyph glyph-name="backslash" unicode="\" horiz-adv-x="650" 
d="M187 720l439 -760h-163l-439 760h163z" />
    <glyph glyph-name="bracketright" unicode="]" horiz-adv-x="423" 
d="M25 -180v113h170v674h-170v113h331v-900h-331z" />
    <glyph glyph-name="asciicircum" unicode="^" horiz-adv-x="572" 
d="M231 720h110l200 -488h-120l-135 353l-135 -353h-120z" />
    <glyph glyph-name="underscore" unicode="_" horiz-adv-x="492" 
d="M-4 -156v109h500v-109h-500z" />
    <glyph glyph-name="grave" unicode="`" horiz-adv-x="500" 
d="M346 553h-124l-144 167h175z" />
    <glyph glyph-name="a" unicode="a" horiz-adv-x="531" 
d="M241 399c-49 0 -99 -17 -153 -40l-30 118c61 25 135 45 218 45c126 0 206 -45 206 -189v-217c0 -84 5 -105 10 -116h-152c-5 8 -10 20 -13 54c-39 -43 -89 -66 -144 -66c-87 0 -152 56 -152 160c0 107 69 171 223 171c19 0 46 -1 71 -4v6c0 57 -29 78 -84 78zM242 103
c29 0 58 15 83 34v87c-15 3 -27 5 -47 5c-67 0 -90 -22 -90 -65s22 -61 54 -61z" />
    <glyph glyph-name="b" unicode="b" horiz-adv-x="587" 
d="M61 720h161v-273c40 48 88 75 147 75c111 0 187 -93 187 -259c0 -179 -89 -275 -201 -275c-56 0 -101 24 -139 77v-65h-155v720zM308 390c-27 0 -54 -12 -86 -43v-195c31 -29 57 -41 84 -41c51 0 89 40 89 141c0 98 -36 138 -87 138z" />
    <glyph glyph-name="c" unicode="c" horiz-adv-x="449" 
d="M424 487l-30 -123c-30 19 -58 35 -95 35c-61 0 -107 -43 -107 -147c0 -103 45 -146 110 -146c36 0 68 13 95 33l31 -113c-40 -23 -93 -38 -153 -38c-145 0 -244 88 -244 260c0 178 106 274 257 274c62 0 104 -16 136 -35z" />
    <glyph glyph-name="d" unicode="d" horiz-adv-x="587" 
d="M380 0c-7 9 -11 23 -14 64c-40 -49 -89 -76 -148 -76c-111 0 -187 92 -187 257c0 179 90 277 202 277c49 0 94 -19 132 -69v267h161v-604c0 -84 5 -105 10 -116h-156zM279 111c27 0 54 12 86 43v195c-31 29 -57 41 -84 41c-51 0 -89 -41 -89 -141c0 -97 36 -138 87 -138z
" />
    <glyph glyph-name="e" unicode="e" horiz-adv-x="546" 
d="M284 412c-49 0 -84 -36 -90 -111h168c0 80 -33 111 -78 111zM506 208h-310c12 -82 59 -106 120 -106c47 0 94 14 150 38l30 -109c-54 -25 -130 -43 -203 -43c-160 0 -262 87 -262 259c0 180 111 275 257 275c134 0 222 -81 222 -252c0 -18 -1 -42 -4 -62z" />
    <glyph glyph-name="f" unicode="f" horiz-adv-x="348" 
d="M16 392v118h73v42c0 121 53 174 185 174c18 0 40 -1 59 -4v-116c-13 3 -24 4 -33 4c-40 0 -50 -19 -50 -58v-42h84v-118h-84v-392h-161v392h-73z" />
    <glyph glyph-name="g" unicode="g" horiz-adv-x="592" 
d="M514 338c0 -116 -107 -184 -239 -184c-23 0 -45 2 -66 6c-5 -8 -8 -18 -8 -28c0 -30 26 -33 61 -33h101c116 0 190 -46 190 -135c0 -120 -134 -186 -306 -186c-145 0 -239 46 -239 130c0 48 31 88 97 111c-29 21 -44 50 -44 79c0 36 23 68 60 95c-48 30 -78 77 -78 141
c0 121 107 188 239 188c70 0 132 -19 175 -55c24 27 58 43 96 43c10 0 18 -1 25 -2v-129c-6 1 -15 2 -25 2c-15 0 -29 -2 -43 -5c2 -11 4 -22 4 -38zM325 -16h-122c-26 -10 -43 -26 -43 -51c0 -40 45 -56 109 -56c75 0 124 21 124 63c0 30 -26 44 -68 44zM205 332
c0 -59 34 -82 77 -82c44 0 79 23 79 84c0 60 -34 82 -77 82c-44 0 -79 -23 -79 -84z" />
    <glyph glyph-name="h" unicode="h" horiz-adv-x="577" 
d="M61 0v720h161v-272c45 45 102 74 171 74c74 0 135 -34 135 -142v-380h-161v330c0 43 -18 57 -48 57c-34 0 -66 -18 -97 -45v-342h-161z" />
    <glyph glyph-name="i" unicode="i" horiz-adv-x="295" 
d="M238 652c0 -49 -35 -84 -90 -84s-91 35 -91 84s36 84 91 84s90 -35 90 -84zM67 0v510h161v-510h-161z" />
    <glyph glyph-name="j" unicode="j" horiz-adv-x="295" 
d="M228 510v-552c0 -121 -53 -174 -185 -174c-18 0 -40 1 -59 4v116c13 -3 24 -4 33 -4c40 0 50 19 50 58v552h161zM238 652c0 -49 -35 -84 -90 -84s-91 35 -91 84s36 84 91 84s90 -35 90 -84z" />
    <glyph glyph-name="k" unicode="k" horiz-adv-x="561" 
d="M61 0v720h161v-397l141 187h172l-167 -188l178 -322h-167l-111 209l-46 -52v-157h-161z" />
    <glyph glyph-name="l" unicode="l" horiz-adv-x="295" 
d="M67 0v720h161v-720h-161z" />
    <glyph glyph-name="m" unicode="m" horiz-adv-x="864" 
d="M61 0v510h161v-61c44 44 99 73 166 73c59 0 104 -23 121 -75c49 46 106 75 175 75c75 0 130 -35 130 -142v-380h-161v330c0 43 -16 57 -44 57c-33 0 -64 -19 -91 -43v-344h-161v330c0 44 -16 57 -44 57c-32 0 -62 -17 -91 -44v-343h-161z" />
    <glyph glyph-name="n" unicode="n" horiz-adv-x="577" 
d="M61 0v510h161v-62c45 45 102 74 171 74c74 0 135 -34 135 -142v-380h-161v330c0 43 -18 57 -48 57c-34 0 -66 -18 -97 -45v-342h-161z" />
    <glyph glyph-name="o" unicode="o" horiz-adv-x="561" 
d="M531 257c0 -184 -114 -269 -252 -269c-136 0 -248 83 -248 265c0 184 114 269 252 269c136 0 248 -83 248 -265zM370 253c0 112 -40 152 -89 152s-89 -40 -89 -152s40 -152 89 -152s89 40 89 152z" />
    <glyph glyph-name="p" unicode="p" horiz-adv-x="587" 
d="M61 510h161v-63c40 48 88 75 147 75c111 0 187 -93 187 -259c0 -179 -89 -275 -201 -275c-50 0 -95 19 -133 69v-267h-161v720zM308 390c-27 0 -54 -12 -86 -43v-195c31 -29 57 -41 84 -41c51 0 89 40 89 141c0 98 -36 138 -87 138z" />
    <glyph glyph-name="q" unicode="q" horiz-adv-x="587" 
d="M526 -210h-161v273c-40 -48 -88 -75 -147 -75c-111 0 -187 92 -187 257c0 178 89 277 201 277c53 0 99 -22 139 -77v65h155v-720zM279 111c27 0 54 12 86 43v195c-31 29 -57 41 -84 41c-51 0 -89 -41 -89 -141c0 -97 36 -138 87 -138z" />
    <glyph glyph-name="r" unicode="r" horiz-adv-x="404" 
d="M390 519v-138c-9 1 -20 1 -32 1c-65 0 -117 -39 -136 -56v-326h-161v510h161v-77c29 52 78 89 138 89c10 0 22 -1 30 -3z" />
    <glyph glyph-name="s" unicode="s" horiz-adv-x="469" 
d="M422 481l-30 -122c-40 25 -90 44 -131 44c-37 0 -55 -16 -55 -39c0 -75 232 -18 232 -199c0 -111 -87 -177 -221 -177c-67 0 -134 16 -186 42l30 118c49 -26 103 -46 152 -46c47 0 70 20 70 47c0 79 -232 26 -232 203c0 105 82 170 207 170c62 0 119 -17 164 -41z" />
    <glyph glyph-name="t" unicode="t" horiz-adv-x="371" 
d="M16 392v118h73v170h161v-170h95v-118h-95v-223c0 -42 11 -54 43 -54c19 0 37 4 52 8v-120c-28 -5 -62 -9 -101 -9c-114 0 -155 34 -155 151v247h-73z" />
    <glyph glyph-name="u" unicode="u" horiz-adv-x="577" 
d="M517 510v-510h-161v62c-45 -45 -102 -74 -171 -74c-74 0 -135 34 -135 142v380h161v-335c0 -43 18 -57 48 -57c34 0 66 18 97 45v347h161z" />
    <glyph glyph-name="v" unicode="v" horiz-adv-x="508" 
d="M170 0l-171 510h163l94 -329l96 329h157l-177 -510h-162z" />
    <glyph glyph-name="w" unicode="w" horiz-adv-x="740" 
d="M448 0l-54 211c-10 40 -18 80 -23 118h-3c-5 -38 -11 -77 -22 -117l-57 -212h-152l-135 510h152l52 -209c10 -40 15 -75 21 -119h2c4 37 11 80 21 119l54 209h139l54 -209c11 -43 17 -83 21 -119h2c5 37 10 80 20 119l52 209h147l-139 -510h-152z" />
    <glyph glyph-name="x" unicode="x" horiz-adv-x="521" 
d="M11 0l155 265l-143 245h165l75 -149l75 149h159l-143 -245l155 -265h-165l-87 169l-87 -169h-159z" />
    <glyph glyph-name="y" unicode="y" horiz-adv-x="508" 
d="M30 -212v126c16 -3 34 -5 54 -5c53 0 82 18 111 103h-42l-154 498h163l94 -358l97 358h157l-160 -498c-56 -175 -118 -228 -239 -228c-39 0 -66 1 -81 4z" />
    <glyph glyph-name="z" unicode="z" horiz-adv-x="497" 
d="M22 0v101l243 292h-228v117h427v-98l-243 -292h245v-120h-444z" />
    <glyph glyph-name="braceleft" unicode="{" horiz-adv-x="423" 
d="M289 142v-137c0 -55 19 -72 75 -72h29v-113h-29c-176 0 -235 45 -235 185v137c0 55 -19 72 -75 72h-25v112h25c56 0 75 17 75 72v137c0 140 59 185 235 185h29v-113h-29c-56 0 -75 -17 -75 -72v-137c0 -63 -27 -105 -87 -128c60 -24 87 -65 87 -128z" />
    <glyph glyph-name="bar" unicode="|" horiz-adv-x="397" 
d="M119 -180v900h159v-900h-159z" />
    <glyph glyph-name="braceright" unicode="}" horiz-adv-x="423" 
d="M134 5v137c0 63 27 104 87 128c-60 23 -87 65 -87 128v137c0 55 -19 72 -75 72h-29v113h29c176 0 235 -45 235 -185v-137c0 -55 19 -72 75 -72h25v-112h-25c-56 0 -75 -17 -75 -72v-137c0 -140 -59 -185 -235 -185h-29v113h29c56 0 75 17 75 72z" />
    <glyph glyph-name="asciitilde" unicode="~" horiz-adv-x="572" 
d="M170 213c-45 0 -81 -15 -109 -36l-40 116c29 22 85 44 146 44c82 0 161 -40 234 -40c45 0 81 15 109 36l40 -116c-29 -22 -86 -44 -146 -44c-81 0 -160 40 -234 40z" />
    <glyph glyph-name="uni00A0" unicode="&#xa0;" horiz-adv-x="220" 
 />
    <glyph glyph-name="exclamdown" unicode="&#xa1;" horiz-adv-x="337" 
d="M232 286l29 -496h-185l29 496h127zM261 436c0 -49 -38 -86 -92 -86s-92 37 -92 86s38 86 92 86s92 -37 92 -86z" />
    <glyph glyph-name="cent" unicode="&#xa2;" horiz-adv-x="474" 
d="M163 -143l35 154c-103 28 -167 112 -167 248c0 179 111 275 267 275c7 0 14 0 21 -1l29 124h80l-32 -139c16 -5 30 -12 43 -19l-31 -120c-13 8 -26 16 -39 22l-67 -287h8c38 0 70 12 102 33l30 -109c-41 -23 -96 -38 -158 -38h-8l-33 -143h-80zM189 263
c0 -58 14 -98 40 -121l63 272c-61 -6 -103 -50 -103 -151z" />
    <glyph glyph-name="sterling" unicode="&#xa3;" horiz-adv-x="501" 
d="M408 616c-56 0 -73 -24 -78 -75l-14 -133h135v-97h-145l-5 -47c-7 -66 -32 -113 -66 -142c36 -7 74 -14 106 -14c41 0 77 12 109 30l30 -118c-28 -16 -81 -32 -135 -32c-71 0 -141 27 -203 27c-43 0 -81 -13 -109 -30l-31 118c95 32 131 57 142 161l5 47h-123v97h133
l14 133c14 132 70 191 221 191c20 0 42 -1 57 -3v-117c-15 3 -32 4 -43 4z" />
    <glyph glyph-name="currency" unicode="&#xa4;" horiz-adv-x="572" 
d="M200 256c0 -49 39 -88 87 -88s87 39 87 88s-39 88 -87 88s-87 -39 -87 -88zM461 256c0 -25 -5 -49 -14 -70l75 -76l-88 -88l-79 80c-21 -8 -43 -12 -68 -12s-47 4 -68 12l-79 -80l-88 88l75 76c-9 21 -14 45 -14 70s5 49 14 70l-75 76l88 88l79 -80c21 8 43 12 68 12
s47 -4 68 -12l79 80l88 -88l-75 -76c9 -21 14 -45 14 -70z" />
    <glyph glyph-name="yen" unicode="&#xa5;" horiz-adv-x="604" 
d="M69 267v97h123l-183 356h162l134 -281l134 281h156l-183 -356h123v-97h-153v-57h153v-97h-153v-113h-160v113h-153v97h153v57h-153z" />
    <glyph glyph-name="brokenbar" unicode="&#xa6;" horiz-adv-x="397" 
d="M119 330v390h159v-390h-159zM119 -180v390h159v-390h-159z" />
    <glyph glyph-name="section" unicode="&#xa7;" horiz-adv-x="584" 
d="M334 732c71 0 136 -18 187 -45l-36 -125c-45 28 -100 48 -155 48c-54 0 -100 -19 -127 -61c188 -23 338 -117 338 -315c0 -183 -128 -286 -303 -286c-74 0 -141 18 -195 45l36 120c49 -27 105 -48 165 -48c58 0 109 20 138 65c-190 22 -339 115 -339 317
c0 182 122 285 291 285zM407 239c-6 127 -107 179 -230 197c6 -128 106 -180 230 -197z" />
    <glyph glyph-name="dieresis" unicode="&#xa8;" horiz-adv-x="500" 
d="M219 629c0 -42 -32 -74 -76 -74s-76 32 -76 74s32 74 76 74s76 -32 76 -74zM433 629c0 -42 -32 -74 -76 -74s-76 32 -76 74s32 74 76 74s76 -32 76 -74z" />
    <glyph glyph-name="copyright" unicode="&#xa9;" horiz-adv-x="838" 
d="M530 277l21 -79c-31 -19 -74 -31 -120 -31c-109 0 -182 65 -182 187c0 127 79 195 192 195c43 0 79 -10 108 -27l-22 -89c-23 16 -46 30 -78 30c-48 0 -86 -30 -86 -107c0 -75 37 -105 89 -105c30 0 53 10 78 26zM124 360c0 -173 129 -301 295 -301
c165 0 295 128 295 301s-130 301 -295 301c-166 0 -295 -128 -295 -301zM791 360c0 -213 -163 -372 -372 -372s-372 159 -372 372s163 372 372 372s372 -159 372 -372z" />
    <glyph glyph-name="ordfeminine" unicode="&#xaa;" horiz-adv-x="335" 
d="M171 704c80 0 132 -29 132 -120v-132c0 -54 3 -65 6 -72h-101c-3 4 -7 10 -9 28c-23 -24 -54 -36 -85 -36c-52 0 -93 35 -93 100c0 66 42 106 137 106c15 0 29 -1 40 -2c0 34 -18 46 -51 46c-30 0 -61 -10 -94 -23l-20 78c39 14 85 27 138 27zM157 449c14 0 29 6 41 14
v54c-6 1 -13 1 -20 1c-39 0 -53 -12 -53 -36c0 -23 13 -33 32 -33z" />
    <glyph glyph-name="guillemotleft" unicode="&#xab;" horiz-adv-x="560" 
d="M164 24l-138 231l138 231h145l-132 -231l132 -231h-145zM384 24l-138 231l138 231h145l-132 -231l132 -231h-145z" />
    <glyph glyph-name="logicalnot" unicode="&#xac;" horiz-adv-x="572" 
d="M530 69h-128v194h-360v124h488v-318z" />
    <glyph glyph-name="uni00AD" unicode="&#xad;" horiz-adv-x="406" 
d="M47 258v107h311v-107h-311z" />
    <glyph glyph-name="registered" unicode="&#xae;" horiz-adv-x="838" 
d="M791 360c0 -213 -163 -372 -372 -372s-372 159 -372 372s163 372 372 372s372 -159 372 -372zM124 360c0 -173 129 -301 295 -301s295 128 295 301s-129 301 -295 301s-295 -128 -295 -301zM477 175l-67 127h-33v-127h-110v366h163c95 0 151 -40 151 -120
c0 -49 -22 -82 -62 -101l78 -145h-120zM377 376h43c35 0 51 12 51 40c0 29 -16 41 -51 41h-43v-81z" />
    <glyph glyph-name="macron" unicode="&#xaf;" horiz-adv-x="500" 
d="M74 560v103h351v-103h-351z" />
    <glyph glyph-name="degree" unicode="&#xb0;" horiz-adv-x="430" 
d="M128 566c0 -51 36 -88 87 -88s87 37 87 88s-36 88 -87 88s-87 -37 -87 -88zM389 566c0 -95 -73 -166 -174 -166s-174 71 -174 166s73 166 174 166s174 -71 174 -166z" />
    <glyph glyph-name="plusminus" unicode="&#xb1;" horiz-adv-x="572" 
d="M350 113h-128v143h-180v111h180v143h128v-143h180v-111h-180v-143zM530 76v-111h-488v111h488z" />
    <glyph glyph-name="twosuperior" unicode="&#xb2;" horiz-adv-x="360" 
d="M213 688c0 31 -20 52 -56 52c-40 0 -75 -25 -106 -57l-30 89c33 35 86 62 151 62c91 0 149 -54 149 -136c0 -79 -53 -150 -148 -231h160v-87h-312v77c146 119 192 184 192 231z" />
    <glyph glyph-name="threesuperior" unicode="&#xb3;" horiz-adv-x="353" 
d="M169 834c87 0 151 -40 151 -115c0 -51 -29 -88 -81 -109c65 -17 92 -57 92 -107c0 -82 -73 -131 -183 -131c-54 0 -101 12 -140 29l25 89c35 -19 69 -32 111 -32c48 0 74 17 74 52s-27 53 -94 53c-16 0 -30 -1 -49 -2v79c104 0 137 21 137 59c0 30 -21 45 -57 45
c-33 0 -67 -12 -106 -35l-24 87c43 23 90 38 144 38z" />
    <glyph glyph-name="acute" unicode="&#xb4;" horiz-adv-x="500" 
d="M277 553h-124l93 167h175z" />
    <glyph glyph-name="mu" unicode="&#xb5;" horiz-adv-x="589" 
d="M527 510v-510h-161v62c-45 -45 -104 -73 -166 -74c14 -62 15 -127 16 -198h-155v720h160v-335c0 -43 18 -57 48 -57c34 0 66 18 97 45v347h161z" />
    <glyph glyph-name="paragraph" unicode="&#xb6;" horiz-adv-x="548" 
d="M352 680h132v-520c0 -162 -90 -218 -265 -255l-32 110c102 24 165 52 165 154v511zM298 680v-452c-173 0 -269 90 -269 226s96 226 269 226z" />
    <glyph glyph-name="periodcentered" unicode="&#xb7;" horiz-adv-x="301" 
d="M150 166c-56 0 -96 40 -96 92s40 92 96 92s96 -40 96 -92s-40 -92 -96 -92z" />
    <glyph glyph-name="cedilla" unicode="&#xb8;" horiz-adv-x="500" 
d="M382 -102c0 -69 -58 -106 -148 -106c-54 0 -89 13 -116 28l18 79c27 -15 54 -25 84 -25c28 0 47 9 47 29c0 18 -14 40 -78 50l14 56c119 -3 179 -40 179 -111z" />
    <glyph glyph-name="onesuperior" unicode="&#xb9;" horiz-adv-x="260" 
d="M42 684l-29 87l107 55h86v-446h-108v333z" />
    <glyph glyph-name="ordmasculine" unicode="&#xba;" horiz-adv-x="354" 
d="M333 539c0 -114 -73 -167 -157 -167s-155 53 -155 165c0 114 73 167 157 167s155 -53 155 -165zM226 536c0 67 -22 90 -49 90s-49 -23 -49 -90s22 -90 49 -90s49 23 49 90z" />
    <glyph glyph-name="guillemotright" unicode="&#xbb;" horiz-adv-x="560" 
d="M314 255l-138 -231h-145l132 231l-132 231h145zM534 255l-138 -231h-145l132 231l-132 231h145z" />
    <glyph glyph-name="onequarter" unicode="&#xbc;" horiz-adv-x="815" 
d="M430 84v82l194 280h119v-276h64v-86h-64v-84h-105v84h-208zM535 170h103v150zM96 0l454 720h129l-454 -720h-129zM42 578l-29 87l107 55h86v-446h-108v333z" />
    <glyph glyph-name="onehalf" unicode="&#xbd;" horiz-adv-x="848" 
d="M91 0l454 720h129l-454 -720h-129zM42 578l-29 87l107 55h86v-446h-108v333zM701 308c0 31 -20 52 -56 52c-40 0 -75 -25 -106 -57l-30 89c33 35 86 62 151 62c91 0 149 -54 149 -136c0 -79 -53 -150 -148 -231h160v-87h-312v77c146 119 192 184 192 231z" />
    <glyph glyph-name="threequarters" unicode="&#xbe;" horiz-adv-x="887" 
d="M502 84v82l194 280h119v-276h64v-86h-64v-84h-105v84h-208zM607 170h103v150zM177 0l454 720h129l-454 -720h-129zM169 728c87 0 151 -40 151 -115c0 -51 -29 -88 -81 -109c65 -17 92 -57 92 -107c0 -82 -73 -131 -183 -131c-54 0 -101 12 -140 29l25 89
c35 -19 69 -32 111 -32c48 0 74 17 74 52s-27 53 -94 53c-16 0 -30 -1 -49 -2v79c104 0 137 21 137 59c0 30 -21 45 -57 45c-33 0 -67 -12 -106 -35l-24 87c43 23 90 38 144 38z" />
    <glyph glyph-name="questiondown" unicode="&#xbf;" horiz-adv-x="433" 
d="M198 -13c0 -57 46 -84 116 -84c13 0 41 1 80 12v-120c-43 -11 -81 -17 -124 -17c-140 0 -232 64 -232 186c0 169 178 185 178 302c0 4 0 15 -1 20h124c4 -25 5 -44 5 -54c0 -127 -146 -144 -146 -245zM366 436c0 -49 -38 -86 -92 -86s-92 37 -92 86s38 86 92 86
s92 -37 92 -86z" />
    <glyph glyph-name="Agrave" unicode="&#xc0;" horiz-adv-x="695" 
d="M446 720l232 -720h-171l-42 146h-241l-42 -146h-165l237 720h192zM345 565l-86 -298h171zM444 762h-125l-144 147h176z" />
    <glyph glyph-name="Aacute" unicode="&#xc1;" horiz-adv-x="695" 
d="M446 720l232 -720h-171l-42 146h-241l-42 -146h-165l237 720h192zM345 565l-86 -298h171zM375 762h-125l93 147h176z" />
    <glyph glyph-name="Acircumflex" unicode="&#xc2;" horiz-adv-x="695" 
d="M446 720l232 -720h-171l-42 146h-241l-42 -146h-165l237 720h192zM345 565l-86 -298h171zM271 762h-116l129 147h126l129 -147h-116l-76 50z" />
    <glyph glyph-name="Atilde" unicode="&#xc3;" horiz-adv-x="695" 
d="M446 720l232 -720h-171l-42 146h-241l-42 -146h-165l237 720h192zM345 565l-86 -298h171zM246 762h-92c0 107 50 145 113 145c67 0 115 -43 152 -43c24 0 29 18 29 37h92c0 -107 -50 -145 -113 -145c-67 0 -116 43 -152 43c-24 0 -29 -18 -29 -37z" />
    <glyph glyph-name="Adieresis" unicode="&#xc4;" horiz-adv-x="695" 
d="M446 720l232 -720h-171l-42 146h-241l-42 -146h-165l237 720h192zM345 565l-86 -298h171zM316 837c0 -42 -32 -74 -76 -74s-76 32 -76 74s32 74 76 74s76 -32 76 -74zM530 837c0 -42 -32 -74 -76 -74s-76 32 -76 74s32 74 76 74s76 -32 76 -74z" />
    <glyph glyph-name="Aring" unicode="&#xc5;" horiz-adv-x="695" 
d="M466 739c0 -17 -4 -33 -11 -46l223 -693h-171l-42 146h-241l-42 -146h-165l228 693c-7 13 -11 29 -11 46c0 58 48 103 116 103s116 -45 116 -103zM345 565l-86 -298h171zM350 780c-28 0 -45 -19 -45 -41s17 -41 45 -41s45 19 45 41s-17 41 -45 41z" />
    <glyph glyph-name="AE" unicode="&#xc6;" horiz-adv-x="945" 
d="M14 0l369 720h523v-136h-278v-156h237v-128h-237v-169h281v-131h-444v146h-209l-68 -146h-174zM313 267h152v325z" />
    <glyph glyph-name="Ccedilla" unicode="&#xc7;" horiz-adv-x="602" 
d="M475 -101c0 -69 -58 -106 -148 -106c-54 0 -89 13 -116 28l18 79c27 -15 54 -25 84 -25c28 0 47 9 47 29c0 18 -14 40 -78 50l10 40c-153 26 -254 148 -254 358c0 247 141 380 340 380c77 0 140 -20 192 -53l-38 -139c-49 31 -94 56 -154 56c-100 0 -177 -71 -177 -240
s76 -237 180 -237c58 0 105 21 155 56l38 -127c-45 -28 -102 -49 -165 -57c44 -18 66 -49 66 -92z" />
    <glyph glyph-name="Egrave" unicode="&#xc8;" horiz-adv-x="589" 
d="M77 0v720h473v-136h-310v-156h269v-128h-269v-169h313v-131h-476zM412 762h-125l-144 147h176z" />
    <glyph glyph-name="Eacute" unicode="&#xc9;" horiz-adv-x="589" 
d="M77 0v720h473v-136h-310v-156h269v-128h-269v-169h313v-131h-476zM343 762h-125l93 147h176z" />
    <glyph glyph-name="Ecircumflex" unicode="&#xca;" horiz-adv-x="589" 
d="M77 0v720h473v-136h-310v-156h269v-128h-269v-169h313v-131h-476zM239 762h-116l129 147h126l129 -147h-116l-76 50z" />
    <glyph glyph-name="Edieresis" unicode="&#xcb;" horiz-adv-x="589" 
d="M77 0v720h473v-136h-310v-156h269v-128h-269v-169h313v-131h-476zM284 837c0 -42 -32 -74 -76 -74s-76 32 -76 74s32 74 76 74s76 -32 76 -74zM498 837c0 -42 -32 -74 -76 -74s-76 32 -76 74s32 74 76 74s76 -32 76 -74z" />
    <glyph glyph-name="Igrave" unicode="&#xcc;" horiz-adv-x="328" 
d="M83 0v720h163v-720h-163zM262 762h-125l-144 147h176z" />
    <glyph glyph-name="Iacute" unicode="&#xcd;" horiz-adv-x="328" 
d="M83 0v720h163v-720h-163zM193 762h-125l93 147h176z" />
    <glyph glyph-name="Icircumflex" unicode="&#xce;" horiz-adv-x="328" 
d="M83 0v720h163v-720h-163zM89 762h-116l129 147h126l129 -147h-116l-76 50z" />
    <glyph glyph-name="Idieresis" unicode="&#xcf;" horiz-adv-x="328" 
d="M83 0v720h163v-720h-163zM134 837c0 -42 -32 -74 -76 -74s-76 32 -76 74s32 74 76 74s76 -32 76 -74zM348 837c0 -42 -32 -74 -76 -74s-76 32 -76 74s32 74 76 74s76 -32 76 -74z" />
    <glyph glyph-name="Eth" unicode="&#xd0;" horiz-adv-x="718" 
d="M12 313v103h65v304h251c209 0 349 -124 349 -359c0 -239 -145 -361 -349 -361h-251v313h-65zM240 131h88c104 0 186 63 186 226c0 164 -82 227 -186 227h-88v-168h136v-103h-136v-182z" />
    <glyph glyph-name="Ntilde" unicode="&#xd1;" horiz-adv-x="731" 
d="M77 0v720h171l255 -419v419h150v-720h-136l-290 477v-477h-150zM264 762h-92c0 107 50 145 113 145c67 0 115 -43 152 -43c24 0 29 18 29 37h92c0 -107 -50 -145 -113 -145c-67 0 -116 43 -152 43c-24 0 -29 -18 -29 -37z" />
    <glyph glyph-name="Ograve" unicode="&#xd2;" horiz-adv-x="723" 
d="M686 362c0 -244 -138 -374 -326 -374c-186 0 -322 128 -322 370c0 244 138 374 326 374c186 0 322 -128 322 -370zM523 358c0 172 -70 238 -161 238s-161 -66 -161 -238s70 -238 161 -238s161 66 161 238zM458 762h-125l-144 147h176z" />
    <glyph glyph-name="Oacute" unicode="&#xd3;" horiz-adv-x="723" 
d="M686 362c0 -244 -138 -374 -326 -374c-186 0 -322 128 -322 370c0 244 138 374 326 374c186 0 322 -128 322 -370zM523 358c0 172 -70 238 -161 238s-161 -66 -161 -238s70 -238 161 -238s161 66 161 238zM389 762h-125l93 147h176z" />
    <glyph glyph-name="Ocircumflex" unicode="&#xd4;" horiz-adv-x="723" 
d="M686 362c0 -244 -138 -374 -326 -374c-186 0 -322 128 -322 370c0 244 138 374 326 374c186 0 322 -128 322 -370zM523 358c0 172 -70 238 -161 238s-161 -66 -161 -238s70 -238 161 -238s161 66 161 238zM285 762h-116l129 147h126l129 -147h-116l-76 50z" />
    <glyph glyph-name="Otilde" unicode="&#xd5;" horiz-adv-x="723" 
d="M686 362c0 -244 -138 -374 -326 -374c-186 0 -322 128 -322 370c0 244 138 374 326 374c186 0 322 -128 322 -370zM523 358c0 172 -70 238 -161 238s-161 -66 -161 -238s70 -238 161 -238s161 66 161 238zM258 762h-92c0 107 50 145 113 145c67 0 115 -43 152 -43
c24 0 29 18 29 37h92c0 -107 -50 -145 -113 -145c-67 0 -116 43 -152 43c-24 0 -29 -18 -29 -37z" />
    <glyph glyph-name="Odieresis" unicode="&#xd6;" horiz-adv-x="723" 
d="M686 362c0 -244 -138 -374 -326 -374c-186 0 -322 128 -322 370c0 244 138 374 326 374c186 0 322 -128 322 -370zM523 358c0 172 -70 238 -161 238s-161 -66 -161 -238s70 -238 161 -238s161 66 161 238zM330 837c0 -42 -32 -74 -76 -74s-76 32 -76 74s32 74 76 74
s76 -32 76 -74zM544 837c0 -42 -32 -74 -76 -74s-76 32 -76 74s32 74 76 74s76 -32 76 -74z" />
    <glyph glyph-name="multiply" unicode="&#xd7;" horiz-adv-x="572" 
d="M51 402l88 88l147 -147l147 147l88 -88l-146 -147l146 -147l-88 -88l-147 147l-147 -147l-88 88l146 147z" />
    <glyph glyph-name="Oslash" unicode="&#xd8;" horiz-adv-x="723" 
d="M527 360c0 36 -3 70 -10 99l-269 -292c29 -36 69 -51 114 -51c93 0 165 65 165 244zM197 357c0 -36 3 -69 9 -97l268 291c-29 35 -68 49 -112 49c-93 0 -165 -66 -165 -243zM686 362c0 -244 -138 -374 -326 -374c-82 0 -155 25 -210 73l-67 -73l-69 63l77 83
c-34 58 -53 133 -53 224c0 244 138 374 326 374c82 0 154 -25 209 -74l68 74l69 -63l-77 -84c33 -58 53 -133 53 -223z" />
    <glyph glyph-name="Ugrave" unicode="&#xd9;" horiz-adv-x="689" 
d="M64 260v460h164v-454c0 -108 40 -142 120 -142c79 0 119 34 119 142v454h158v-454c0 -199 -99 -278 -284 -278c-181 0 -277 77 -277 272zM441 762h-125l-144 147h176z" />
    <glyph glyph-name="Uacute" unicode="&#xda;" horiz-adv-x="689" 
d="M64 260v460h164v-454c0 -108 40 -142 120 -142c79 0 119 34 119 142v454h158v-454c0 -199 -99 -278 -284 -278c-181 0 -277 77 -277 272zM372 762h-125l93 147h176z" />
    <glyph glyph-name="Ucircumflex" unicode="&#xdb;" horiz-adv-x="689" 
d="M64 260v460h164v-454c0 -108 40 -142 120 -142c79 0 119 34 119 142v454h158v-454c0 -199 -99 -278 -284 -278c-181 0 -277 77 -277 272zM268 762h-116l129 147h126l129 -147h-116l-76 50z" />
    <glyph glyph-name="Udieresis" unicode="&#xdc;" horiz-adv-x="689" 
d="M64 260v460h164v-454c0 -108 40 -142 120 -142c79 0 119 34 119 142v454h158v-454c0 -199 -99 -278 -284 -278c-181 0 -277 77 -277 272zM313 837c0 -42 -32 -74 -76 -74s-76 32 -76 74s32 74 76 74s76 -32 76 -74zM527 837c0 -42 -32 -74 -76 -74s-76 32 -76 74
s32 74 76 74s76 -32 76 -74z" />
    <glyph glyph-name="Yacute" unicode="&#xdd;" horiz-adv-x="649" 
d="M243 0v290l-234 430h171l147 -279l148 279h165l-234 -430v-290h-163zM355 762h-125l93 147h176z" />
    <glyph glyph-name="Thorn" unicode="&#xde;" horiz-adv-x="644" 
d="M77 0v720h161v-100h109c169 0 270 -78 270 -232c0 -155 -106 -232 -282 -232h-97v-156h-161zM238 487v-203h97c82 0 121 32 121 101c0 70 -39 102 -121 102h-97z" />
    <glyph glyph-name="germandbls" unicode="&#xdf;" horiz-adv-x="631" 
d="M294 323v116c52 0 95 24 95 91c0 60 -34 83 -77 83c-50 0 -90 -31 -90 -119v-494h-161v494c0 158 104 238 252 238c133 0 229 -64 229 -191c0 -72 -31 -125 -99 -156c106 -32 157 -96 157 -195c0 -130 -89 -202 -219 -202c-41 0 -79 7 -108 18l19 113
c23 -9 48 -16 71 -16c45 0 76 28 76 94c0 94 -63 126 -145 126z" />
    <glyph glyph-name="agrave" unicode="&#xe0;" horiz-adv-x="531" 
d="M241 399c-49 0 -99 -17 -153 -40l-30 118c61 25 135 45 218 45c126 0 206 -45 206 -189v-217c0 -84 5 -105 10 -116h-152c-5 8 -10 20 -13 54c-39 -43 -89 -66 -144 -66c-87 0 -152 56 -152 160c0 107 69 171 223 171c19 0 46 -1 71 -4v6c0 57 -29 78 -84 78zM242 103
c29 0 58 15 83 34v87c-15 3 -27 5 -47 5c-67 0 -90 -22 -90 -65s22 -61 54 -61zM369 553h-124l-144 167h175z" />
    <glyph glyph-name="aacute" unicode="&#xe1;" horiz-adv-x="531" 
d="M241 399c-49 0 -99 -17 -153 -40l-30 118c61 25 135 45 218 45c126 0 206 -45 206 -189v-217c0 -84 5 -105 10 -116h-152c-5 8 -10 20 -13 54c-39 -43 -89 -66 -144 -66c-87 0 -152 56 -152 160c0 107 69 171 223 171c19 0 46 -1 71 -4v6c0 57 -29 78 -84 78zM242 103
c29 0 58 15 83 34v87c-15 3 -27 5 -47 5c-67 0 -90 -22 -90 -65s22 -61 54 -61zM300 553h-124l93 167h175z" />
    <glyph glyph-name="acircumflex" unicode="&#xe2;" horiz-adv-x="531" 
d="M241 399c-49 0 -99 -17 -153 -40l-30 118c61 25 135 45 218 45c126 0 206 -45 206 -189v-217c0 -84 5 -105 10 -116h-152c-5 8 -10 20 -13 54c-39 -43 -89 -66 -144 -66c-87 0 -152 56 -152 160c0 107 69 171 223 171c19 0 46 -1 71 -4v6c0 57 -29 78 -84 78zM242 103
c29 0 58 15 83 34v87c-15 3 -27 5 -47 5c-67 0 -90 -22 -90 -65s22 -61 54 -61zM196 553h-114l129 167h124l129 -167h-114l-77 69z" />
    <glyph glyph-name="atilde" unicode="&#xe3;" horiz-adv-x="531" 
d="M241 399c-49 0 -99 -17 -153 -40l-30 118c61 25 135 45 218 45c126 0 206 -45 206 -189v-217c0 -84 5 -105 10 -116h-152c-5 8 -10 20 -13 54c-39 -43 -89 -66 -144 -66c-87 0 -152 56 -152 160c0 107 69 171 223 171c19 0 46 -1 71 -4v6c0 57 -29 78 -84 78zM242 103
c29 0 58 15 83 34v87c-15 3 -27 5 -47 5c-67 0 -90 -22 -90 -65s22 -61 54 -61zM171 559h-90c0 109 50 150 111 150c68 0 117 -53 152 -53c21 0 31 18 31 47h90c0 -109 -50 -150 -111 -150c-68 0 -117 53 -152 53c-21 0 -31 -18 -31 -47z" />
    <glyph glyph-name="adieresis" unicode="&#xe4;" horiz-adv-x="531" 
d="M241 399c-49 0 -99 -17 -153 -40l-30 118c61 25 135 45 218 45c126 0 206 -45 206 -189v-217c0 -84 5 -105 10 -116h-152c-5 8 -10 20 -13 54c-39 -43 -89 -66 -144 -66c-87 0 -152 56 -152 160c0 107 69 171 223 171c19 0 46 -1 71 -4v6c0 57 -29 78 -84 78zM242 103
c29 0 58 15 83 34v87c-15 3 -27 5 -47 5c-67 0 -90 -22 -90 -65s22 -61 54 -61zM242 629c0 -42 -32 -74 -76 -74s-76 32 -76 74s32 74 76 74s76 -32 76 -74zM456 629c0 -42 -32 -74 -76 -74s-76 32 -76 74s32 74 76 74s76 -32 76 -74z" />
    <glyph glyph-name="aring" unicode="&#xe5;" horiz-adv-x="531" 
d="M241 399c-49 0 -99 -17 -153 -40l-30 118c61 25 135 45 218 45c126 0 206 -45 206 -189v-217c0 -84 5 -105 10 -116h-152c-5 8 -10 20 -13 54c-39 -43 -89 -66 -144 -66c-87 0 -152 56 -152 160c0 107 69 171 223 171c19 0 46 -1 71 -4v6c0 57 -29 78 -84 78zM242 103
c29 0 58 15 83 34v87c-15 3 -27 5 -47 5c-67 0 -90 -22 -90 -65s22 -61 54 -61zM231 655c0 -22 16 -41 42 -41s42 19 42 41s-16 41 -42 41s-42 -19 -42 -41zM379 655c0 -58 -45 -103 -106 -103s-106 45 -106 103s45 103 106 103s106 -45 106 -103z" />
    <glyph glyph-name="ae" unicode="&#xe6;" horiz-adv-x="834" 
d="M794 208h-310c12 -82 59 -106 120 -106c47 0 94 14 150 38l30 -109c-54 -25 -130 -43 -203 -43c-88 0 -159 26 -204 78c-46 -45 -111 -78 -184 -78c-95 0 -162 56 -162 160c0 108 71 171 223 171c19 0 46 -1 71 -4v6c0 57 -29 78 -84 78c-49 0 -99 -17 -153 -40l-30 118
c61 25 135 45 218 45c64 0 116 -12 151 -42c42 28 93 42 149 42c134 0 222 -81 222 -252c0 -18 -1 -42 -4 -62zM242 103c26 0 59 13 92 40c-8 25 -13 52 -15 82c-12 2 -24 4 -43 4c-65 0 -89 -23 -89 -66c0 -42 23 -60 55 -60zM572 412c-49 0 -84 -36 -90 -111h168
c0 80 -33 111 -78 111z" />
    <glyph glyph-name="ccedilla" unicode="&#xe7;" horiz-adv-x="449" 
d="M397 -102c0 -69 -58 -106 -148 -106c-54 0 -89 13 -116 28l18 79c27 -15 54 -25 84 -25c28 0 47 9 47 29c0 18 -14 40 -78 50l10 41c-111 22 -183 107 -183 254c0 178 106 274 257 274c62 0 104 -16 136 -35l-30 -123c-30 19 -58 35 -95 35c-61 0 -107 -43 -107 -147
c0 -103 45 -146 110 -146c36 0 68 13 95 33l31 -113c-28 -16 -63 -28 -101 -34c46 -18 70 -49 70 -94z" />
    <glyph glyph-name="egrave" unicode="&#xe8;" horiz-adv-x="546" 
d="M284 412c-49 0 -84 -36 -90 -111h168c0 80 -33 111 -78 111zM506 208h-310c12 -82 59 -106 120 -106c47 0 94 14 150 38l30 -109c-54 -25 -130 -43 -203 -43c-160 0 -262 87 -262 259c0 180 111 275 257 275c134 0 222 -81 222 -252c0 -18 -1 -42 -4 -62zM380 553h-124
l-144 167h175z" />
    <glyph glyph-name="eacute" unicode="&#xe9;" horiz-adv-x="546" 
d="M284 412c-49 0 -84 -36 -90 -111h168c0 80 -33 111 -78 111zM506 208h-310c12 -82 59 -106 120 -106c47 0 94 14 150 38l30 -109c-54 -25 -130 -43 -203 -43c-160 0 -262 87 -262 259c0 180 111 275 257 275c134 0 222 -81 222 -252c0 -18 -1 -42 -4 -62zM296 553h-124
l93 167h175z" />
    <glyph glyph-name="ecircumflex" unicode="&#xea;" horiz-adv-x="546" 
d="M284 412c-49 0 -84 -36 -90 -111h168c0 80 -33 111 -78 111zM506 208h-310c12 -82 59 -106 120 -106c47 0 94 14 150 38l30 -109c-54 -25 -130 -43 -203 -43c-160 0 -262 87 -262 259c0 180 111 275 257 275c134 0 222 -81 222 -252c0 -18 -1 -42 -4 -62zM200 553h-114
l129 167h124l129 -167h-114l-77 69z" />
    <glyph glyph-name="edieresis" unicode="&#xeb;" horiz-adv-x="546" 
d="M284 412c-49 0 -84 -36 -90 -111h168c0 80 -33 111 -78 111zM506 208h-310c12 -82 59 -106 120 -106c47 0 94 14 150 38l30 -109c-54 -25 -130 -43 -203 -43c-160 0 -262 87 -262 259c0 180 111 275 257 275c134 0 222 -81 222 -252c0 -18 -1 -42 -4 -62zM246 629
c0 -42 -32 -74 -76 -74s-76 32 -76 74s32 74 76 74s76 -32 76 -74zM460 629c0 -42 -32 -74 -76 -74s-76 32 -76 74s32 74 76 74s76 -32 76 -74z" />
    <glyph glyph-name="igrave" unicode="&#xec;" horiz-adv-x="295" 
d="M244 553h-124l-144 167h175zM67 0v510h161v-510h-161z" />
    <glyph glyph-name="iacute" unicode="&#xed;" horiz-adv-x="295" 
d="M175 553h-124l93 167h175zM67 0v510h161v-510h-161z" />
    <glyph glyph-name="icircumflex" unicode="&#xee;" horiz-adv-x="295" 
d="M67 0v510h161v-510h-161zM71 553h-114l129 167h124l129 -167h-114l-77 69z" />
    <glyph glyph-name="idieresis" unicode="&#xef;" horiz-adv-x="295" 
d="M117 629c0 -42 -32 -74 -76 -74s-76 32 -76 74s32 74 76 74s76 -32 76 -74zM331 629c0 -42 -32 -74 -76 -74s-76 32 -76 74s32 74 76 74s76 -32 76 -74zM67 0v510h161v-510h-161z" />
    <glyph glyph-name="eth" unicode="&#xf0;" horiz-adv-x="561" 
d="M240 516l-42 75l52 29c-12 14 -26 29 -41 44l91 84c23 -19 44 -40 67 -63l70 39l43 -75l-57 -31c62 -85 107 -218 107 -346c0 -190 -99 -284 -251 -284c-142 0 -248 82 -248 252c0 165 99 250 212 250c49 0 80 -16 107 -41c-12 36 -27 70 -47 102zM281 103
c48 0 88 35 88 134s-40 134 -88 134c-49 0 -89 -35 -89 -134s40 -134 89 -134z" />
    <glyph glyph-name="ntilde" unicode="&#xf1;" horiz-adv-x="577" 
d="M192 559h-90c0 109 50 150 111 150c68 0 117 -53 152 -53c21 0 31 18 31 47h90c0 -109 -50 -150 -111 -150c-68 0 -117 53 -152 53c-21 0 -31 -18 -31 -47zM61 0v510h161v-62c45 45 102 74 171 74c74 0 135 -34 135 -142v-380h-161v330c0 43 -18 57 -48 57
c-34 0 -66 -18 -97 -45v-342h-161z" />
    <glyph glyph-name="ograve" unicode="&#xf2;" horiz-adv-x="561" 
d="M531 257c0 -184 -114 -269 -252 -269c-136 0 -248 83 -248 265c0 184 114 269 252 269c136 0 248 -83 248 -265zM370 253c0 112 -40 152 -89 152s-89 -40 -89 -152s40 -152 89 -152s89 40 89 152zM376 553h-124l-144 167h175z" />
    <glyph glyph-name="oacute" unicode="&#xf3;" horiz-adv-x="561" 
d="M531 257c0 -184 -114 -269 -252 -269c-136 0 -248 83 -248 265c0 184 114 269 252 269c136 0 248 -83 248 -265zM370 253c0 112 -40 152 -89 152s-89 -40 -89 -152s40 -152 89 -152s89 40 89 152zM307 553h-124l93 167h175z" />
    <glyph glyph-name="ocircumflex" unicode="&#xf4;" horiz-adv-x="561" 
d="M531 257c0 -184 -114 -269 -252 -269c-136 0 -248 83 -248 265c0 184 114 269 252 269c136 0 248 -83 248 -265zM370 253c0 112 -40 152 -89 152s-89 -40 -89 -152s40 -152 89 -152s89 40 89 152zM203 553h-114l129 167h124l129 -167h-114l-77 69z" />
    <glyph glyph-name="otilde" unicode="&#xf5;" horiz-adv-x="561" 
d="M531 257c0 -184 -114 -269 -252 -269c-136 0 -248 83 -248 265c0 184 114 269 252 269c136 0 248 -83 248 -265zM370 253c0 112 -40 152 -89 152s-89 -40 -89 -152s40 -152 89 -152s89 40 89 152zM178 559h-90c0 109 50 150 111 150c68 0 117 -53 152 -53
c21 0 31 18 31 47h90c0 -109 -50 -150 -111 -150c-68 0 -117 53 -152 53c-21 0 -31 -18 -31 -47z" />
    <glyph glyph-name="odieresis" unicode="&#xf6;" horiz-adv-x="561" 
d="M531 257c0 -184 -114 -269 -252 -269c-136 0 -248 83 -248 265c0 184 114 269 252 269c136 0 248 -83 248 -265zM370 253c0 112 -40 152 -89 152s-89 -40 -89 -152s40 -152 89 -152s89 40 89 152zM249 629c0 -42 -32 -74 -76 -74s-76 32 -76 74s32 74 76 74
s76 -32 76 -74zM463 629c0 -42 -32 -74 -76 -74s-76 32 -76 74s32 74 76 74s76 -32 76 -74z" />
    <glyph glyph-name="divide" unicode="&#xf7;" horiz-adv-x="572" 
d="M370 440c0 -46 -31 -77 -84 -77c-52 0 -84 31 -84 77c0 47 32 78 84 78c53 0 84 -31 84 -78zM530 317v-124h-488v124h488zM370 70c0 -47 -31 -78 -84 -78c-52 0 -84 31 -84 78c0 46 32 77 84 77c53 0 84 -31 84 -77z" />
    <glyph glyph-name="oslash" unicode="&#xf8;" horiz-adv-x="561" 
d="M379 253c0 18 -1 35 -3 50l-161 -180c17 -22 40 -31 66 -31c54 0 98 42 98 161zM183 254c0 -18 1 -34 3 -48l159 178c-17 21 -40 30 -64 30c-54 0 -98 -42 -98 -160zM531 257c0 -184 -114 -269 -252 -269c-56 0 -107 14 -148 42l-55 -61l-58 50l58 65
c-28 42 -45 98 -45 169c0 184 114 269 252 269c55 0 106 -14 148 -43l55 62l58 -50l-59 -66c29 -42 46 -97 46 -168z" />
    <glyph glyph-name="ugrave" unicode="&#xf9;" horiz-adv-x="577" 
d="M379 553h-124l-144 167h175zM517 510v-510h-161v62c-45 -45 -102 -74 -171 -74c-74 0 -135 34 -135 142v380h161v-335c0 -43 18 -57 48 -57c34 0 66 18 97 45v347h161z" />
    <glyph glyph-name="uacute" unicode="&#xfa;" horiz-adv-x="577" 
d="M310 553h-124l93 167h175zM517 510v-510h-161v62c-45 -45 -102 -74 -171 -74c-74 0 -135 34 -135 142v380h161v-335c0 -43 18 -57 48 -57c34 0 66 18 97 45v347h161z" />
    <glyph glyph-name="ucircumflex" unicode="&#xfb;" horiz-adv-x="577" 
d="M206 553h-114l129 167h124l129 -167h-114l-77 69zM517 510v-510h-161v62c-45 -45 -102 -74 -171 -74c-74 0 -135 34 -135 142v380h161v-335c0 -43 18 -57 48 -57c34 0 66 18 97 45v347h161z" />
    <glyph glyph-name="udieresis" unicode="&#xfc;" horiz-adv-x="577" 
d="M252 629c0 -42 -32 -74 -76 -74s-76 32 -76 74s32 74 76 74s76 -32 76 -74zM466 629c0 -42 -32 -74 -76 -74s-76 32 -76 74s32 74 76 74s76 -32 76 -74zM517 510v-510h-161v62c-45 -45 -102 -74 -171 -74c-74 0 -135 34 -135 142v380h161v-335c0 -43 18 -57 48 -57
c34 0 66 18 97 45v347h161z" />
    <glyph glyph-name="yacute" unicode="&#xfd;" horiz-adv-x="508" 
d="M30 -212v126c16 -3 34 -5 54 -5c53 0 82 18 111 103h-42l-154 498h163l94 -358l97 358h157l-160 -498c-56 -175 -118 -228 -239 -228c-39 0 -66 1 -81 4zM284 553h-124l93 167h175z" />
    <glyph glyph-name="thorn" unicode="&#xfe;" horiz-adv-x="587" 
d="M61 720h161v-266c36 35 78 68 145 68c109 0 189 -88 189 -260c0 -186 -94 -274 -202 -274c-57 0 -94 24 -132 63v-261h-161v930zM309 390c-38 0 -66 -22 -87 -41v-201c20 -18 47 -37 84 -37c44 0 89 29 89 141c0 107 -41 138 -86 138z" />
    <glyph glyph-name="ydieresis" unicode="&#xff;" horiz-adv-x="508" 
d="M30 -212v126c16 -3 34 -5 54 -5c53 0 82 18 111 103h-42l-154 498h163l94 -358l97 358h157l-160 -498c-56 -175 -118 -228 -239 -228c-39 0 -66 1 -81 4zM223 629c0 -42 -32 -74 -76 -74s-76 32 -76 74s32 74 76 74s76 -32 76 -74zM437 629c0 -42 -32 -74 -76 -74
s-76 32 -76 74s32 74 76 74s76 -32 76 -74z" />
    <glyph glyph-name="Amacron" unicode="&#x100;" horiz-adv-x="695" 
d="M446 720l232 -720h-171l-42 146h-241l-42 -146h-165l237 720h192zM345 565l-86 -298h171zM170 768v103h352v-103h-352z" />
    <glyph glyph-name="amacron" unicode="&#x101;" horiz-adv-x="531" 
d="M241 399c-49 0 -99 -17 -153 -40l-30 118c61 25 135 45 218 45c126 0 206 -45 206 -189v-217c0 -84 5 -105 10 -116h-152c-5 8 -10 20 -13 54c-39 -43 -89 -66 -144 -66c-87 0 -152 56 -152 160c0 107 69 171 223 171c19 0 46 -1 71 -4v6c0 57 -29 78 -84 78zM242 103
c29 0 58 15 83 34v87c-15 3 -27 5 -47 5c-67 0 -90 -22 -90 -65s22 -61 54 -61zM97 560v103h351v-103h-351z" />
    <glyph glyph-name="Abreve" unicode="&#x102;" horiz-adv-x="695" 
d="M446 720l232 -720h-171l-42 146h-241l-42 -146h-165l237 720h192zM345 565l-86 -298h171zM347 762c-129 0 -181 55 -181 147h88c7 -31 29 -50 93 -50s86 19 93 50h88c0 -92 -52 -147 -181 -147z" />
    <glyph glyph-name="abreve" unicode="&#x103;" horiz-adv-x="531" 
d="M241 399c-49 0 -99 -17 -153 -40l-30 118c61 25 135 45 218 45c126 0 206 -45 206 -189v-217c0 -84 5 -105 10 -116h-152c-5 8 -10 20 -13 54c-39 -43 -89 -66 -144 -66c-87 0 -152 56 -152 160c0 107 69 171 223 171c19 0 46 -1 71 -4v6c0 57 -29 78 -84 78zM242 103
c29 0 58 15 83 34v87c-15 3 -27 5 -47 5c-67 0 -90 -22 -90 -65s22 -61 54 -61zM273 559c-129 0 -181 62 -181 161h87c7 -41 29 -64 94 -64s87 23 94 64h87c0 -99 -52 -161 -181 -161z" />
    <glyph glyph-name="Aogonek" unicode="&#x104;" horiz-adv-x="695" 
d="M447 720l231 -720h-53c-64 -32 -88 -62 -88 -93c0 -24 15 -31 37 -31c9 0 21 1 32 4l19 -80c-21 -5 -49 -8 -74 -8c-81 0 -130 33 -130 95c0 42 22 82 86 113l-42 146h-241l-42 -146h-165l237 720h193zM345 565l-86 -298h171z" />
    <glyph glyph-name="aogonek" unicode="&#x105;" horiz-adv-x="531" 
d="M340 0c-5 8 -10 20 -13 54c-39 -43 -89 -66 -144 -66c-86 0 -152 56 -152 160c0 107 69 171 223 171c19 0 46 -1 71 -4v6c0 57 -29 78 -84 78c-49 0 -99 -17 -153 -40l-30 118c61 25 135 45 218 45c126 0 206 -45 206 -189v-217c0 -84 5 -105 10 -116h-36
c-64 -32 -88 -62 -88 -93c0 -24 15 -31 37 -31c9 0 21 1 32 4l19 -80c-21 -5 -48 -8 -73 -8c-81 0 -129 33 -129 95c0 42 22 82 86 113zM242 103c29 0 58 15 83 34v87c-15 3 -27 5 -47 5c-67 0 -90 -22 -90 -65s22 -61 54 -61z" />
    <glyph glyph-name="Cacute" unicode="&#x106;" horiz-adv-x="602" 
d="M536 175l38 -127c-56 -35 -131 -60 -215 -60c-190 0 -321 125 -321 364c0 247 141 380 340 380c77 0 140 -20 192 -53l-38 -139c-49 31 -94 56 -154 56c-100 0 -177 -71 -177 -240s76 -237 180 -237c58 0 105 21 155 56zM374 762h-125l93 147h176z" />
    <glyph glyph-name="cacute" unicode="&#x107;" horiz-adv-x="449" 
d="M424 487l-30 -123c-30 19 -58 35 -95 35c-61 0 -107 -43 -107 -147c0 -103 45 -146 110 -146c36 0 68 13 95 33l31 -113c-40 -23 -93 -38 -153 -38c-145 0 -244 88 -244 260c0 178 106 274 257 274c62 0 104 -16 136 -35zM285 553h-124l93 167h175z" />
    <glyph glyph-name="Ccircumflex" unicode="&#x108;" horiz-adv-x="602" 
d="M536 175l38 -127c-56 -35 -131 -60 -215 -60c-190 0 -321 125 -321 364c0 247 141 380 340 380c77 0 140 -20 192 -53l-38 -139c-49 31 -94 56 -154 56c-100 0 -177 -71 -177 -240s76 -237 180 -237c58 0 105 21 155 56zM270 762h-116l129 147h126l129 -147h-116l-76 50z
" />
    <glyph glyph-name="ccircumflex" unicode="&#x109;" horiz-adv-x="449" 
d="M424 487l-30 -123c-30 19 -58 35 -95 35c-61 0 -107 -43 -107 -147c0 -103 45 -146 110 -146c36 0 68 13 95 33l31 -113c-40 -23 -93 -38 -153 -38c-145 0 -244 88 -244 260c0 178 106 274 257 274c62 0 104 -16 136 -35zM181 553h-114l129 167h124l129 -167h-114l-77 69
z" />
    <glyph glyph-name="Cdotaccent" unicode="&#x10a;" horiz-adv-x="602" 
d="M536 175l38 -127c-56 -35 -131 -60 -215 -60c-190 0 -321 125 -321 364c0 247 141 380 340 380c77 0 140 -20 192 -53l-38 -139c-49 31 -94 56 -154 56c-100 0 -177 -71 -177 -240s76 -237 180 -237c58 0 105 21 155 56zM437 842c0 -49 -36 -84 -91 -84s-91 35 -91 84
s36 84 91 84s91 -35 91 -84z" />
    <glyph glyph-name="cdotaccent" unicode="&#x10b;" horiz-adv-x="449" 
d="M424 487l-30 -123c-30 19 -58 35 -95 35c-61 0 -107 -43 -107 -147c0 -103 45 -146 110 -146c36 0 68 13 95 33l31 -113c-40 -23 -93 -38 -153 -38c-145 0 -244 88 -244 260c0 178 106 274 257 274c62 0 104 -16 136 -35zM349 636c0 -49 -36 -84 -91 -84s-91 35 -91 84
s36 84 91 84s91 -35 91 -84z" />
    <glyph glyph-name="Ccaron" unicode="&#x10c;" horiz-adv-x="602" 
d="M536 175l38 -127c-56 -35 -131 -60 -215 -60c-190 0 -321 125 -321 364c0 247 141 380 340 380c77 0 140 -20 192 -53l-38 -139c-49 31 -94 56 -154 56c-100 0 -177 -71 -177 -240s76 -237 180 -237c58 0 105 21 155 56zM422 909h116l-129 -147h-126l-129 147h116l76 -49
z" />
    <glyph glyph-name="ccaron" unicode="&#x10d;" horiz-adv-x="449" 
d="M424 487l-30 -123c-30 19 -58 35 -95 35c-61 0 -107 -43 -107 -147c0 -103 45 -146 110 -146c36 0 68 13 95 33l31 -113c-40 -23 -93 -38 -153 -38c-145 0 -244 88 -244 260c0 178 106 274 257 274c62 0 104 -16 136 -35zM335 720h114l-129 -167h-124l-129 167h114
l77 -69z" />
    <glyph glyph-name="Dcaron" unicode="&#x10e;" horiz-adv-x="718" 
d="M77 720h251c209 0 349 -124 349 -359c0 -239 -145 -361 -349 -361h-251v720zM240 131h88c104 0 186 63 186 226c0 164 -82 227 -186 227h-88v-453zM423 909h116l-129 -147h-126l-129 147h116l76 -49z" />
    <glyph glyph-name="dcaron" unicode="&#x10f;" horiz-adv-x="617" 
d="M653 541h-104l32 179h143zM380 0c-7 9 -11 23 -14 64c-40 -49 -89 -76 -148 -76c-111 0 -187 92 -187 257c0 179 90 277 202 277c49 0 94 -19 132 -69v267h161v-604c0 -84 5 -105 10 -116h-156zM279 111c27 0 54 12 86 43v195c-31 29 -57 41 -84 41
c-51 0 -89 -41 -89 -141c0 -97 36 -138 87 -138z" />
    <glyph glyph-name="Dcroat" unicode="&#x110;" horiz-adv-x="718" 
d="M12 313v103h65v304h251c209 0 349 -124 349 -359c0 -239 -145 -361 -349 -361h-251v313h-65zM240 131h88c104 0 186 63 186 226c0 164 -82 227 -186 227h-88v-168h136v-103h-136v-182z" />
    <glyph glyph-name="dcroat" unicode="&#x111;" horiz-adv-x="587" 
d="M235 560v103h130v57h161v-57h66v-103h-66v-444c0 -84 5 -105 10 -116h-156c-7 9 -11 23 -14 64c-40 -49 -89 -76 -148 -76c-111 0 -187 92 -187 257c0 179 90 277 202 277c49 0 94 -19 132 -69v107h-130zM279 111c27 0 54 12 86 43v195c-31 29 -57 41 -84 41
c-51 0 -89 -41 -89 -141c0 -97 36 -138 87 -138z" />
    <glyph glyph-name="Emacron" unicode="&#x112;" horiz-adv-x="589" 
d="M77 0v720h473v-136h-310v-156h269v-128h-269v-169h313v-131h-476zM139 768v103h352v-103h-352z" />
    <glyph glyph-name="emacron" unicode="&#x113;" horiz-adv-x="546" 
d="M284 412c-49 0 -84 -36 -90 -111h168c0 80 -33 111 -78 111zM506 208h-310c12 -82 59 -106 120 -106c47 0 94 14 150 38l30 -109c-54 -25 -130 -43 -203 -43c-160 0 -262 87 -262 259c0 180 111 275 257 275c134 0 222 -81 222 -252c0 -18 -1 -42 -4 -62zM101 560v103
h351v-103h-351z" />
    <glyph glyph-name="Ebreve" unicode="&#x114;" horiz-adv-x="589" 
d="M77 0v720h473v-136h-310v-156h269v-128h-269v-169h313v-131h-476zM315 762c-129 0 -181 55 -181 147h88c7 -31 29 -50 93 -50s86 19 93 50h88c0 -92 -52 -147 -181 -147z" />
    <glyph glyph-name="ebreve" unicode="&#x115;" horiz-adv-x="546" 
d="M284 412c-49 0 -84 -36 -90 -111h168c0 80 -33 111 -78 111zM506 208h-310c12 -82 59 -106 120 -106c47 0 94 14 150 38l30 -109c-54 -25 -130 -43 -203 -43c-160 0 -262 87 -262 259c0 180 111 275 257 275c134 0 222 -81 222 -252c0 -18 -1 -42 -4 -62zM277 559
c-129 0 -181 62 -181 161h87c7 -41 29 -64 94 -64s87 23 94 64h87c0 -99 -52 -161 -181 -161z" />
    <glyph glyph-name="Edotaccent" unicode="&#x116;" horiz-adv-x="589" 
d="M77 0v720h473v-136h-310v-156h269v-128h-269v-169h313v-131h-476zM406 842c0 -49 -36 -84 -91 -84s-91 35 -91 84s36 84 91 84s91 -35 91 -84z" />
    <glyph glyph-name="edotaccent" unicode="&#x117;" horiz-adv-x="546" 
d="M284 412c-49 0 -84 -36 -90 -111h168c0 80 -33 111 -78 111zM506 208h-310c12 -82 59 -106 120 -106c47 0 94 14 150 38l30 -109c-54 -25 -130 -43 -203 -43c-160 0 -262 87 -262 259c0 180 111 275 257 275c134 0 222 -81 222 -252c0 -18 -1 -42 -4 -62zM368 636
c0 -49 -36 -84 -91 -84s-91 35 -91 84s36 84 91 84s91 -35 91 -84z" />
    <glyph glyph-name="Eogonek" unicode="&#x118;" horiz-adv-x="589" 
d="M77 0v720h473v-136h-310v-156h269v-128h-269v-169h313v-129c-66 -33 -91 -63 -91 -95c0 -24 15 -31 37 -31c9 0 21 1 32 4l19 -80c-21 -5 -49 -8 -74 -8c-81 0 -130 33 -130 95c0 42 22 82 88 113h-357z" />
    <glyph glyph-name="eogonek" unicode="&#x119;" horiz-adv-x="546" 
d="M506 208h-310c12 -82 59 -106 120 -106c47 0 94 14 150 38l30 -109c-97 -52 -132 -85 -132 -123c0 -25 15 -32 38 -32c18 0 40 4 60 13l19 -79c-29 -12 -67 -18 -102 -18c-81 0 -129 33 -129 95c0 64 50 92 62 102c-7 -1 -13 -1 -19 -1c-160 0 -262 87 -262 259
c0 180 111 275 257 275c134 0 222 -81 222 -252c0 -18 -1 -42 -4 -62zM284 412c-49 0 -84 -36 -90 -111h168c0 80 -33 111 -78 111z" />
    <glyph glyph-name="Ecaron" unicode="&#x11a;" horiz-adv-x="589" 
d="M77 0v720h473v-136h-310v-156h269v-128h-269v-169h313v-131h-476zM391 909h116l-129 -147h-126l-129 147h116l76 -49z" />
    <glyph glyph-name="ecaron" unicode="&#x11b;" horiz-adv-x="546" 
d="M284 412c-49 0 -84 -36 -90 -111h168c0 80 -33 111 -78 111zM506 208h-310c12 -82 59 -106 120 -106c47 0 94 14 150 38l30 -109c-54 -25 -130 -43 -203 -43c-160 0 -262 87 -262 259c0 180 111 275 257 275c134 0 222 -81 222 -252c0 -18 -1 -42 -4 -62zM354 720h114
l-129 -167h-124l-129 167h114l77 -69z" />
    <glyph glyph-name="Gcircumflex" unicode="&#x11c;" horiz-adv-x="688" 
d="M398 114c25 0 48 3 70 8v148h-118v121h270v-343c-68 -36 -149 -60 -241 -60c-209 0 -341 125 -341 363c0 248 143 381 357 381c93 0 166 -25 225 -65l-38 -139c-55 39 -111 68 -185 68c-115 0 -196 -69 -196 -244c0 -173 79 -238 197 -238zM293 762h-116l129 147h126
l129 -147h-116l-76 50z" />
    <glyph glyph-name="gcircumflex" unicode="&#x11d;" horiz-adv-x="592" 
d="M513 338c0 -116 -107 -184 -239 -184c-23 0 -45 2 -66 6c-5 -8 -8 -18 -8 -28c0 -30 26 -33 61 -33h101c116 0 190 -46 190 -135c0 -120 -134 -186 -306 -186c-145 0 -239 46 -239 130c0 48 31 88 97 111c-29 21 -44 50 -44 79c0 36 23 68 60 95c-48 30 -78 77 -78 141
c0 121 107 188 239 188c70 0 132 -19 175 -55c24 27 58 43 96 43c10 0 18 -1 25 -2v-129c-6 1 -15 2 -25 2c-15 0 -29 -2 -43 -5c2 -11 4 -22 4 -38zM324 -16h-122c-26 -10 -43 -26 -43 -51c0 -40 45 -56 109 -56c75 0 124 21 124 63c0 30 -26 44 -68 44zM204 332
c0 -59 34 -82 77 -82c44 0 79 23 79 84c0 60 -34 82 -77 82c-44 0 -79 -23 -79 -84zM202 553h-114l129 167h124l129 -167h-114l-77 69z" />
    <glyph glyph-name="Gbreve" unicode="&#x11e;" horiz-adv-x="688" 
d="M398 114c25 0 48 3 70 8v148h-118v121h270v-343c-68 -36 -149 -60 -241 -60c-209 0 -341 125 -341 363c0 248 143 381 357 381c93 0 166 -25 225 -65l-38 -139c-55 39 -111 68 -185 68c-115 0 -196 -69 -196 -244c0 -173 79 -238 197 -238zM369 762
c-129 0 -181 55 -181 147h88c7 -31 29 -50 93 -50s86 19 93 50h88c0 -92 -52 -147 -181 -147z" />
    <glyph glyph-name="gbreve" unicode="&#x11f;" horiz-adv-x="592" 
d="M513 338c0 -116 -107 -184 -239 -184c-23 0 -45 2 -66 6c-5 -8 -8 -18 -8 -28c0 -30 26 -33 61 -33h101c116 0 190 -46 190 -135c0 -120 -134 -186 -306 -186c-145 0 -239 46 -239 130c0 48 31 88 97 111c-29 21 -44 50 -44 79c0 36 23 68 60 95c-48 30 -78 77 -78 141
c0 121 107 188 239 188c70 0 132 -19 175 -55c24 27 58 43 96 43c10 0 18 -1 25 -2v-129c-6 1 -15 2 -25 2c-15 0 -29 -2 -43 -5c2 -11 4 -22 4 -38zM324 -16h-122c-26 -10 -43 -26 -43 -51c0 -40 45 -56 109 -56c75 0 124 21 124 63c0 30 -26 44 -68 44zM204 332
c0 -59 34 -82 77 -82c44 0 79 23 79 84c0 60 -34 82 -77 82c-44 0 -79 -23 -79 -84zM279 559c-129 0 -181 62 -181 161h87c7 -41 29 -64 94 -64s87 23 94 64h87c0 -99 -52 -161 -181 -161z" />
    <glyph glyph-name="Gdotaccent" unicode="&#x120;" horiz-adv-x="688" 
d="M398 114c25 0 48 3 70 8v148h-118v121h270v-343c-68 -36 -149 -60 -241 -60c-209 0 -341 125 -341 363c0 248 143 381 357 381c93 0 166 -25 225 -65l-38 -139c-55 39 -111 68 -185 68c-115 0 -196 -69 -196 -244c0 -173 79 -238 197 -238zM460 842
c0 -49 -36 -84 -91 -84s-91 35 -91 84s36 84 91 84s91 -35 91 -84z" />
    <glyph glyph-name="gdotaccent" unicode="&#x121;" horiz-adv-x="592" 
d="M513 338c0 -116 -107 -184 -239 -184c-23 0 -45 2 -66 6c-5 -8 -8 -18 -8 -28c0 -30 26 -33 61 -33h101c116 0 190 -46 190 -135c0 -120 -134 -186 -306 -186c-145 0 -239 46 -239 130c0 48 31 88 97 111c-29 21 -44 50 -44 79c0 36 23 68 60 95c-48 30 -78 77 -78 141
c0 121 107 188 239 188c70 0 132 -19 175 -55c24 27 58 43 96 43c10 0 18 -1 25 -2v-129c-6 1 -15 2 -25 2c-15 0 -29 -2 -43 -5c2 -11 4 -22 4 -38zM324 -16h-122c-26 -10 -43 -26 -43 -51c0 -40 45 -56 109 -56c75 0 124 21 124 63c0 30 -26 44 -68 44zM204 332
c0 -59 34 -82 77 -82c44 0 79 23 79 84c0 60 -34 82 -77 82c-44 0 -79 -23 -79 -84zM370 636c0 -49 -36 -84 -91 -84s-91 35 -91 84s36 84 91 84s91 -35 91 -84z" />
    <glyph glyph-name="Gcommaaccent" unicode="&#x122;" horiz-adv-x="688" 
d="M398 114c25 0 48 3 70 8v148h-118v121h270v-343c-68 -36 -149 -60 -241 -60c-209 0 -341 125 -341 363c0 248 143 381 357 381c93 0 166 -25 225 -65l-38 -139c-55 39 -111 68 -185 68c-115 0 -196 -69 -196 -244c0 -173 79 -238 197 -238zM273 -217c40 17 63 35 76 52
c-39 4 -63 29 -63 65c0 43 34 68 80 68c51 0 90 -31 90 -93c0 -48 -23 -109 -139 -153z" />
    <glyph glyph-name="gcommaaccent" unicode="&#x123;" horiz-adv-x="592" 
d="M513 338c0 -116 -107 -184 -239 -184c-23 0 -45 2 -66 6c-5 -8 -8 -18 -8 -28c0 -30 26 -33 61 -33h101c116 0 190 -46 190 -135c0 -120 -134 -186 -306 -186c-145 0 -239 46 -239 130c0 48 31 88 97 111c-29 21 -44 50 -44 79c0 36 23 68 60 95c-48 30 -78 77 -78 141
c0 121 107 188 239 188c70 0 132 -19 175 -55c24 27 58 43 96 43c10 0 18 -1 25 -2v-129c-6 1 -15 2 -25 2c-15 0 -29 -2 -43 -5c2 -11 4 -22 4 -38zM324 -16h-122c-26 -10 -43 -26 -43 -51c0 -40 45 -56 109 -56c75 0 124 21 124 63c0 30 -26 44 -68 44zM204 332
c0 -59 34 -82 77 -82c44 0 79 23 79 84c0 60 -34 82 -77 82c-44 0 -79 -23 -79 -84zM335 797l44 -61c-40 -17 -63 -35 -76 -52c39 -4 63 -29 63 -65c0 -43 -34 -68 -80 -68c-51 0 -90 31 -90 93c0 48 23 109 139 153z" />
    <glyph glyph-name="Hcircumflex" unicode="&#x124;" horiz-adv-x="723" 
d="M77 0v720h163v-284h243v284h163v-720h-163v300h-243v-300h-163zM286 762h-116l129 147h126l129 -147h-116l-76 50z" />
    <glyph glyph-name="hcircumflex" unicode="&#x125;" horiz-adv-x="577" 
d="M61 0v720h161v-272c45 45 102 74 171 74c74 0 135 -34 135 -142v-380h-161v330c0 43 -18 57 -48 57c-34 0 -66 -18 -97 -45v-342h-161zM217 753h-114l129 167h124l129 -167h-114l-77 69z" />
    <glyph glyph-name="Hbar" unicode="&#x126;" horiz-adv-x="723" 
d="M12 517v103h65v100h163v-100h243v100h163v-100h65v-103h-65v-517h-163v300h-243v-300h-163v517h-65zM240 436h243v81h-243v-81z" />
    <glyph glyph-name="hbar" unicode="&#x127;" horiz-adv-x="577" 
d="M-5 560v103h66v57h161v-57h130v-103h-130v-112c45 45 102 74 171 74c74 0 135 -34 135 -142v-380h-161v330c0 43 -18 57 -48 57c-34 0 -66 -18 -97 -45v-342h-161v560h-66z" />
    <glyph glyph-name="Itilde" unicode="&#x128;" horiz-adv-x="328" 
d="M83 0v720h163v-720h-163zM64 762h-92c0 107 50 145 113 145c67 0 115 -43 152 -43c24 0 29 18 29 37h92c0 -107 -50 -145 -113 -145c-67 0 -116 43 -152 43c-24 0 -29 -18 -29 -37z" />
    <glyph glyph-name="itilde" unicode="&#x129;" horiz-adv-x="295" 
d="M46 559h-90c0 109 50 150 111 150c68 0 117 -53 152 -53c21 0 31 18 31 47h90c0 -109 -50 -150 -111 -150c-68 0 -117 53 -152 53c-21 0 -31 -18 -31 -47zM67 0v510h161v-510h-161z" />
    <glyph glyph-name="Imacron" unicode="&#x12a;" horiz-adv-x="328" 
d="M83 0v720h163v-720h-163zM-11 768v103h352v-103h-352z" />
    <glyph glyph-name="imacron" unicode="&#x12b;" horiz-adv-x="295" 
d="M-28 560v103h351v-103h-351zM67 0v510h161v-510h-161z" />
    <glyph glyph-name="Ibreve" unicode="&#x12c;" horiz-adv-x="328" 
d="M83 0v720h163v-720h-163zM165 762c-129 0 -181 55 -181 147h88c7 -31 29 -50 93 -50s86 19 93 50h88c0 -92 -52 -147 -181 -147z" />
    <glyph glyph-name="ibreve" unicode="&#x12d;" horiz-adv-x="295" 
d="M148 559c-129 0 -181 62 -181 161h87c7 -41 29 -64 94 -64s87 23 94 64h87c0 -99 -52 -161 -181 -161zM67 0v510h161v-510h-161z" />
    <glyph glyph-name="Iogonek" unicode="&#x12e;" horiz-adv-x="328" 
d="M246 0h-45c-59 -33 -78 -64 -78 -92c0 -25 15 -32 37 -32c9 0 21 1 32 4l19 -80c-21 -5 -49 -8 -74 -8c-81 0 -130 33 -130 97c0 39 19 80 76 111v720h163v-720z" />
    <glyph glyph-name="iogonek" unicode="&#x12f;" horiz-adv-x="295" 
d="M67 0v510h161v-510h-45c-59 -33 -78 -64 -78 -92c0 -25 15 -32 37 -32c9 0 21 1 32 4l19 -80c-21 -5 -48 -8 -73 -8c-81 0 -129 33 -129 96c0 40 19 81 76 112zM238 652c0 -50 -33 -84 -90 -84s-91 34 -91 84s34 84 91 84s90 -34 90 -84z" />
    <glyph glyph-name="Idotaccent" unicode="&#x130;" horiz-adv-x="328" 
d="M83 0v720h163v-720h-163zM256 842c0 -49 -36 -84 -91 -84s-91 35 -91 84s36 84 91 84s91 -35 91 -84z" />
    <glyph glyph-name="dotlessi" unicode="&#x131;" horiz-adv-x="295" 
d="M67 0v510h161v-510h-161z" />
    <glyph glyph-name="IJ" unicode="&#x132;" horiz-adv-x="740" 
d="M83 0v720h163v-720h-163zM346 0v133c21 -4 52 -8 77 -8c71 0 89 32 89 105v490h163v-490c0 -166 -65 -236 -238 -236c-29 0 -70 2 -91 6z" />
    <glyph glyph-name="ij" unicode="&#x133;" horiz-adv-x="591" 
d="M238 652c0 -49 -35 -84 -90 -84s-91 35 -91 84s36 84 91 84s90 -35 90 -84zM67 0v510h161v-510h-161zM523 510v-552c0 -121 -53 -174 -185 -174c-18 0 -40 1 -59 4v116c13 -3 24 -4 33 -4c40 0 50 19 50 58v552h161zM533 652c0 -49 -35 -84 -90 -84s-91 35 -91 84
s36 84 91 84s90 -35 90 -84z" />
    <glyph glyph-name="Jcircumflex" unicode="&#x134;" horiz-adv-x="411" 
d="M18 0v133c21 -4 52 -8 77 -8c71 0 89 32 89 105v490h163v-490c0 -166 -65 -236 -238 -236c-29 0 -70 2 -91 6zM192 762h-116l129 147h126l129 -147h-116l-76 50z" />
    <glyph glyph-name="jcircumflex" unicode="&#x135;" horiz-adv-x="295" 
d="M228 510v-552c0 -121 -53 -174 -185 -174c-18 0 -40 1 -59 4v116c13 -3 24 -4 33 -4c40 0 50 19 50 58v552h161zM71 553h-114l129 167h124l129 -167h-114l-77 69z" />
    <glyph glyph-name="Kcommaaccent" unicode="&#x136;" horiz-adv-x="682" 
d="M77 0v720h163v-297l222 297h188l-223 -270l242 -450h-179l-168 323l-82 -99v-224h-163zM257 -217c40 17 63 35 76 52c-39 4 -63 29 -63 65c0 43 34 68 80 68c51 0 90 -31 90 -93c0 -48 -23 -109 -139 -153z" />
    <glyph glyph-name="kcommaaccent" unicode="&#x137;" horiz-adv-x="561" 
d="M61 0v720h161v-397l141 187h172l-167 -188l178 -322h-167l-111 209l-46 -52v-157h-161zM188 -217c40 17 63 35 76 52c-39 4 -63 29 -63 65c0 43 34 68 80 68c51 0 90 -31 90 -93c0 -48 -23 -109 -139 -153z" />
    <glyph glyph-name="kgreenlandic" unicode="&#x138;" horiz-adv-x="561" 
d="M61 0v510h161v-187l141 187h172l-167 -188l178 -322h-167l-111 209l-46 -52v-157h-161z" />
    <glyph glyph-name="Lacute" unicode="&#x139;" horiz-adv-x="540" 
d="M77 0v720h163v-584h281v-136h-444zM183 762h-125l93 147h176z" />
    <glyph glyph-name="lacute" unicode="&#x13a;" horiz-adv-x="295" 
d="M67 0v720h161v-720h-161zM175 753h-124l93 167h175z" />
    <glyph glyph-name="Lcommaaccent" unicode="&#x13b;" horiz-adv-x="540" 
d="M77 0v720h163v-584h281v-136h-444zM206 -217c40 17 63 35 76 52c-39 4 -63 29 -63 65c0 43 34 68 80 68c51 0 90 -31 90 -93c0 -48 -23 -109 -139 -153z" />
    <glyph glyph-name="lcommaaccent" unicode="&#x13c;" horiz-adv-x="295" 
d="M67 0v720h161v-720h-161zM39 -217c40 17 63 35 76 52c-39 4 -63 29 -63 65c0 43 34 68 80 68c51 0 90 -31 90 -93c0 -48 -23 -109 -139 -153z" />
    <glyph glyph-name="Lcaron" unicode="&#x13d;" horiz-adv-x="540" 
d="M383 541h-106l32 179h145zM77 0v720h163v-584h281v-136h-444z" />
    <glyph glyph-name="lcaron" unicode="&#x13e;" horiz-adv-x="326" 
d="M356 541h-104l32 179h143zM67 0v720h161v-720h-161z" />
    <glyph glyph-name="Ldot" unicode="&#x13f;" horiz-adv-x="540" 
d="M77 0v720h163v-584h281v-136h-444zM511 361c0 -49 -36 -84 -91 -84s-91 35 -91 84s36 84 91 84s91 -35 91 -84z" />
    <glyph glyph-name="ldot" unicode="&#x140;" horiz-adv-x="360" 
d="M67 0v720h161v-720h-161zM448 357c0 -49 -36 -84 -91 -84s-91 35 -91 84s36 84 91 84s91 -35 91 -84z" />
    <glyph glyph-name="Lslash" unicode="&#x141;" horiz-adv-x="540" 
d="M12 273v110l65 16v321h163v-279l179 44v-110l-179 -44v-195h281v-136h-444v289z" />
    <glyph glyph-name="lslash" unicode="&#x142;" horiz-adv-x="340" 
d="M19 297v107l71 18v298h161v-257l71 18v-107l-71 -18v-356h-161v315z" />
    <glyph glyph-name="Nacute" unicode="&#x143;" horiz-adv-x="731" 
d="M77 0v720h171l255 -419v419h150v-720h-136l-290 477v-477h-150zM393 762h-125l93 147h176z" />
    <glyph glyph-name="nacute" unicode="&#x144;" horiz-adv-x="577" 
d="M321 553h-124l93 167h175zM61 0v510h161v-62c45 45 102 74 171 74c74 0 135 -34 135 -142v-380h-161v330c0 43 -18 57 -48 57c-34 0 -66 -18 -97 -45v-342h-161z" />
    <glyph glyph-name="Ncommaaccent" unicode="&#x145;" horiz-adv-x="731" 
d="M77 0v720h171l255 -419v419h150v-720h-136l-290 477v-477h-150zM269 -217c40 17 63 35 76 52c-39 4 -63 29 -63 65c0 43 34 68 80 68c51 0 90 -31 90 -93c0 -48 -23 -109 -139 -153z" />
    <glyph glyph-name="ncommaaccent" unicode="&#x146;" horiz-adv-x="577" 
d="M194 -217c40 17 63 35 76 52c-39 4 -63 29 -63 65c0 43 34 68 80 68c51 0 90 -31 90 -93c0 -48 -23 -109 -139 -153zM61 0v510h161v-62c45 45 102 74 171 74c74 0 135 -34 135 -142v-380h-161v330c0 43 -18 57 -48 57c-34 0 -66 -18 -97 -45v-342h-161z" />
    <glyph glyph-name="Ncaron" unicode="&#x147;" horiz-adv-x="731" 
d="M77 0v720h171l255 -419v419h150v-720h-136l-290 477v-477h-150zM441 909h116l-129 -147h-126l-129 147h116l76 -49z" />
    <glyph glyph-name="ncaron" unicode="&#x148;" horiz-adv-x="577" 
d="M371 720h114l-129 -167h-124l-129 167h114l77 -69zM61 0v510h161v-62c45 45 102 74 171 74c74 0 135 -34 135 -142v-380h-161v330c0 43 -18 57 -48 57c-34 0 -66 -18 -97 -45v-342h-161z" />
    <glyph glyph-name="napostrophe" unicode="&#x149;" horiz-adv-x="577" 
d="M-92 547c40 17 63 35 76 52c-39 4 -63 29 -63 65c0 43 34 68 80 68c51 0 90 -31 90 -93c0 -48 -23 -109 -139 -153zM61 0v510h161v-62c45 45 102 74 171 74c74 0 135 -34 135 -142v-380h-161v330c0 43 -18 57 -48 57c-34 0 -66 -18 -97 -45v-342h-161z" />
    <glyph glyph-name="Eng" unicode="&#x14a;" horiz-adv-x="731" 
d="M77 0v720h171l255 -419v419h150v-724c0 -121 -53 -174 -185 -174c-18 0 -40 1 -59 4v116c13 -3 24 -4 33 -4c40 0 50 19 50 58v45l-265 436v-477h-150z" />
    <glyph glyph-name="eng" unicode="&#x14b;" horiz-adv-x="577" 
d="M61 0v510h161v-62c45 45 102 74 171 74c74 0 135 -34 135 -142v-384c0 -121 -53 -174 -185 -174c-18 0 -40 1 -59 4v116c13 -3 24 -4 33 -4c40 0 50 19 50 58v334c0 43 -18 57 -48 57c-34 0 -66 -18 -97 -45v-342h-161z" />
    <glyph glyph-name="Omacron" unicode="&#x14c;" horiz-adv-x="723" 
d="M686 362c0 -244 -138 -374 -326 -374c-186 0 -322 128 -322 370c0 244 138 374 326 374c186 0 322 -128 322 -370zM523 358c0 172 -70 238 -161 238s-161 -66 -161 -238s70 -238 161 -238s161 66 161 238zM185 768v103h352v-103h-352z" />
    <glyph glyph-name="omacron" unicode="&#x14d;" horiz-adv-x="561" 
d="M531 257c0 -184 -114 -269 -252 -269c-136 0 -248 83 -248 265c0 184 114 269 252 269c136 0 248 -83 248 -265zM370 253c0 112 -40 152 -89 152s-89 -40 -89 -152s40 -152 89 -152s89 40 89 152zM104 560v103h351v-103h-351z" />
    <glyph glyph-name="Obreve" unicode="&#x14e;" horiz-adv-x="723" 
d="M686 362c0 -244 -138 -374 -326 -374c-186 0 -322 128 -322 370c0 244 138 374 326 374c186 0 322 -128 322 -370zM523 358c0 172 -70 238 -161 238s-161 -66 -161 -238s70 -238 161 -238s161 66 161 238zM361 762c-129 0 -181 55 -181 147h88c7 -31 29 -50 93 -50
s86 19 93 50h88c0 -92 -52 -147 -181 -147z" />
    <glyph glyph-name="obreve" unicode="&#x14f;" horiz-adv-x="561" 
d="M531 257c0 -184 -114 -269 -252 -269c-136 0 -248 83 -248 265c0 184 114 269 252 269c136 0 248 -83 248 -265zM370 253c0 112 -40 152 -89 152s-89 -40 -89 -152s40 -152 89 -152s89 40 89 152zM280 559c-129 0 -181 62 -181 161h87c7 -41 29 -64 94 -64s87 23 94 64
h87c0 -99 -52 -161 -181 -161z" />
    <glyph glyph-name="Ohungarumlaut" unicode="&#x150;" horiz-adv-x="723" 
d="M686 362c0 -244 -138 -374 -326 -374c-186 0 -322 128 -322 370c0 244 138 374 326 374c186 0 322 -128 322 -370zM523 358c0 172 -70 238 -161 238s-161 -66 -161 -238s70 -238 161 -238s161 66 161 238zM278 762h-126l93 147h177zM484 762h-125l110 147h177z" />
    <glyph glyph-name="ohungarumlaut" unicode="&#x151;" horiz-adv-x="561" 
d="M531 257c0 -184 -114 -269 -252 -269c-136 0 -248 83 -248 265c0 184 114 269 252 269c136 0 248 -83 248 -265zM370 253c0 112 -40 152 -89 152s-89 -40 -89 -152s40 -152 89 -152s89 40 89 152zM197 553h-124l93 167h175zM402 553h-124l110 167h175z" />
    <glyph glyph-name="OE" unicode="&#x152;" horiz-adv-x="934" 
d="M898 0h-428c-34 -8 -72 -12 -106 -12c-194 0 -326 125 -326 364c0 249 143 380 342 380c39 0 73 -5 105 -12h410v-136h-278v-156h237v-128h-237v-169h281v-131zM385 119c22 0 47 3 69 9v456c-22 8 -45 12 -70 12c-107 0 -183 -71 -183 -239c0 -169 77 -238 184 -238z" />
    <glyph glyph-name="oe" unicode="&#x153;" horiz-adv-x="882" 
d="M370 253c0 112 -40 152 -89 152s-89 -40 -89 -152s40 -152 89 -152s89 40 89 152zM628 -12c-74 0 -136 18 -181 56c-45 -38 -104 -56 -168 -56c-136 0 -248 83 -248 265c0 184 114 269 252 269c65 0 125 -19 169 -59c45 39 105 59 172 59c134 0 222 -81 222 -252
c0 -18 -1 -42 -4 -62h-310c12 -82 59 -106 120 -106c47 0 94 14 150 38l30 -109c-54 -25 -130 -43 -204 -43zM620 412c-49 0 -84 -36 -90 -111h168c0 80 -33 111 -78 111z" />
    <glyph glyph-name="Racute" unicode="&#x154;" horiz-adv-x="705" 
d="M478 0l-148 286h-93v-286h-160v720h294c161 0 255 -73 255 -216c0 -101 -47 -166 -134 -198l165 -306h-179zM237 402h117c76 0 112 28 112 92c0 65 -36 93 -112 93h-117v-185zM365 762h-125l93 147h176z" />
    <glyph glyph-name="racute" unicode="&#x155;" horiz-adv-x="404" 
d="M390 519v-138c-9 1 -20 1 -32 1c-65 0 -117 -39 -136 -56v-326h-161v510h161v-77c29 52 78 89 138 89c10 0 22 -1 30 -3zM252 553h-124l93 167h175z" />
    <glyph glyph-name="Rcommaaccent" unicode="&#x156;" horiz-adv-x="705" 
d="M478 0l-148 286h-93v-286h-160v720h294c161 0 255 -73 255 -216c0 -101 -47 -166 -134 -198l165 -306h-179zM237 402h117c76 0 112 28 112 92c0 65 -36 93 -112 93h-117v-185zM248 -217c40 17 63 35 76 52c-39 4 -63 29 -63 65c0 43 34 68 80 68c51 0 90 -31 90 -93
c0 -48 -23 -109 -139 -153z" />
    <glyph glyph-name="rcommaaccent" unicode="&#x157;" horiz-adv-x="404" 
d="M390 519v-138c-9 1 -20 1 -32 1c-65 0 -117 -39 -136 -56v-326h-161v510h161v-77c29 52 78 89 138 89c10 0 22 -1 30 -3zM39 -217c40 17 63 35 76 52c-39 4 -63 29 -63 65c0 43 34 68 80 68c51 0 90 -31 90 -93c0 -48 -23 -109 -139 -153z" />
    <glyph glyph-name="Rcaron" unicode="&#x158;" horiz-adv-x="705" 
d="M478 0l-148 286h-93v-286h-160v720h294c161 0 255 -73 255 -216c0 -101 -47 -166 -134 -198l165 -306h-179zM237 402h117c76 0 112 28 112 92c0 65 -36 93 -112 93h-117v-185zM413 909h116l-129 -147h-126l-129 147h116l76 -49z" />
    <glyph glyph-name="rcaron" unicode="&#x159;" horiz-adv-x="404" 
d="M390 519v-138c-9 1 -20 1 -32 1c-65 0 -117 -39 -136 -56v-326h-161v510h161v-77c29 52 78 89 138 89c10 0 22 -1 30 -3zM302 720h114l-129 -167h-124l-129 167h114l77 -69z" />
    <glyph glyph-name="Sacute" unicode="&#x15a;" horiz-adv-x="584" 
d="M38 45l38 133c63 -34 127 -60 192 -60c73 0 115 33 115 82c0 138 -326 63 -326 306c0 139 106 226 261 226c78 0 150 -22 207 -56l-38 -140c-51 34 -111 60 -168 60c-62 0 -99 -31 -99 -75c0 -128 326 -52 326 -300c0 -144 -111 -233 -276 -233c-78 0 -164 20 -232 57z
M324 762h-125l93 147h176z" />
    <glyph glyph-name="sacute" unicode="&#x15b;" horiz-adv-x="469" 
d="M422 481l-30 -122c-40 25 -90 44 -131 44c-37 0 -55 -16 -55 -39c0 -75 232 -18 232 -199c0 -111 -87 -177 -221 -177c-67 0 -134 16 -186 42l30 118c49 -26 103 -46 152 -46c47 0 70 20 70 47c0 79 -232 26 -232 203c0 105 82 170 207 170c62 0 119 -17 164 -41z
M265 553h-124l93 167h175z" />
    <glyph glyph-name="Scircumflex" unicode="&#x15c;" horiz-adv-x="584" 
d="M38 45l38 133c63 -34 127 -60 192 -60c73 0 115 33 115 82c0 138 -326 63 -326 306c0 139 106 226 261 226c78 0 150 -22 207 -56l-38 -140c-51 34 -111 60 -168 60c-62 0 -99 -31 -99 -75c0 -128 326 -52 326 -300c0 -144 -111 -233 -276 -233c-78 0 -164 20 -232 57z
M220 762h-116l129 147h126l129 -147h-116l-76 50z" />
    <glyph glyph-name="scircumflex" unicode="&#x15d;" horiz-adv-x="469" 
d="M422 481l-30 -122c-40 25 -90 44 -131 44c-37 0 -55 -16 -55 -39c0 -75 232 -18 232 -199c0 -111 -87 -177 -221 -177c-67 0 -134 16 -186 42l30 118c49 -26 103 -46 152 -46c47 0 70 20 70 47c0 79 -232 26 -232 203c0 105 82 170 207 170c62 0 119 -17 164 -41z
M161 553h-114l129 167h124l129 -167h-114l-77 69z" />
    <glyph glyph-name="Scedilla" unicode="&#x15e;" horiz-adv-x="584" 
d="M424 -102c0 -69 -58 -106 -148 -106c-54 0 -89 13 -116 28l18 79c27 -15 54 -25 84 -25c28 0 47 9 47 29c0 18 -14 40 -78 50l9 36c-70 5 -143 23 -202 56l38 133c63 -34 127 -60 192 -60c73 0 115 33 115 82c0 138 -326 63 -326 306c0 139 106 226 261 226
c78 0 150 -22 207 -56l-38 -140c-51 34 -111 60 -168 60c-62 0 -99 -31 -99 -75c0 -128 326 -52 326 -300c0 -121 -79 -203 -202 -226c53 -17 80 -49 80 -97z" />
    <glyph glyph-name="scedilla" unicode="&#x15f;" horiz-adv-x="469" 
d="M422 481l-30 -122c-40 25 -90 44 -130 44c-37 0 -56 -16 -56 -38c0 -77 232 -18 232 -200c0 -90 -57 -151 -151 -170c54 -17 81 -49 81 -97c0 -69 -58 -106 -148 -106c-54 0 -89 13 -116 28l18 79c27 -15 54 -25 84 -25c28 0 47 9 47 29c0 18 -14 40 -78 50l9 37
c-56 4 -110 18 -153 40l30 118c49 -26 103 -46 151 -46s71 20 71 46c0 81 -232 27 -232 204c0 105 82 170 206 170c63 0 120 -17 165 -41z" />
    <glyph glyph-name="Scaron" unicode="&#x160;" horiz-adv-x="584" 
d="M38 45l38 133c63 -34 127 -60 192 -60c73 0 115 33 115 82c0 138 -326 63 -326 306c0 139 106 226 261 226c78 0 150 -22 207 -56l-38 -140c-51 34 -111 60 -168 60c-62 0 -99 -31 -99 -75c0 -128 326 -52 326 -300c0 -144 -111 -233 -276 -233c-78 0 -164 20 -232 57z
M372 909h116l-129 -147h-126l-129 147h116l76 -49z" />
    <glyph glyph-name="scaron" unicode="&#x161;" horiz-adv-x="469" 
d="M422 481l-30 -122c-40 25 -90 44 -131 44c-37 0 -55 -16 -55 -39c0 -75 232 -18 232 -199c0 -111 -87 -177 -221 -177c-67 0 -134 16 -186 42l30 118c49 -26 103 -46 152 -46c47 0 70 20 70 47c0 79 -232 26 -232 203c0 105 82 170 207 170c62 0 119 -17 164 -41z
M315 720h114l-129 -167h-124l-129 167h114l77 -69z" />
    <glyph glyph-name="Tcommaaccent" unicode="&#x162;" horiz-adv-x="583" 
d="M210 0v584h-191v136h545v-136h-191v-584h-48c66 -15 99 -49 99 -102c0 -69 -58 -106 -148 -106c-54 0 -89 13 -116 28l18 79c27 -15 54 -25 84 -25c28 0 47 9 47 29c0 18 -14 40 -78 50l11 47h-32z" />
    <glyph glyph-name="tcommaaccent" unicode="&#x163;" horiz-adv-x="371" 
d="M16 392v118h73v170h161v-170h95v-118h-95v-223c0 -42 11 -54 43 -54c19 0 37 4 52 8v-120c-28 -5 -64 -9 -91 -9c51 -17 77 -49 77 -96c0 -69 -58 -106 -148 -106c-54 0 -89 13 -116 28l18 79c27 -15 54 -25 84 -25c28 0 47 9 47 29c0 18 -14 40 -78 50l13 54
c-45 19 -62 60 -62 138v247h-73z" />
    <glyph glyph-name="Tcaron" unicode="&#x164;" horiz-adv-x="583" 
d="M210 0v584h-191v136h545v-136h-191v-584h-163zM367 909h116l-129 -147h-126l-129 147h116l76 -49z" />
    <glyph glyph-name="tcaron" unicode="&#x165;" horiz-adv-x="371" 
d="M377 541h-104l32 179h143zM16 392v118h73v170h161v-170h95v-118h-95v-223c0 -42 11 -54 43 -54c19 0 37 4 52 8v-120c-28 -5 -62 -9 -101 -9c-114 0 -155 34 -155 151v247h-73z" />
    <glyph glyph-name="Tbar" unicode="&#x166;" horiz-adv-x="583" 
d="M72 313v103h138v168h-191v136h545v-136h-191v-168h138v-103h-138v-313h-163v313h-138z" />
    <glyph glyph-name="tbar" unicode="&#x167;" horiz-adv-x="371" 
d="M89 145v64h-66v103h66v80h-73v118h73v170h161v-170h95v-118h-95v-80h88v-103h-88v-40c0 -42 11 -54 43 -54c19 0 37 4 52 8v-120c-28 -5 -62 -9 -101 -9c-114 0 -155 34 -155 151z" />
    <glyph glyph-name="Utilde" unicode="&#x168;" horiz-adv-x="689" 
d="M64 260v460h164v-454c0 -108 40 -142 120 -142c79 0 119 34 119 142v454h158v-454c0 -199 -99 -278 -284 -278c-181 0 -277 77 -277 272zM243 762h-92c0 107 50 145 113 145c67 0 115 -43 152 -43c24 0 29 18 29 37h92c0 -107 -50 -145 -113 -145c-67 0 -116 43 -152 43
c-24 0 -29 -18 -29 -37z" />
    <glyph glyph-name="utilde" unicode="&#x169;" horiz-adv-x="577" 
d="M181 559h-90c0 109 50 150 111 150c68 0 117 -53 152 -53c21 0 31 18 31 47h90c0 -109 -50 -150 -111 -150c-68 0 -117 53 -152 53c-21 0 -31 -18 -31 -47zM517 510v-510h-161v62c-45 -45 -102 -74 -171 -74c-74 0 -135 34 -135 142v380h161v-335c0 -43 18 -57 48 -57
c34 0 66 18 97 45v347h161z" />
    <glyph glyph-name="Umacron" unicode="&#x16a;" horiz-adv-x="689" 
d="M64 260v460h164v-454c0 -108 40 -142 120 -142c79 0 119 34 119 142v454h158v-454c0 -199 -99 -278 -284 -278c-181 0 -277 77 -277 272zM168 768v103h352v-103h-352z" />
    <glyph glyph-name="umacron" unicode="&#x16b;" horiz-adv-x="577" 
d="M107 560v103h351v-103h-351zM517 510v-510h-161v62c-45 -45 -102 -74 -171 -74c-74 0 -135 34 -135 142v380h161v-335c0 -43 18 -57 48 -57c34 0 66 18 97 45v347h161z" />
    <glyph glyph-name="Ubreve" unicode="&#x16c;" horiz-adv-x="689" 
d="M64 260v460h164v-454c0 -108 40 -142 120 -142c79 0 119 34 119 142v454h158v-454c0 -199 -99 -278 -284 -278c-181 0 -277 77 -277 272zM350 762c-129 0 -181 55 -181 147h88c7 -31 29 -50 93 -50s86 19 93 50h88c0 -92 -52 -147 -181 -147z" />
    <glyph glyph-name="ubreve" unicode="&#x16d;" horiz-adv-x="577" 
d="M283 559c-129 0 -181 62 -181 161h87c7 -41 29 -64 94 -64s87 23 94 64h87c0 -99 -52 -161 -181 -161zM517 510v-510h-161v62c-45 -45 -102 -74 -171 -74c-74 0 -135 34 -135 142v380h161v-335c0 -43 18 -57 48 -57c34 0 66 18 97 45v347h161z" />
    <glyph glyph-name="Uring" unicode="&#x16e;" horiz-adv-x="689" 
d="M64 260v460h164v-454c0 -108 40 -142 120 -142c79 0 119 34 119 142v454h158v-454c0 -199 -99 -278 -284 -278c-181 0 -277 77 -277 272zM303 860c0 -22 16 -41 41 -41s41 19 41 41s-16 41 -41 41s-41 -19 -41 -41zM450 860c0 -58 -44 -103 -106 -103s-106 45 -106 103
s44 103 106 103s106 -45 106 -103z" />
    <glyph glyph-name="uring" unicode="&#x16f;" horiz-adv-x="577" 
d="M241 655c0 -22 16 -41 42 -41s42 19 42 41s-16 41 -42 41s-42 -19 -42 -41zM389 655c0 -58 -45 -103 -106 -103s-106 45 -106 103s45 103 106 103s106 -45 106 -103zM517 510v-510h-161v62c-45 -45 -102 -74 -171 -74c-74 0 -135 34 -135 142v380h161v-335
c0 -43 18 -57 48 -57c34 0 66 18 97 45v347h161z" />
    <glyph glyph-name="Uhungarumlaut" unicode="&#x170;" horiz-adv-x="689" 
d="M64 260v460h164v-454c0 -108 40 -142 120 -142c79 0 119 34 119 142v454h158v-454c0 -199 -99 -278 -284 -278c-181 0 -277 77 -277 272zM261 762h-126l93 147h177zM467 762h-125l110 147h177z" />
    <glyph glyph-name="uhungarumlaut" unicode="&#x171;" horiz-adv-x="577" 
d="M203 553h-124l93 167h175zM408 553h-124l110 167h175zM517 510v-510h-161v62c-45 -45 -102 -74 -171 -74c-74 0 -135 34 -135 142v380h161v-335c0 -43 18 -57 48 -57c34 0 66 18 97 45v347h161z" />
    <glyph glyph-name="Uogonek" unicode="&#x172;" horiz-adv-x="689" 
d="M64 260v460h164v-454c0 -108 40 -142 120 -142c79 0 119 34 119 142v454h158v-454c0 -156 -61 -238 -175 -266c-64 -32 -88 -62 -88 -93c0 -24 15 -31 37 -31c9 0 21 1 32 4l19 -80c-21 -5 -49 -8 -74 -8c-81 0 -130 33 -130 96c0 39 19 73 65 101
c-162 9 -247 87 -247 271z" />
    <glyph glyph-name="uogonek" unicode="&#x173;" horiz-adv-x="577" 
d="M517 510v-510h-45c-64 -32 -88 -62 -88 -93c0 -24 15 -31 37 -31c9 0 21 1 32 4l19 -80c-21 -5 -48 -8 -73 -8c-81 0 -129 33 -129 95c0 42 22 82 86 113v62c-45 -45 -102 -74 -171 -74c-74 0 -135 34 -135 142v380h161v-335c0 -43 18 -57 48 -57c34 0 66 18 97 45v347
h161z" />
    <glyph glyph-name="Wcircumflex" unicode="&#x174;" horiz-adv-x="959" 
d="M357 0h-159l-177 720h171l71 -316c13 -58 25 -131 31 -189h2c7 57 18 124 33 186l77 319h154l76 -318c17 -71 27 -132 34 -187h2c6 57 17 127 31 189l71 316h164l-180 -720h-159l-82 338c-16 66 -28 127 -37 186h-2c-11 -75 -27 -151 -36 -187zM403 762h-116l129 147h126
l129 -147h-116l-76 50z" />
    <glyph glyph-name="wcircumflex" unicode="&#x175;" horiz-adv-x="740" 
d="M448 0l-54 211c-10 40 -18 80 -23 118h-3c-5 -38 -11 -77 -22 -117l-57 -212h-152l-135 510h152l52 -209c10 -40 15 -75 21 -119h2c4 37 11 80 21 119l54 209h139l54 -209c11 -43 17 -83 21 -119h2c5 37 10 80 20 119l52 209h147l-139 -510h-152zM293 553h-114l129 167
h124l129 -167h-114l-77 69z" />
    <glyph glyph-name="Ycircumflex" unicode="&#x176;" horiz-adv-x="649" 
d="M243 0v290l-234 430h171l147 -279l148 279h165l-234 -430v-290h-163zM248 762h-116l129 147h126l129 -147h-116l-76 50z" />
    <glyph glyph-name="ycircumflex" unicode="&#x177;" horiz-adv-x="508" 
d="M30 -212v126c16 -3 34 -5 54 -5c53 0 82 18 111 103h-42l-154 498h163l94 -358l97 358h157l-160 -498c-56 -175 -118 -228 -239 -228c-39 0 -66 1 -81 4zM177 553h-114l129 167h124l129 -167h-114l-77 69z" />
    <glyph glyph-name="Ydieresis" unicode="&#x178;" horiz-adv-x="649" 
d="M243 0v290l-234 430h171l147 -279l148 279h165l-234 -430v-290h-163zM293 837c0 -42 -32 -74 -76 -74s-76 32 -76 74s32 74 76 74s76 -32 76 -74zM507 837c0 -42 -32 -74 -76 -74s-76 32 -76 74s32 74 76 74s76 -32 76 -74z" />
    <glyph glyph-name="Zacute" unicode="&#x179;" horiz-adv-x="615" 
d="M29 0v111l331 473h-311v136h526v-116l-331 -473h332v-131h-547zM334 762h-125l93 147h176z" />
    <glyph glyph-name="zacute" unicode="&#x17a;" horiz-adv-x="497" 
d="M22 0v101l243 292h-228v117h427v-98l-243 -292h245v-120h-444zM275 553h-124l93 167h175z" />
    <glyph glyph-name="Zdotaccent" unicode="&#x17b;" horiz-adv-x="615" 
d="M29 0v111l331 473h-311v136h526v-116l-331 -473h332v-131h-547zM397 842c0 -49 -36 -84 -91 -84s-91 35 -91 84s36 84 91 84s91 -35 91 -84z" />
    <glyph glyph-name="zdotaccent" unicode="&#x17c;" horiz-adv-x="497" 
d="M22 0v101l243 292h-228v117h427v-98l-243 -292h245v-120h-444zM339 636c0 -49 -36 -84 -91 -84s-91 35 -91 84s36 84 91 84s91 -35 91 -84z" />
    <glyph glyph-name="Zcaron" unicode="&#x17d;" horiz-adv-x="615" 
d="M29 0v111l331 473h-311v136h526v-116l-331 -473h332v-131h-547zM382 909h116l-129 -147h-126l-129 147h116l76 -49z" />
    <glyph glyph-name="zcaron" unicode="&#x17e;" horiz-adv-x="497" 
d="M22 0v101l243 292h-228v117h427v-98l-243 -292h245v-120h-444zM325 720h114l-129 -167h-124l-129 167h114l77 -69z" />
    <glyph glyph-name="longs" unicode="&#x17f;" horiz-adv-x="348" 
d="M16 392v118h73v42c0 121 53 174 185 174c18 0 40 -1 59 -4v-116c-13 3 -24 4 -33 4c-40 0 -50 -19 -50 -58v-552h-161v392h-73z" />
    <glyph glyph-name="uni018F" unicode="&#x18f;" horiz-adv-x="700" 
d="M342 117c79 0 138 54 154 183h-295c11 -132 64 -183 141 -183zM307 596c-68 0 -133 -23 -194 -60l-40 132c66 38 159 64 251 64c204 0 338 -131 338 -374c0 -245 -135 -370 -321 -370c-184 0 -303 122 -303 372c0 25 0 43 3 60h454c-17 121 -82 176 -188 176z" />
    <glyph glyph-name="florin" unicode="&#x192;" horiz-adv-x="471" 
d="M407 616c-56 0 -72 -24 -77 -75l-14 -133h135v-97h-145l-33 -311h-157l33 311h-123v97h133l14 133c14 132 72 191 221 191c19 0 42 -1 57 -3v-117c-15 3 -32 4 -44 4z" />
    <glyph glyph-name="uni01B5" unicode="&#x1b5;" horiz-adv-x="615" 
d="M85 313v103h157l118 168h-311v136h526v-116l-132 -188h96v-103h-168l-127 -182h332v-131h-547v111l141 202h-85z" />
    <glyph glyph-name="uni01B6" unicode="&#x1b6;" horiz-adv-x="497" 
d="M59 209v103h138l68 81h-228v117h427v-98l-84 -100h58v-103h-143l-74 -89h245v-120h-444v101l90 108h-53z" />
    <glyph glyph-name="Aringacute" unicode="&#x1fa;" horiz-adv-x="695" 
d="M466 739c0 -17 -4 -33 -11 -46l223 -693h-171l-42 146h-241l-42 -146h-165l228 693c-7 13 -11 29 -11 46c0 58 48 103 116 103s116 -45 116 -103zM345 565l-86 -298h171zM350 780c-28 0 -45 -19 -45 -41s17 -41 45 -41s45 19 45 41s-17 41 -45 41zM375 857h-125l93 103
h176z" />
    <glyph glyph-name="aringacute" unicode="&#x1fb;" horiz-adv-x="531" 
d="M241 399c-49 0 -99 -17 -153 -40l-30 118c61 25 135 45 218 45c126 0 206 -45 206 -189v-217c0 -84 5 -105 10 -116h-152c-5 8 -10 20 -13 54c-39 -43 -89 -66 -144 -66c-87 0 -152 56 -152 160c0 107 69 171 223 171c19 0 46 -1 71 -4v6c0 57 -29 78 -84 78zM242 103
c29 0 58 15 83 34v87c-15 3 -27 5 -47 5c-67 0 -90 -22 -90 -65s22 -61 54 -61zM231 638c0 -22 16 -41 42 -41s42 19 42 41s-16 41 -42 41s-42 -19 -42 -41zM379 638c0 -58 -45 -103 -106 -103s-106 45 -106 103s45 103 106 103s106 -45 106 -103zM300 757h-124l93 117h175z
" />
    <glyph glyph-name="AEacute" unicode="&#x1fc;" horiz-adv-x="945" 
d="M14 0l369 720h523v-136h-278v-156h237v-128h-237v-169h281v-131h-444v146h-209l-68 -146h-174zM313 267h152v325zM668 762h-125l93 147h176z" />
    <glyph glyph-name="aeacute" unicode="&#x1fd;" horiz-adv-x="834" 
d="M794 208h-310c12 -82 59 -106 120 -106c47 0 94 14 150 38l30 -109c-54 -25 -130 -43 -203 -43c-88 0 -159 26 -204 78c-46 -45 -111 -78 -184 -78c-95 0 -162 56 -162 160c0 108 71 171 223 171c19 0 46 -1 71 -4v6c0 57 -29 78 -84 78c-49 0 -99 -17 -153 -40l-30 118
c61 25 135 45 218 45c64 0 116 -12 151 -42c42 28 93 42 149 42c134 0 222 -81 222 -252c0 -18 -1 -42 -4 -62zM242 103c26 0 59 13 92 40c-8 25 -13 52 -15 82c-12 2 -24 4 -43 4c-65 0 -89 -23 -89 -66c0 -42 23 -60 55 -60zM572 412c-49 0 -84 -36 -90 -111h168
c0 80 -33 111 -78 111zM451 553h-124l93 167h175z" />
    <glyph glyph-name="Oslashacute" unicode="&#x1fe;" horiz-adv-x="723" 
d="M527 360c0 36 -3 70 -10 99l-269 -292c29 -36 69 -51 114 -51c93 0 165 65 165 244zM197 357c0 -36 3 -69 9 -97l268 291c-29 35 -68 49 -112 49c-93 0 -165 -66 -165 -243zM686 362c0 -244 -138 -374 -326 -374c-82 0 -155 25 -210 73l-67 -73l-69 63l77 83
c-34 58 -53 133 -53 224c0 244 138 374 326 374c82 0 154 -25 209 -74l68 74l69 -63l-77 -84c33 -58 53 -133 53 -223zM389 762h-125l93 147h176z" />
    <glyph glyph-name="oslashacute" unicode="&#x1ff;" horiz-adv-x="561" 
d="M379 253c0 18 -1 35 -3 50l-161 -180c17 -22 40 -31 66 -31c54 0 98 42 98 161zM183 254c0 -18 1 -34 3 -48l159 178c-17 21 -40 30 -64 30c-54 0 -98 -42 -98 -160zM531 257c0 -184 -114 -269 -252 -269c-56 0 -107 14 -148 42l-55 -61l-58 50l58 65
c-28 42 -45 98 -45 169c0 184 114 269 252 269c55 0 106 -14 148 -43l55 62l58 -50l-59 -66c29 -42 46 -97 46 -168zM307 553h-124l93 167h175z" />
    <glyph glyph-name="Scommaaccent" unicode="&#x218;" horiz-adv-x="584" 
d="M38 45l38 133c63 -34 127 -60 192 -60c73 0 115 33 115 82c0 138 -326 63 -326 306c0 139 106 226 261 226c78 0 150 -22 207 -56l-38 -140c-51 34 -111 60 -168 60c-62 0 -99 -31 -99 -75c0 -128 326 -52 326 -300c0 -144 -111 -233 -276 -233c-78 0 -164 20 -232 57z
M194 -217c40 17 63 35 76 52c-39 4 -63 29 -63 65c0 43 34 68 80 68c51 0 90 -31 90 -93c0 -48 -23 -109 -139 -153z" />
    <glyph glyph-name="scommaaccent" unicode="&#x219;" horiz-adv-x="469" 
d="M422 481l-30 -122c-40 25 -90 44 -131 44c-37 0 -55 -16 -55 -39c0 -75 232 -18 232 -199c0 -111 -87 -177 -221 -177c-67 0 -134 16 -186 42l30 118c49 -26 103 -46 152 -46c47 0 70 20 70 47c0 79 -232 26 -232 203c0 105 82 170 207 170c62 0 119 -17 164 -41z
M138 -217c40 17 63 35 76 52c-39 4 -63 29 -63 65c0 43 34 68 80 68c51 0 90 -31 90 -93c0 -48 -23 -109 -139 -153z" />
    <glyph glyph-name="uni021A" unicode="&#x21a;" horiz-adv-x="583" 
d="M210 0v584h-191v136h545v-136h-191v-584h-163zM193 -217c40 17 63 35 76 52c-39 4 -63 29 -63 65c0 43 34 68 80 68c51 0 90 -31 90 -93c0 -48 -23 -109 -139 -153z" />
    <glyph glyph-name="uni021B" unicode="&#x21b;" horiz-adv-x="371" 
d="M101 -217c40 17 63 35 76 52c-39 4 -63 29 -63 65c0 43 34 68 80 68c51 0 90 -31 90 -93c0 -48 -23 -109 -139 -153zM16 392v118h73v170h161v-170h95v-118h-95v-223c0 -42 11 -54 43 -54c19 0 37 4 52 8v-120c-28 -5 -62 -9 -101 -9c-114 0 -155 34 -155 151v247h-73z
" />
    <glyph glyph-name="uni0237" unicode="&#x237;" horiz-adv-x="295" 
d="M228 510v-552c0 -121 -53 -174 -185 -174c-18 0 -40 1 -59 4v116c13 -3 24 -4 33 -4c40 0 50 19 50 58v552h161z" />
    <glyph glyph-name="uni0259" unicode="&#x259;" horiz-adv-x="545" 
d="M265 93c48 0 81 33 87 117h-168c4 -88 35 -117 81 -117zM39 303h309c-12 76 -52 100 -112 100c-47 0 -90 -15 -145 -39l-30 114c51 26 126 44 196 44c159 0 257 -93 257 -266c0 -182 -108 -268 -249 -268c-136 0 -230 80 -230 252c0 25 2 44 4 63z" />
    <glyph glyph-name="uni02BB" unicode="&#x2bb;" horiz-adv-x="286" 
d="M192 732l69 -64c-66 -40 -96 -78 -109 -116c50 -4 82 -39 82 -85c0 -49 -36 -87 -92 -87c-64 0 -108 49 -108 129c0 75 38 152 158 223z" />
    <glyph glyph-name="afii57929" unicode="&#x2bc;" horiz-adv-x="286" 
d="M25 444c66 40 96 78 109 116c-50 4 -82 39 -82 85c0 49 36 87 92 87c64 0 108 -49 108 -129c0 -75 -38 -152 -158 -223z" />
    <glyph glyph-name="circumflex" unicode="&#x2c6;" horiz-adv-x="500" 
d="M173 553h-114l129 167h124l129 -167h-114l-77 69z" />
    <glyph glyph-name="caron" unicode="&#x2c7;" horiz-adv-x="500" 
d="M327 720h114l-129 -167h-124l-129 167h114l77 -69z" />
    <glyph glyph-name="breve" unicode="&#x2d8;" horiz-adv-x="500" 
d="M250 559c-129 0 -181 62 -181 161h87c7 -41 29 -64 94 -64s87 23 94 64h87c0 -99 -52 -161 -181 -161z" />
    <glyph glyph-name="dotaccent" unicode="&#x2d9;" horiz-adv-x="500" 
d="M341 636c0 -49 -36 -84 -91 -84s-91 35 -91 84s36 84 91 84s91 -35 91 -84z" />
    <glyph glyph-name="ring" unicode="&#x2da;" horiz-adv-x="500" 
d="M208 655c0 -22 16 -41 42 -41s42 19 42 41s-16 41 -42 41s-42 -19 -42 -41zM356 655c0 -58 -45 -103 -106 -103s-106 45 -106 103s45 103 106 103s106 -45 106 -103z" />
    <glyph glyph-name="ogonek" unicode="&#x2db;" horiz-adv-x="500" 
d="M235 0h116c-64 -32 -88 -62 -88 -93c0 -24 15 -31 37 -31c9 0 21 1 32 4l19 -80c-21 -5 -48 -8 -73 -8c-81 0 -129 33 -129 95c0 42 22 82 86 113z" />
    <glyph glyph-name="tilde" unicode="&#x2dc;" horiz-adv-x="500" 
d="M148 559h-90c0 109 50 150 111 150c68 0 117 -53 152 -53c21 0 31 18 31 47h90c0 -109 -50 -150 -111 -150c-68 0 -117 53 -152 53c-21 0 -31 -18 -31 -47z" />
    <glyph glyph-name="hungarumlaut" unicode="&#x2dd;" horiz-adv-x="500" 
d="M167 553h-124l93 167h175zM372 553h-124l110 167h175z" />
    <glyph glyph-name="gravecomb" unicode="&#x300;" horiz-adv-x="1" 
d="M346 553h-124l-144 167h175z" />
    <glyph glyph-name="acutecomb" unicode="&#x301;" horiz-adv-x="1" 
d="M277 553h-124l93 167h175z" />
    <glyph glyph-name="uni0302" unicode="&#x302;" horiz-adv-x="1" 
d="M173 553h-114l129 167h124l129 -167h-114l-77 69z" />
    <glyph glyph-name="tildecomb" unicode="&#x303;" horiz-adv-x="1" 
d="M148 559h-90c0 109 50 150 111 150c68 0 117 -53 152 -53c21 0 31 18 31 47h90c0 -109 -50 -150 -111 -150c-68 0 -117 53 -152 53c-21 0 -31 -18 -31 -47z" />
    <glyph glyph-name="uni0304" unicode="&#x304;" horiz-adv-x="1" 
d="M74 560v103h351v-103h-351z" />
    <glyph glyph-name="uni0306" unicode="&#x306;" horiz-adv-x="1" 
d="M250 559c-129 0 -181 62 -181 161h87c7 -41 29 -64 94 -64s87 23 94 64h87c0 -99 -52 -161 -181 -161z" />
    <glyph glyph-name="uni0307" unicode="&#x307;" horiz-adv-x="1" 
d="M341 636c0 -49 -36 -84 -91 -84s-91 35 -91 84s36 84 91 84s91 -35 91 -84z" />
    <glyph glyph-name="uni0308" unicode="&#x308;" horiz-adv-x="1" 
d="M219 629c0 -42 -32 -74 -76 -74s-76 32 -76 74s32 74 76 74s76 -32 76 -74zM433 629c0 -42 -32 -74 -76 -74s-76 32 -76 74s32 74 76 74s76 -32 76 -74z" />
    <glyph glyph-name="uni030A" unicode="&#x30a;" horiz-adv-x="1" 
d="M208 655c0 -22 16 -41 42 -41s42 19 42 41s-16 41 -42 41s-42 -19 -42 -41zM356 655c0 -58 -45 -103 -106 -103s-106 45 -106 103s45 103 106 103s106 -45 106 -103z" />
    <glyph glyph-name="uni030B" unicode="&#x30b;" horiz-adv-x="1" 
d="M167 553h-124l93 167h175zM372 553h-124l110 167h175z" />
    <glyph glyph-name="uni030C" unicode="&#x30c;" horiz-adv-x="1" 
d="M327 720h114l-129 -167h-124l-129 167h114l77 -69z" />
    <glyph glyph-name="uni0312" unicode="&#x312;" horiz-adv-x="1" 
d="M309 797l44 -61c-40 -17 -63 -35 -76 -52c39 -4 63 -29 63 -65c0 -43 -34 -68 -80 -68c-51 0 -90 31 -90 93c0 48 23 109 139 153z" />
    <glyph glyph-name="uni0313" unicode="&#x313;" horiz-adv-x="1" 
d="M154 535c40 17 63 35 76 52c-39 4 -63 29 -63 65c0 43 34 68 80 68c51 0 90 -31 90 -93c0 -48 -23 -109 -139 -153z" />
    <glyph glyph-name="uni0326" unicode="&#x326;" horiz-adv-x="1" 
d="M154 -217c40 17 63 35 76 52c-39 4 -63 29 -63 65c0 43 34 68 80 68c51 0 90 -31 90 -93c0 -48 -23 -109 -139 -153z" />
    <glyph glyph-name="uni0327" unicode="&#x327;" horiz-adv-x="1" 
d="M382 -102c0 -69 -58 -106 -148 -106c-54 0 -89 13 -116 28l18 79c27 -15 54 -25 84 -25c28 0 47 9 47 29c0 18 -14 40 -78 50l14 56c119 -3 179 -40 179 -111z" />
    <glyph glyph-name="uni0328" unicode="&#x328;" horiz-adv-x="1" 
d="M235 0h116c-64 -32 -88 -62 -88 -93c0 -24 15 -31 37 -31c9 0 21 1 32 4l19 -80c-21 -5 -48 -8 -73 -8c-81 0 -129 33 -129 95c0 42 22 82 86 113z" />
    <glyph glyph-name="uni0335" unicode="&#x335;" horiz-adv-x="1" 
d="M40 245v133h420v-133h-420z" />
    <glyph glyph-name="uni0336" unicode="&#x336;" horiz-adv-x="1" 
d="M40 245v133h920v-133h-920z" />
    <glyph glyph-name="uni037E" unicode="&#x37e;" horiz-adv-x="301" 
d="M25 -116c66 40 96 78 109 116c-50 4 -82 39 -82 85c0 49 36 87 92 87c64 0 108 -49 108 -129c0 -75 -38 -152 -158 -223zM148 316c-56 0 -96 40 -96 92s40 92 96 92s96 -40 96 -92s-40 -92 -96 -92z" />
    <glyph glyph-name="tonos" unicode="&#x384;" horiz-adv-x="500" 
d="M294 553h-120l53 167h171z" />
    <glyph glyph-name="dieresistonos" unicode="&#x385;" horiz-adv-x="500" 
d="M311 705h-123l37 127h164zM219 620c0 -42 -32 -74 -76 -74s-76 32 -76 74s32 74 76 74s76 -32 76 -74zM433 620c0 -42 -32 -74 -76 -74s-76 32 -76 74s32 74 76 74s76 -32 76 -74z" />
    <glyph glyph-name="Alphatonos" unicode="&#x386;" horiz-adv-x="695" 
d="M97 553h-122l53 167h173zM446 720l232 -720h-171l-42 146h-241l-42 -146h-165l237 720h192zM345 565l-86 -298h171z" />
    <glyph glyph-name="anoteleia" unicode="&#x387;" horiz-adv-x="301" 
d="M150 166c-56 0 -96 40 -96 92s40 92 96 92s96 -40 96 -92s-40 -92 -96 -92z" />
    <glyph glyph-name="Epsilontonos" unicode="&#x388;" horiz-adv-x="722" 
d="M82 553h-122l53 167h173zM209 0v720h473v-136h-310v-156h269v-128h-269v-169h313v-131h-476z" />
    <glyph glyph-name="Etatonos" unicode="&#x389;" horiz-adv-x="856" 
d="M82 553h-122l53 167h173zM209 0v720h163v-284h243v284h163v-720h-163v300h-243v-300h-163z" />
    <glyph glyph-name="Iotatonos" unicode="&#x38a;" horiz-adv-x="458" 
d="M82 553h-122l53 167h173zM212 0v720h163v-720h-163z" />
    <glyph glyph-name="Omicrontonos" unicode="&#x38c;" horiz-adv-x="818" 
d="M82 553h-122l53 167h173zM781 362c0 -244 -138 -374 -326 -374c-186 0 -322 128 -322 370c0 244 138 374 326 374c186 0 322 -128 322 -370zM618 358c0 172 -70 238 -161 238s-161 -66 -161 -238s70 -238 161 -238s161 66 161 238z" />
    <glyph glyph-name="Upsilontonos" unicode="&#x38e;" horiz-adv-x="828" 
d="M81 553h-122l53 167h173zM422 0v290l-234 430h171l147 -279l148 279h165l-234 -430v-290h-163z" />
    <glyph glyph-name="Omegatonos" unicode="&#x38f;" horiz-adv-x="819" 
d="M82 553h-122l53 167h173zM459 732c186 0 322 -126 322 -325c0 -112 -43 -210 -117 -276h147v-131h-304v111c71 88 111 166 111 277c0 148 -70 208 -161 208s-161 -60 -161 -208c0 -111 40 -189 111 -277v-111h-304v131h146c-76 68 -116 162 -116 271
c0 202 138 330 326 330z" />
    <glyph glyph-name="iotadieresistonos" unicode="&#x390;" horiz-adv-x="321" 
d="M65 147v363h161v-343c0 -47 15 -58 42 -58c15 0 32 3 45 7v-114c-24 -7 -60 -8 -79 -8c-113 0 -169 37 -169 153zM206 705h-123l37 127h164zM114 620c0 -42 -32 -74 -76 -74s-76 32 -76 74s32 74 76 74s76 -32 76 -74zM328 620c0 -42 -32 -74 -76 -74s-76 32 -76 74
s32 74 76 74s76 -32 76 -74z" />
    <glyph glyph-name="Alpha" unicode="&#x391;" horiz-adv-x="695" 
d="M446 720l232 -720h-171l-42 146h-241l-42 -146h-165l237 720h192zM345 565l-86 -298h171z" />
    <glyph glyph-name="Beta" unicode="&#x392;" horiz-adv-x="672" 
d="M77 0v720h262c161 0 256 -62 256 -193c0 -76 -32 -130 -104 -159c93 -27 134 -90 134 -173c0 -122 -88 -195 -271 -195h-277zM237 122h116c76 0 111 27 111 91s-35 91 -111 91h-116v-182zM237 420h91c73 0 106 26 106 87c0 60 -33 86 -106 86h-91v-173z" />
    <glyph glyph-name="Gamma" unicode="&#x393;" horiz-adv-x="540" 
d="M77 0v720h444v-136h-281v-584h-163z" />
    <glyph glyph-name="uni0394" unicode="&#x394;" horiz-adv-x="695" 
d="M446 720l196 -608v-112h-588v112l200 608h192zM345 565l-125 -434h249z" />
    <glyph glyph-name="Epsilon" unicode="&#x395;" horiz-adv-x="589" 
d="M77 0v720h473v-136h-310v-156h269v-128h-269v-169h313v-131h-476z" />
    <glyph glyph-name="Zeta" unicode="&#x396;" horiz-adv-x="615" 
d="M29 0v111l331 473h-311v136h526v-116l-331 -473h332v-131h-547z" />
    <glyph glyph-name="Eta" unicode="&#x397;" horiz-adv-x="723" 
d="M77 0v720h163v-284h243v284h163v-720h-163v300h-243v-300h-163z" />
    <glyph glyph-name="Theta" unicode="&#x398;" horiz-adv-x="723" 
d="M361 120c73 0 145 40 161 178h-322c16 -138 87 -178 161 -178zM361 596c-72 0 -143 -39 -160 -170h320c-18 131 -88 170 -160 170zM686 362c0 -244 -138 -374 -326 -374c-186 0 -322 128 -322 370c0 244 138 374 326 374c186 0 322 -128 322 -370z" />
    <glyph glyph-name="Iota" unicode="&#x399;" horiz-adv-x="328" 
d="M83 0v720h163v-720h-163z" />
    <glyph glyph-name="Kappa" unicode="&#x39a;" horiz-adv-x="682" 
d="M77 0v720h163v-297l222 297h188l-223 -270l242 -450h-179l-168 323l-82 -99v-224h-163z" />
    <glyph glyph-name="Lambda" unicode="&#x39b;" horiz-adv-x="666" 
d="M420 720l229 -720h-165l-154 514l-154 -514h-159l234 720h169z" />
    <glyph glyph-name="Mu" unicode="&#x39c;" horiz-adv-x="963" 
d="M551 0h-146l-115 372c-13 42 -36 119 -40 153h-2c0 -33 0 -110 -3 -161l-19 -364h-158l61 720h209l106 -375c19 -67 31 -117 37 -154h2c10 49 24 105 40 160l110 369h205l57 -720h-164l-18 360c-3 51 -3 132 -3 165h-2c-4 -33 -27 -112 -40 -153z" />
    <glyph glyph-name="Nu" unicode="&#x39d;" horiz-adv-x="731" 
d="M77 0v720h171l255 -419v419h150v-720h-136l-290 477v-477h-150z" />
    <glyph glyph-name="Xi" unicode="&#x39e;" horiz-adv-x="526" 
d="M23 584v136h480v-136h-480zM20 0v136h486v-136h-486zM64 298v131h398v-131h-398z" />
    <glyph glyph-name="Omicron" unicode="&#x39f;" horiz-adv-x="717" 
d="M686 362c0 -244 -138 -374 -326 -374c-186 0 -322 128 -322 370c0 244 138 374 326 374c186 0 322 -128 322 -370zM523 358c0 172 -70 238 -161 238s-161 -66 -161 -238s70 -238 161 -238s161 66 161 238z" />
    <glyph glyph-name="Pi" unicode="&#x3a0;" horiz-adv-x="723" 
d="M77 0v720h569v-720h-163v584h-243v-584h-163z" />
    <glyph glyph-name="Rho" unicode="&#x3a1;" horiz-adv-x="646" 
d="M77 0v720h270c169 0 270 -78 270 -232c0 -155 -106 -232 -282 -232h-97v-256h-161zM238 587v-203h97c82 0 121 32 121 101c0 70 -39 102 -121 102h-97z" />
    <glyph glyph-name="Sigma" unicode="&#x3a3;" horiz-adv-x="569" 
d="M31 0v111l209 248l-189 245v116h496v-136h-276l170 -221l-196 -232h305v-131h-519z" />
    <glyph glyph-name="Tau" unicode="&#x3a4;" horiz-adv-x="583" 
d="M210 0v584h-191v136h545v-136h-191v-584h-163z" />
    <glyph glyph-name="Upsilon" unicode="&#x3a5;" horiz-adv-x="649" 
d="M243 0v290l-234 430h171l147 -279l148 279h165l-234 -430v-290h-163z" />
    <glyph glyph-name="Phi" unicode="&#x3a6;" horiz-adv-x="835" 
d="M339 -12v86c-179 21 -301 118 -301 284c0 167 122 265 301 287v87h157v-86c178 -21 301 -118 301 -284c0 -167 -123 -266 -301 -288v-86h-157zM640 357c0 102 -59 153 -144 171v-343c85 17 144 69 144 172zM195 357c0 -103 58 -154 144 -172v342
c-86 -17 -144 -68 -144 -170z" />
    <glyph glyph-name="Chi" unicode="&#x3a7;" horiz-adv-x="688" 
d="M32 0l210 371l-201 349h178l128 -237l127 237h172l-201 -349l210 -371h-179l-136 259l-135 -259h-173z" />
    <glyph glyph-name="Psi" unicode="&#x3a8;" horiz-adv-x="821" 
d="M332 0v239c-193 17 -294 105 -294 289v192h158v-187c0 -103 47 -151 136 -167v354h157v-355c93 15 142 64 142 168v187h152v-187c0 -187 -103 -275 -294 -294v-239h-157z" />
    <glyph glyph-name="uni03A9" unicode="&#x3a9;" horiz-adv-x="723" 
d="M364 732c186 0 322 -126 322 -325c0 -112 -43 -210 -117 -276h147v-131h-304v111c71 88 111 166 111 277c0 148 -70 208 -161 208s-161 -60 -161 -208c0 -111 40 -189 111 -277v-111h-304v131h146c-76 68 -116 162 -116 271c0 202 138 330 326 330z" />
    <glyph glyph-name="Iotadieresis" unicode="&#x3aa;" horiz-adv-x="328" 
d="M83 0v720h163v-720h-163zM134 837c0 -42 -32 -74 -76 -74s-76 32 -76 74s32 74 76 74s76 -32 76 -74zM348 837c0 -42 -32 -74 -76 -74s-76 32 -76 74s32 74 76 74s76 -32 76 -74z" />
    <glyph glyph-name="Upsilondieresis" unicode="&#x3ab;" horiz-adv-x="649" 
d="M243 0v290l-234 430h171l147 -279l148 279h165l-234 -430v-290h-163zM293 837c0 -42 -32 -74 -76 -74s-76 32 -76 74s32 74 76 74s76 -32 76 -74zM507 837c0 -42 -32 -74 -76 -74s-76 32 -76 74s32 74 76 74s76 -32 76 -74z" />
    <glyph glyph-name="alphatonos" unicode="&#x3ac;" horiz-adv-x="674" 
d="M497 510h150c-46 -102 -90 -184 -126 -251l117 -259h-156l-48 124c-71 -113 -131 -136 -195 -136c-123 0 -208 84 -208 247c0 184 109 287 236 287c73 0 124 -35 180 -138c14 37 31 77 50 126zM263 109c35 0 64 28 119 137c-46 113 -70 146 -107 146
c-52 0 -83 -70 -83 -155c0 -68 20 -128 71 -128zM356 553h-120l53 167h171z" />
    <glyph glyph-name="epsilontonos" unicode="&#x3ad;" horiz-adv-x="473" 
d="M308 553h-120l53 167h171zM448 484l-30 -122c-41 23 -91 41 -138 41c-44 0 -72 -16 -72 -47s28 -48 71 -48h82v-106h-76c-53 0 -93 -14 -93 -50s38 -50 87 -50c55 0 98 17 143 38l30 -111c-52 -23 -119 -41 -201 -41c-127 0 -220 44 -220 139c0 54 30 97 99 120
c-57 24 -83 63 -83 116c0 96 84 159 224 159c69 0 130 -15 177 -38z" />
    <glyph glyph-name="etatonos" unicode="&#x3ae;" horiz-adv-x="577" 
d="M338 553h-120l53 167h171zM61 0v510h161v-62c45 45 102 74 171 74c74 0 135 -34 135 -142v-590h-161v540c0 43 -18 57 -48 57c-34 0 -66 -18 -97 -45v-342h-161z" />
    <glyph glyph-name="iotatonos" unicode="&#x3af;" horiz-adv-x="321" 
d="M65 147v363h161v-343c0 -47 15 -58 42 -58c15 0 32 3 45 7v-114c-24 -7 -60 -8 -79 -8c-113 0 -169 37 -169 153zM189 553h-120l53 167h171z" />
    <glyph glyph-name="upsilondieresistonos" unicode="&#x3b0;" horiz-adv-x="569" 
d="M329 510h161c32 -68 44 -150 44 -228c0 -216 -91 -294 -251 -294c-142 0 -227 62 -227 219v303h161v-303c0 -75 28 -98 69 -98c52 0 87 38 87 172c0 79 -12 161 -44 229zM344 705h-123l37 127h164zM252 620c0 -42 -32 -74 -76 -74s-76 32 -76 74s32 74 76 74
s76 -32 76 -74zM466 620c0 -42 -32 -74 -76 -74s-76 32 -76 74s32 74 76 74s76 -32 76 -74z" />
    <glyph glyph-name="alpha" unicode="&#x3b1;" horiz-adv-x="674" 
d="M497 510h150c-46 -102 -90 -184 -126 -251l117 -259h-156l-48 124c-71 -113 -131 -136 -195 -136c-123 0 -208 84 -208 247c0 184 109 287 236 287c73 0 124 -35 180 -138c14 37 31 77 50 126zM263 109c35 0 64 28 119 137c-46 113 -70 146 -107 146
c-52 0 -83 -70 -83 -155c0 -68 20 -128 71 -128z" />
    <glyph glyph-name="beta" unicode="&#x3b2;" horiz-adv-x="621" 
d="M222 41v-251h-161v688c0 168 103 254 254 254c130 0 227 -64 227 -190c0 -73 -32 -127 -105 -158c108 -34 153 -101 153 -192c0 -133 -95 -204 -220 -204c-51 0 -100 12 -148 53zM281 323v116c60 0 108 23 108 93c0 58 -34 81 -77 81c-51 0 -90 -31 -90 -119v-339
c43 -33 78 -44 113 -44c55 0 94 29 94 95c0 83 -63 117 -148 117z" />
    <glyph glyph-name="gamma" unicode="&#x3b3;" horiz-adv-x="506" 
d="M337 459c0 19 -1 31 -4 51h161c1 -20 3 -30 3 -50c0 -163 -138 -419 -163 -460v-210h-160v116c0 187 -119 505 -175 604h163c54 -97 94 -237 102 -341c27 48 73 160 73 290z" />
    <glyph glyph-name="delta" unicode="&#x3b4;" horiz-adv-x="569" 
d="M496 676l-30 -120c-56 35 -105 59 -156 59c-36 0 -54 -12 -54 -32c0 -81 282 -130 282 -368c0 -146 -107 -227 -255 -227c-146 0 -252 78 -252 221c0 121 77 176 165 215c-51 40 -94 85 -94 154c0 95 82 154 202 154c75 0 139 -23 192 -56zM384 207c0 72 -43 109 -94 149
c-49 -30 -98 -66 -98 -147c0 -74 41 -106 95 -106s97 32 97 104z" />
    <glyph glyph-name="epsilon" unicode="&#x3b5;" horiz-adv-x="473" 
d="M448 484l-30 -122c-41 23 -91 41 -138 41c-44 0 -72 -16 -72 -47s28 -48 71 -48h82v-106h-76c-53 0 -93 -14 -93 -50s38 -50 87 -50c55 0 98 17 143 38l30 -111c-52 -23 -119 -41 -201 -41c-127 0 -220 44 -220 139c0 54 30 97 99 120c-57 24 -83 63 -83 116
c0 96 84 159 224 159c69 0 130 -15 177 -38z" />
    <glyph glyph-name="zeta" unicode="&#x3b6;" horiz-adv-x="444" 
d="M49 603v117h363v-98c-111 -129 -220 -304 -220 -410c0 -156 237 -53 237 -227c0 -62 -30 -110 -55 -147l-107 37c19 27 28 52 28 71c0 101 -264 16 -264 246c0 138 95 274 213 413c-35 -3 -64 -2 -93 -2h-102z" />
    <glyph glyph-name="eta" unicode="&#x3b7;" horiz-adv-x="577" 
d="M61 0v510h161v-62c45 45 102 74 171 74c74 0 135 -34 135 -142v-590h-161v540c0 43 -18 57 -48 57c-34 0 -66 -18 -97 -45v-342h-161z" />
    <glyph glyph-name="theta" unicode="&#x3b8;" horiz-adv-x="553" 
d="M276 99c46 0 82 55 88 207h-176c6 -152 42 -207 88 -207zM276 615c-45 0 -80 -51 -88 -192h176c-8 141 -43 192 -88 192zM521 362c0 -256 -103 -374 -247 -374c-142 0 -243 116 -243 370c0 256 103 374 247 374c142 0 243 -116 243 -370z" />
    <glyph glyph-name="iota" unicode="&#x3b9;" horiz-adv-x="321" 
d="M65 147v363h161v-343c0 -47 15 -58 42 -58c15 0 32 3 45 7v-114c-24 -7 -60 -8 -79 -8c-113 0 -169 37 -169 153z" />
    <glyph glyph-name="kappa" unicode="&#x3ba;" horiz-adv-x="561" 
d="M379 0l-105 198l-52 -60v-138h-161v510h161v-198c134 184 173 204 303 204v-116c-56 0 -86 -18 -151 -88l172 -312h-167z" />
    <glyph glyph-name="lambda" unicode="&#x3bb;" horiz-adv-x="537" 
d="M537 117v-115c-13 -4 -37 -8 -68 -8c-82 0 -119 29 -145 122l-64 226l-111 -342h-157l179 486h40l-20 74c-11 42 -31 53 -61 53c-16 0 -30 -3 -41 -6v114c14 5 46 9 77 9c87 0 136 -30 166 -130l134 -443c11 -38 24 -46 43 -46c11 0 20 3 28 6z" />
    <glyph glyph-name="uni03BC" unicode="&#x3bc;" horiz-adv-x="589" 
d="M527 510v-510h-161v62c-45 -45 -104 -73 -166 -74c14 -62 15 -127 16 -198h-155v720h160v-335c0 -43 18 -57 48 -57c34 0 66 18 97 45v347h161z" />
    <glyph glyph-name="nu" unicode="&#x3bd;" horiz-adv-x="508" 
d="M172 0l-173 510h163l101 -344c24 48 73 160 73 295c0 16 0 29 -3 49h161c3 -20 3 -33 3 -49c0 -167 -143 -424 -163 -461h-162z" />
    <glyph glyph-name="xi" unicode="&#x3be;" horiz-adv-x="444" 
d="M370 306h-27c-105 0 -151 -35 -151 -99c0 -146 237 -49 237 -222c0 -62 -30 -111 -55 -147l-107 37c19 27 28 52 28 71c0 101 -264 22 -264 236c0 90 47 147 139 181c-80 29 -118 80 -118 150c0 130 131 207 334 207v-117c-124 0 -173 -32 -173 -94s50 -85 122 -85h35
v-118z" />
    <glyph glyph-name="omicron" unicode="&#x3bf;" horiz-adv-x="561" 
d="M531 257c0 -184 -114 -269 -252 -269c-136 0 -248 83 -248 265c0 184 114 269 252 269c136 0 248 -83 248 -265zM370 253c0 112 -40 152 -89 152s-89 -40 -89 -152s40 -152 89 -152s89 40 89 152z" />
    <glyph glyph-name="pi" unicode="&#x3c0;" horiz-adv-x="617" 
d="M16 392v118h577v-118h-68v-231c0 -44 12 -52 33 -52c10 0 23 2 34 5v-113c-23 -5 -53 -7 -76 -7c-101 0 -152 38 -152 146v252h-119c0 -144 -5 -277 -16 -392h-165c15 115 20 248 20 392h-68z" />
    <glyph glyph-name="rho" unicode="&#x3c1;" horiz-adv-x="581" 
d="M337 -12c-49 0 -88 15 -120 40v-238h-161v456c0 181 107 276 253 276c139 0 241 -86 241 -267c0 -170 -89 -267 -213 -267zM217 266v-127c23 -17 48 -28 77 -28c55 0 95 40 95 142c0 100 -39 138 -88 138c-45 0 -84 -32 -84 -125z" />
    <glyph glyph-name="sigma1" unicode="&#x3c2;" horiz-adv-x="444" 
d="M374 -162l-107 37c19 27 28 51 28 71c0 108 -264 12 -264 278c0 197 145 292 371 292v-117c-148 0 -210 -60 -210 -162c0 -198 237 -71 237 -251c0 -65 -31 -112 -55 -148z" />
    <glyph glyph-name="sigma" unicode="&#x3c3;" horiz-adv-x="579" 
d="M560 510v-117h-104c42 -39 74 -85 74 -169c0 -149 -109 -236 -247 -236c-147 0 -252 90 -252 260c0 175 121 262 307 262h222zM369 230c0 74 -26 122 -61 161c-90 -9 -116 -58 -116 -143c0 -106 40 -148 89 -148c48 0 88 39 88 130z" />
    <glyph glyph-name="tau" unicode="&#x3c4;" horiz-adv-x="474" 
d="M16 393v117h442v-117h-146v-226c0 -47 15 -58 42 -58c15 0 32 3 45 7v-114c-24 -7 -60 -8 -79 -8c-113 0 -169 37 -169 153v246h-135z" />
    <glyph glyph-name="upsilon" unicode="&#x3c5;" horiz-adv-x="569" 
d="M329 510h161c32 -68 44 -150 44 -228c0 -216 -91 -294 -251 -294c-142 0 -227 62 -227 219v303h161v-303c0 -75 28 -98 69 -98c52 0 87 38 87 172c0 79 -12 161 -44 229z" />
    <glyph glyph-name="phi" unicode="&#x3c6;" horiz-adv-x="729" 
d="M698 265c0 -173 -103 -254 -259 -277v-198h-152v199c-156 22 -256 110 -256 270c0 103 42 193 106 257l132 -38c-50 -53 -86 -131 -86 -221c0 -94 40 -134 104 -152v216c0 134 88 201 197 201c143 0 214 -114 214 -257zM439 327v-223c68 19 107 54 107 160
c0 89 -28 133 -64 133c-23 0 -43 -17 -43 -70z" />
    <glyph glyph-name="chi" unicode="&#x3c7;" horiz-adv-x="564" 
d="M561 -93v-115c-14 -4 -40 -8 -74 -8c-89 0 -118 27 -149 106l-64 161l-124 -261h-155l194 381l-79 179c-15 33 -25 49 -56 49c-13 0 -26 -3 -36 -6v114c14 5 40 9 73 9c85 0 115 -27 147 -108l47 -117l105 219h154l-174 -339l100 -223c16 -36 27 -47 55 -47
c15 0 26 3 36 6z" />
    <glyph glyph-name="psi" unicode="&#x3c8;" horiz-adv-x="740" 
d="M299 -210v198c-154 16 -243 89 -243 256v266h151v-268c0 -88 36 -126 92 -139v617h152v-614c62 21 96 61 96 181c0 72 -12 159 -39 223h153c29 -72 38 -162 38 -224c0 -196 -89 -275 -248 -297v-199h-152z" />
    <glyph glyph-name="omega" unicode="&#x3c9;" horiz-adv-x="749" 
d="M469 510h157c55 -66 92 -158 92 -268c0 -169 -88 -254 -206 -254c-54 0 -102 18 -138 79c-35 -59 -81 -79 -138 -79c-117 0 -205 85 -205 254c0 110 37 202 92 268h157c-58 -67 -97 -160 -97 -271c0 -96 29 -130 63 -130c31 0 53 30 53 113v100h151v-100
c0 -83 22 -113 53 -113c34 0 63 34 63 130c0 111 -39 204 -97 271z" />
    <glyph glyph-name="iotadieresis" unicode="&#x3ca;" horiz-adv-x="321" 
d="M65 147v363h161v-343c0 -47 15 -58 42 -58c15 0 32 3 45 7v-114c-24 -7 -60 -8 -79 -8c-113 0 -169 37 -169 153zM114 629c0 -42 -32 -74 -76 -74s-76 32 -76 74s32 74 76 74s76 -32 76 -74zM328 629c0 -42 -32 -74 -76 -74s-76 32 -76 74s32 74 76 74s76 -32 76 -74z
" />
    <glyph glyph-name="upsilondieresis" unicode="&#x3cb;" horiz-adv-x="569" 
d="M329 510h161c32 -68 44 -150 44 -228c0 -216 -91 -294 -251 -294c-142 0 -227 62 -227 219v303h161v-303c0 -75 28 -98 69 -98c52 0 87 38 87 172c0 79 -12 161 -44 229zM252 629c0 -42 -32 -74 -76 -74s-76 32 -76 74s32 74 76 74s76 -32 76 -74zM466 629
c0 -42 -32 -74 -76 -74s-76 32 -76 74s32 74 76 74s76 -32 76 -74z" />
    <glyph glyph-name="omicrontonos" unicode="&#x3cc;" horiz-adv-x="561" 
d="M531 257c0 -184 -114 -269 -252 -269c-136 0 -248 83 -248 265c0 184 114 269 252 269c136 0 248 -83 248 -265zM370 253c0 112 -40 152 -89 152s-89 -40 -89 -152s40 -152 89 -152s89 40 89 152zM324 553h-120l53 167h171z" />
    <glyph glyph-name="upsilontonos" unicode="&#x3cd;" horiz-adv-x="569" 
d="M329 510h161c32 -68 44 -150 44 -228c0 -216 -91 -294 -251 -294c-142 0 -227 62 -227 219v303h161v-303c0 -75 28 -98 69 -98c52 0 87 38 87 172c0 79 -12 161 -44 229zM327 553h-120l53 167h171z" />
    <glyph glyph-name="omegatonos" unicode="&#x3ce;" horiz-adv-x="749" 
d="M469 510h157c55 -66 92 -158 92 -268c0 -169 -88 -254 -206 -254c-54 0 -102 18 -138 79c-35 -59 -81 -79 -138 -79c-117 0 -205 85 -205 254c0 110 37 202 92 268h157c-58 -67 -97 -160 -97 -271c0 -96 29 -130 63 -130c31 0 53 30 53 113v100h151v-100
c0 -83 22 -113 53 -113c34 0 63 34 63 130c0 111 -39 204 -97 271zM419 553h-120l53 167h171z" />
    <glyph glyph-name="uni0400" unicode="&#x400;" horiz-adv-x="589" 
d="M77 0v720h473v-136h-310v-156h269v-128h-269v-169h313v-131h-476zM412 762h-125l-144 147h176z" />
    <glyph glyph-name="afii10023" unicode="&#x401;" horiz-adv-x="589" 
d="M77 0v720h473v-136h-310v-156h269v-128h-269v-169h313v-131h-476zM284 837c0 -42 -32 -74 -76 -74s-76 32 -76 74s32 74 76 74s76 -32 76 -74zM498 837c0 -42 -32 -74 -76 -74s-76 32 -76 74s32 74 76 74s76 -32 76 -74z" />
    <glyph glyph-name="afii10051" unicode="&#x402;" horiz-adv-x="798" 
d="M19 584v136h545v-136h-202v-148c55 18 115 27 165 27c141 0 233 -73 233 -236c0 -160 -88 -233 -250 -233c-19 0 -46 1 -66 3v127c14 -4 32 -5 45 -5c71 0 108 31 108 105s-38 106 -118 106c-32 0 -70 -5 -117 -20v-310h-163v584h-180z" />
    <glyph glyph-name="afii10052" unicode="&#x403;" horiz-adv-x="540" 
d="M77 0v720h444v-136h-281v-584h-163zM329 762h-125l93 147h176z" />
    <glyph glyph-name="afii10053" unicode="&#x404;" horiz-adv-x="602" 
d="M536 175l38 -127c-56 -35 -131 -60 -215 -60c-190 0 -321 125 -321 364c0 247 141 380 340 380c77 0 140 -20 192 -53l-38 -139c-49 31 -94 56 -154 56c-85 0 -154 -51 -172 -170h272v-128h-274c16 -127 86 -179 177 -179c58 0 105 21 155 56z" />
    <glyph glyph-name="afii10054" unicode="&#x405;" horiz-adv-x="584" 
d="M38 45l38 133c63 -34 127 -60 192 -60c73 0 115 33 115 82c0 138 -326 63 -326 306c0 139 106 226 261 226c78 0 150 -22 207 -56l-38 -140c-51 34 -111 60 -168 60c-62 0 -99 -31 -99 -75c0 -128 326 -52 326 -300c0 -144 -111 -233 -276 -233c-78 0 -164 20 -232 57z
" />
    <glyph glyph-name="afii10055" unicode="&#x406;" horiz-adv-x="328" 
d="M83 0v720h163v-720h-163z" />
    <glyph glyph-name="afii10056" unicode="&#x407;" horiz-adv-x="328" 
d="M83 0v720h163v-720h-163zM134 837c0 -42 -32 -74 -76 -74s-76 32 -76 74s32 74 76 74s76 -32 76 -74zM348 837c0 -42 -32 -74 -76 -74s-76 32 -76 74s32 74 76 74s76 -32 76 -74z" />
    <glyph glyph-name="afii10057" unicode="&#x408;" horiz-adv-x="411" 
d="M18 0v133c21 -4 52 -8 77 -8c71 0 89 32 89 105v490h163v-490c0 -166 -65 -236 -238 -236c-29 0 -70 2 -91 6z" />
    <glyph glyph-name="afii10058" unicode="&#x409;" horiz-adv-x="1050" 
d="M748 0h-267v584h-158l-13 -218c-15 -257 -65 -372 -266 -372c-19 0 -40 1 -44 2v131c7 -1 16 -2 27 -2c95 0 116 79 127 262l20 333h468v-280h118c163 0 261 -74 261 -218c0 -150 -105 -222 -273 -222zM642 124h105c77 0 113 29 113 93s-36 93 -113 93h-105v-186z" />
    <glyph glyph-name="afii10059" unicode="&#x40a;" horiz-adv-x="1035" 
d="M735 0h-269v300h-229v-300h-160v720h160v-284h229v284h161v-284h120c163 0 259 -73 259 -217c0 -148 -102 -219 -271 -219zM627 124h107c76 0 111 29 111 91c0 63 -35 91 -111 91h-107v-182z" />
    <glyph glyph-name="afii10060" unicode="&#x40b;" horiz-adv-x="798" 
d="M19 584v136h545v-136h-202v-148c55 18 113 27 169 27c133 0 229 -50 229 -212v-251h-163v222c0 84 -43 108 -117 108c-34 0 -71 -5 -118 -20v-310h-163v584h-180z" />
    <glyph glyph-name="afii10061" unicode="&#x40c;" horiz-adv-x="683" 
d="M669 0h-179l-102 206c-33 66 -56 94 -126 94h-22v-300h-163v720h163v-292h23c63 0 80 17 99 62l30 69c50 115 92 167 247 167v-127c-64 0 -81 -19 -100 -62l-30 -69c-20 -46 -45 -81 -104 -102c77 -22 111 -66 145 -133zM393 762h-125l93 147h176z" />
    <glyph glyph-name="uni040D" unicode="&#x40d;" horiz-adv-x="731" 
d="M462 762h-125l-144 147h176zM653 720v-720h-156v451l-271 -451h-149v720h156v-451l271 451h149z" />
    <glyph glyph-name="afii10062" unicode="&#x40e;" horiz-adv-x="649" 
d="M221 239l-212 481h165l153 -355l154 355h159l-216 -481c-85 -188 -156 -245 -309 -245c-20 0 -56 1 -75 4v133c19 -3 43 -6 71 -6c76 0 112 23 154 114h-44zM324 762c-129 0 -181 55 -181 147h107c0 -41 18 -68 74 -68s74 27 74 68h107c0 -92 -52 -147 -181 -147z" />
    <glyph glyph-name="afii10145" unicode="&#x40f;" horiz-adv-x="723" 
d="M646 720v-720h-206v-154h-157v154h-206v720h163v-589h243v589h163z" />
    <glyph glyph-name="afii10017" unicode="&#x410;" horiz-adv-x="695" 
d="M446 720l232 -720h-171l-42 146h-241l-42 -146h-165l237 720h192zM345 565l-86 -298h171z" />
    <glyph glyph-name="afii10018" unicode="&#x411;" horiz-adv-x="646" 
d="M344 0h-267v720h474v-136h-313v-144h118c163 0 261 -73 261 -220s-105 -220 -273 -220zM238 124h105c77 0 113 29 113 93s-36 93 -113 93h-105v-186z" />
    <glyph glyph-name="afii10019" unicode="&#x412;" horiz-adv-x="672" 
d="M77 0v720h262c161 0 256 -62 256 -193c0 -76 -32 -130 -104 -159c93 -27 134 -90 134 -173c0 -122 -88 -195 -271 -195h-277zM237 122h116c76 0 111 27 111 91s-35 91 -111 91h-116v-182zM237 420h91c73 0 106 26 106 87c0 60 -33 86 -106 86h-91v-173z" />
    <glyph glyph-name="afii10020" unicode="&#x413;" horiz-adv-x="540" 
d="M77 0v720h444v-136h-281v-584h-163z" />
    <glyph glyph-name="afii10021" unicode="&#x414;" horiz-adv-x="789" 
d="M20 -154v276h54c40 46 101 140 112 393l9 205h474v-598h84v-276h-152v154h-429v-154h-152zM346 584l-3 -67c-11 -246 -59 -336 -93 -386h256v453h-160z" />
    <glyph glyph-name="afii10022" unicode="&#x415;" horiz-adv-x="589" 
d="M77 0v720h473v-136h-310v-156h269v-128h-269v-169h313v-131h-476z" />
    <glyph glyph-name="afii10024" unicode="&#x416;" horiz-adv-x="1031" 
d="M1017 0h-179l-102 206c-33 66 -56 94 -126 94h-13v-300h-163v300h-19c-70 0 -93 -28 -126 -94l-102 -206h-173l119 233c34 67 68 111 139 133c-56 20 -83 53 -104 102l-30 69c-19 43 -36 62 -94 62v127c155 0 197 -52 247 -167l30 -69c19 -45 36 -62 99 -62h14v292h163
v-292h14c63 0 80 17 99 62l30 69c50 115 92 167 247 167v-127c-64 0 -81 -19 -100 -62l-30 -69c-20 -46 -45 -81 -104 -102c77 -22 111 -66 145 -133z" />
    <glyph glyph-name="afii10025" unicode="&#x417;" horiz-adv-x="569" 
d="M157 429h67c78 0 134 23 134 86c0 57 -45 81 -105 81c-62 0 -114 -25 -166 -59l-38 132c59 36 138 63 227 63c144 0 245 -70 245 -193c0 -82 -45 -140 -127 -170c91 -31 137 -94 137 -176c0 -125 -109 -205 -282 -205c-89 0 -168 21 -230 51l38 135
c52 -27 117 -55 188 -55c76 0 123 33 123 89c0 59 -52 93 -145 93h-66v128z" />
    <glyph glyph-name="afii10026" unicode="&#x418;" horiz-adv-x="731" 
d="M653 720v-720h-156v451l-271 -451h-149v720h156v-451l271 451h149z" />
    <glyph glyph-name="afii10027" unicode="&#x419;" horiz-adv-x="731" 
d="M653 720v-720h-156v451l-271 -451h-149v720h156v-451l271 451h149zM365 762c-129 0 -181 55 -181 147h107c0 -41 18 -68 74 -68s74 27 74 68h107c0 -92 -52 -147 -181 -147z" />
    <glyph glyph-name="afii10028" unicode="&#x41a;" horiz-adv-x="683" 
d="M669 0h-179l-102 206c-33 66 -56 94 -126 94h-22v-300h-163v720h163v-292h23c63 0 80 17 99 62l30 69c50 115 92 167 247 167v-127c-64 0 -81 -19 -100 -62l-30 -69c-20 -46 -45 -81 -104 -102c77 -22 111 -66 145 -133z" />
    <glyph glyph-name="afii10029" unicode="&#x41b;" horiz-adv-x="738" 
d="M44 -6c-19 0 -40 1 -44 2v131c7 -1 16 -2 27 -2c95 0 116 79 127 262l20 333h487v-720h-163v584h-175l-13 -218c-15 -257 -65 -372 -266 -372z" />
    <glyph glyph-name="afii10030" unicode="&#x41c;" horiz-adv-x="963" 
d="M551 0h-146l-115 372c-13 42 -36 119 -40 153h-2c0 -33 0 -110 -3 -161l-19 -364h-158l61 720h209l106 -375c19 -67 31 -117 37 -154h2c10 49 24 105 40 160l110 369h205l57 -720h-164l-18 360c-3 51 -3 132 -3 165h-2c-4 -33 -27 -112 -40 -153z" />
    <glyph glyph-name="afii10031" unicode="&#x41d;" horiz-adv-x="723" 
d="M77 0v720h163v-284h243v284h163v-720h-163v300h-243v-300h-163z" />
    <glyph glyph-name="afii10032" unicode="&#x41e;" horiz-adv-x="723" 
d="M686 362c0 -244 -138 -374 -326 -374c-186 0 -322 128 -322 370c0 244 138 374 326 374c186 0 322 -128 322 -370zM523 358c0 172 -70 238 -161 238s-161 -66 -161 -238s70 -238 161 -238s161 66 161 238z" />
    <glyph glyph-name="afii10033" unicode="&#x41f;" horiz-adv-x="723" 
d="M77 0v720h569v-720h-163v584h-243v-584h-163z" />
    <glyph glyph-name="afii10034" unicode="&#x420;" horiz-adv-x="646" 
d="M77 0v720h270c169 0 270 -78 270 -232c0 -155 -106 -232 -282 -232h-97v-256h-161zM238 587v-203h97c82 0 121 32 121 101c0 70 -39 102 -121 102h-97z" />
    <glyph glyph-name="afii10035" unicode="&#x421;" horiz-adv-x="602" 
d="M536 175l38 -127c-56 -35 -131 -60 -215 -60c-190 0 -321 125 -321 364c0 247 141 380 340 380c77 0 140 -20 192 -53l-38 -139c-49 31 -94 56 -154 56c-100 0 -177 -71 -177 -240s76 -237 180 -237c58 0 105 21 155 56z" />
    <glyph glyph-name="afii10036" unicode="&#x422;" horiz-adv-x="583" 
d="M210 0v584h-191v136h545v-136h-191v-584h-163z" />
    <glyph glyph-name="afii10037" unicode="&#x423;" horiz-adv-x="649" 
d="M221 239l-212 481h165l153 -355l154 355h159l-216 -481c-85 -188 -156 -245 -309 -245c-20 0 -56 1 -75 4v133c19 -3 43 -6 71 -6c76 0 112 23 154 114h-44z" />
    <glyph glyph-name="afii10038" unicode="&#x424;" horiz-adv-x="835" 
d="M339 -12v86c-179 21 -301 118 -301 284c0 167 122 265 301 287v87h157v-86c178 -21 301 -118 301 -284c0 -167 -123 -266 -301 -288v-86h-157zM640 357c0 102 -59 153 -144 171v-343c85 17 144 69 144 172zM195 357c0 -103 58 -154 144 -172v342
c-86 -17 -144 -68 -144 -170z" />
    <glyph glyph-name="afii10039" unicode="&#x425;" horiz-adv-x="688" 
d="M32 0l210 371l-201 349h178l128 -237l127 237h172l-201 -349l210 -371h-179l-136 259l-135 -259h-173z" />
    <glyph glyph-name="afii10040" unicode="&#x426;" horiz-adv-x="766" 
d="M646 720v-598h84v-276h-152v154h-501v720h163v-589h243v589h163z" />
    <glyph glyph-name="afii10041" unicode="&#x427;" horiz-adv-x="676" 
d="M201 720v-219c0 -84 43 -108 117 -108c34 0 71 5 118 20v307h163v-720h-163v292c-55 -18 -113 -27 -169 -27c-133 0 -229 50 -229 212v243h163z" />
    <glyph glyph-name="afii10042" unicode="&#x428;" horiz-adv-x="1049" 
d="M972 720v-720h-895v720h163v-589h203v589h163v-589h203v589h163z" />
    <glyph glyph-name="afii10043" unicode="&#x429;" horiz-adv-x="1092" 
d="M972 720v-598h84v-276h-152v154h-827v720h163v-589h203v589h163v-589h203v589h163z" />
    <glyph glyph-name="afii10044" unicode="&#x42a;" horiz-adv-x="768" 
d="M466 0h-267v584h-180v136h341v-280h118c163 0 261 -74 261 -218c0 -150 -105 -222 -273 -222zM360 124h105c77 0 113 29 113 93s-36 93 -113 93h-105v-186z" />
    <glyph glyph-name="afii10045" unicode="&#x42b;" horiz-adv-x="926" 
d="M689 0v720h159v-720h-159zM344 0h-267v720h161v-280h118c163 0 261 -73 261 -220s-105 -220 -273 -220zM238 124h105c77 0 113 29 113 93s-36 93 -113 93h-105v-186z" />
    <glyph glyph-name="afii10046" unicode="&#x42c;" horiz-adv-x="646" 
d="M344 0h-267v720h161v-280h118c163 0 261 -73 261 -220s-105 -220 -273 -220zM238 124h105c77 0 113 29 113 93s-36 93 -113 93h-105v-186z" />
    <glyph glyph-name="afii10047" unicode="&#x42d;" horiz-adv-x="602" 
d="M124 298v128h272c-17 120 -84 170 -171 170c-56 0 -101 -21 -149 -56l-38 132c55 34 128 60 212 60c185 0 314 -128 314 -365c0 -248 -142 -379 -341 -379c-78 0 -143 20 -195 52l38 135c55 -34 98 -56 155 -56c88 0 159 53 176 179h-273z" />
    <glyph glyph-name="afii10048" unicode="&#x42e;" horiz-adv-x="979" 
d="M640 -12c-156 0 -276 105 -295 312h-105v-300h-163v720h163v-284h108c24 194 142 296 296 296c173 0 297 -129 297 -370c0 -244 -127 -374 -301 -374zM779 357c0 174 -60 241 -137 241s-137 -67 -137 -241s60 -241 137 -241s137 67 137 241z" />
    <glyph glyph-name="afii10049" unicode="&#x42f;" horiz-adv-x="705" 
d="M467 286h-99l-148 -286h-173l165 307c-80 30 -127 88 -127 188c0 147 101 225 272 225h270v-720h-160v286zM357 402h110v185h-110c-76 0 -112 -28 -112 -93c0 -64 36 -92 112 -92z" />
    <glyph glyph-name="afii10065" unicode="&#x430;" horiz-adv-x="531" 
d="M241 399c-49 0 -99 -17 -153 -40l-30 118c61 25 135 45 218 45c126 0 206 -45 206 -189v-217c0 -84 5 -105 10 -116h-152c-5 8 -10 20 -13 54c-39 -43 -89 -66 -144 -66c-87 0 -152 56 -152 160c0 107 69 171 223 171c19 0 46 -1 71 -4v6c0 57 -29 78 -84 78zM242 103
c29 0 58 15 83 34v87c-15 3 -27 5 -47 5c-67 0 -90 -22 -90 -65s22 -61 54 -61z" />
    <glyph glyph-name="afii10066" unicode="&#x431;" horiz-adv-x="561" 
d="M281 372c-33 0 -62 -16 -89 -40v-5c0 -169 39 -225 95 -225c44 0 81 36 81 134c0 97 -36 136 -87 136zM339 590c-97 -1 -141 -46 -155 -161c40 43 90 75 155 75c111 0 190 -95 190 -249c0 -178 -105 -267 -242 -267c-151 0 -256 109 -256 359c0 276 129 379 308 379
c61 0 109 1 138 10v-136c-31 -8 -88 -10 -138 -10z" />
    <glyph glyph-name="afii10067" unicode="&#x432;" horiz-adv-x="576" 
d="M61 0v510h266c118 0 186 -46 186 -135c0 -54 -25 -94 -83 -115c72 -18 104 -64 104 -124c0 -84 -65 -136 -197 -136h-276zM217 100h88c53 0 73 19 73 53c0 35 -20 53 -73 53h-88v-106zM217 301h69c50 0 71 16 71 52c0 35 -21 51 -71 51h-69v-103z" />
    <glyph glyph-name="afii10068" unicode="&#x433;" horiz-adv-x="427" 
d="M61 510h352v-118h-191v-392h-161v510z" />
    <glyph glyph-name="afii10069" unicode="&#x434;" horiz-adv-x="639" 
d="M20 -130v233h37c53 48 93 131 93 407h391v-407h66v-233h-150v130h-287v-130h-150zM287 392c-8 -170 -35 -241 -64 -280h161v280h-97z" />
    <glyph glyph-name="afii10070" unicode="&#x435;" horiz-adv-x="546" 
d="M284 412c-49 0 -84 -36 -90 -111h168c0 80 -33 111 -78 111zM506 208h-310c12 -82 59 -106 120 -106c47 0 94 14 150 38l30 -109c-54 -25 -130 -43 -203 -43c-160 0 -262 87 -262 259c0 180 111 275 257 275c134 0 222 -81 222 -252c0 -18 -1 -42 -4 -62z" />
    <glyph glyph-name="afii10072" unicode="&#x436;" horiz-adv-x="822" 
d="M331 0v204c-47 -1 -62 -19 -84 -62l-71 -142h-160l87 169c21 41 44 72 102 87c-40 12 -60 29 -72 53l-23 48c-14 30 -28 43 -64 43v116c121 0 154 -37 195 -119l24 -48c15 -30 24 -42 66 -43v204h161v-204c41 1 51 14 66 43l24 48c41 82 74 119 195 119v-116
c-44 0 -56 -13 -70 -43l-23 -48c-11 -23 -30 -41 -70 -53c58 -15 83 -44 106 -87l87 -169h-166l-71 142c-21 42 -36 60 -78 62v-204h-161z" />
    <glyph glyph-name="afii10073" unicode="&#x437;" horiz-adv-x="483" 
d="M452 139c0 -93 -92 -151 -240 -151c-70 0 -138 13 -190 36l30 116c49 -22 98 -38 150 -38c55 0 89 18 89 51c0 30 -30 49 -121 49h-39v106h49c71 0 101 14 101 48c0 33 -28 47 -71 47c-46 0 -87 -16 -128 -39l-30 115c48 25 113 43 185 43c121 0 205 -50 205 -142
c0 -54 -29 -95 -91 -117c69 -23 101 -69 101 -124z" />
    <glyph glyph-name="afii10074" unicode="&#x438;" horiz-adv-x="595" 
d="M533 510v-510h-148v289l-183 -289h-141v510h148v-289l183 289h141z" />
    <glyph glyph-name="afii10075" unicode="&#x439;" horiz-adv-x="595" 
d="M533 510v-510h-148v289l-183 -289h-141v510h148v-289l183 289h141zM297 634c55 0 75 38 75 86h105c0 -99 -51 -161 -180 -161s-181 62 -181 161h106c0 -48 20 -86 75 -86z" />
    <glyph glyph-name="afii10076" unicode="&#x43a;" horiz-adv-x="561" 
d="M224 204h-2v-204h-161v510h161v-204h5c45 0 55 13 70 43l24 48c41 82 74 119 195 119v-116c-44 0 -56 -13 -70 -43l-23 -48c-11 -23 -30 -41 -70 -53c58 -15 83 -44 106 -87l87 -169h-166l-71 142c-22 44 -37 62 -85 62z" />
    <glyph glyph-name="afii10077" unicode="&#x43b;" horiz-adv-x="595" 
d="M122 510h411v-510h-160v392h-111c-11 -312 -57 -398 -218 -398c-17 0 -32 1 -44 2v112c7 -1 16 -2 24 -2c80 0 89 111 98 404z" />
    <glyph glyph-name="afii10078" unicode="&#x43c;" horiz-adv-x="773" 
d="M581 0l-18 246c-3 37 -3 78 -3 101h-2c-4 -23 -15 -67 -24 -94l-84 -253h-133l-84 253c-8 25 -20 71 -24 94h-2c0 -23 0 -64 -3 -101l-18 -246h-139l52 510h188l73 -251c9 -31 21 -74 26 -109h2c6 33 17 72 28 109l78 251h184l48 -510h-145z" />
    <glyph glyph-name="afii10079" unicode="&#x43d;" horiz-adv-x="589" 
d="M366 0v204h-144v-204h-161v510h161v-189h144v189h161v-510h-161z" />
    <glyph glyph-name="afii10080" unicode="&#x43e;" horiz-adv-x="561" 
d="M531 257c0 -184 -114 -269 -252 -269c-136 0 -248 83 -248 265c0 184 114 269 252 269c136 0 248 -83 248 -265zM370 253c0 112 -40 152 -89 152s-89 -40 -89 -152s40 -152 89 -152s89 40 89 152z" />
    <glyph glyph-name="afii10081" unicode="&#x43f;" horiz-adv-x="579" 
d="M356 0v393h-134v-393h-161v510h456v-510h-161z" />
    <glyph glyph-name="afii10082" unicode="&#x440;" horiz-adv-x="587" 
d="M61 510h161v-63c40 48 88 75 147 75c111 0 187 -93 187 -259c0 -179 -89 -275 -201 -275c-50 0 -95 19 -133 69v-267h-161v720zM308 390c-27 0 -54 -12 -86 -43v-195c31 -29 57 -41 84 -41c51 0 89 40 89 141c0 98 -36 138 -87 138z" />
    <glyph glyph-name="afii10083" unicode="&#x441;" horiz-adv-x="449" 
d="M424 487l-30 -123c-30 19 -58 35 -95 35c-61 0 -107 -43 -107 -147c0 -103 45 -146 110 -146c36 0 68 13 95 33l31 -113c-40 -23 -93 -38 -153 -38c-145 0 -244 88 -244 260c0 178 106 274 257 274c62 0 104 -16 136 -35z" />
    <glyph glyph-name="afii10084" unicode="&#x442;" horiz-adv-x="511" 
d="M16 392v118h479v-118h-159v-392h-161v392h-159z" />
    <glyph glyph-name="afii10085" unicode="&#x443;" horiz-adv-x="508" 
d="M30 -212v126c16 -3 34 -5 54 -5c53 0 82 18 111 103h-42l-154 498h163l94 -358l97 358h157l-160 -498c-56 -175 -118 -228 -239 -228c-39 0 -66 1 -81 4z" />
    <glyph glyph-name="afii10086" unicode="&#x444;" horiz-adv-x="759" 
d="M302 -210v203c-154 19 -271 103 -271 260c0 158 117 242 271 263v204h155v-203c154 -20 271 -103 271 -260c0 -158 -117 -243 -271 -263v-204h-155zM186 253c0 -87 47 -132 116 -150v298c-69 -17 -116 -62 -116 -148zM573 253c0 86 -48 131 -116 148v-298
c68 18 116 63 116 150z" />
    <glyph glyph-name="afii10087" unicode="&#x445;" horiz-adv-x="521" 
d="M11 0l155 265l-143 245h165l75 -149l75 149h159l-143 -245l155 -265h-165l-87 169l-87 -169h-159z" />
    <glyph glyph-name="afii10088" unicode="&#x446;" horiz-adv-x="627" 
d="M222 510v-398h146v398h161v-407h66v-233h-150v130h-384v510h161z" />
    <glyph glyph-name="afii10089" unicode="&#x447;" horiz-adv-x="561" 
d="M31 510h161v-155c0 -60 29 -75 73 -75c19 0 42 3 73 12v218h161v-510h-161v190c-43 -13 -87 -20 -131 -20c-103 0 -176 38 -176 160v180z" />
    <glyph glyph-name="afii10090" unicode="&#x448;" horiz-adv-x="868" 
d="M514 510v-397h132v397h161v-510h-746v510h161v-397h132v397h160z" />
    <glyph glyph-name="afii10091" unicode="&#x449;" horiz-adv-x="904" 
d="M514 510v-397h132v397h161v-407h66v-233h-150v130h-662v510h161v-397h132v397h160z" />
    <glyph glyph-name="afii10092" unicode="&#x44a;" horiz-adv-x="663" 
d="M416 0h-247v392h-153v118h311v-174h99c129 0 205 -56 205 -167c0 -114 -80 -169 -215 -169zM327 100h66c55 0 80 21 80 65c0 45 -25 65 -80 65h-66v-130z" />
    <glyph glyph-name="afii10093" unicode="&#x44b;" horiz-adv-x="811" 
d="M592 0v510h158v-510h-158zM219 100h66c55 0 80 21 80 65c0 45 -25 65 -80 65h-66v-130zM308 0h-247v510h158v-174h99c129 0 205 -56 205 -168c0 -113 -80 -168 -215 -168z" />
    <glyph glyph-name="afii10094" unicode="&#x44c;" horiz-adv-x="555" 
d="M219 100h66c55 0 80 21 80 65c0 45 -25 65 -80 65h-66v-130zM308 0h-247v510h158v-174h99c129 0 205 -56 205 -168c0 -113 -80 -168 -215 -168z" />
    <glyph glyph-name="afii10095" unicode="&#x44d;" horiz-adv-x="449" 
d="M89 205v100h164c-13 69 -52 97 -102 97c-33 0 -62 -12 -90 -33l-30 115c39 22 91 38 150 38c140 0 237 -91 237 -261c0 -180 -108 -273 -259 -273c-63 0 -106 16 -138 35l30 116c31 -21 59 -36 96 -36c52 0 94 29 106 102h-164z" />
    <glyph glyph-name="afii10096" unicode="&#x44e;" horiz-adv-x="784" 
d="M521 -12c-112 0 -208 68 -225 216h-74v-204h-161v510h161v-189h77c23 137 117 201 226 201c125 0 227 -84 227 -265c0 -184 -105 -269 -231 -269zM591 252c0 113 -31 153 -68 153s-68 -40 -68 -153s31 -153 68 -153s68 40 68 153z" />
    <glyph glyph-name="afii10097" unicode="&#x44f;" horiz-adv-x="570" 
d="M274 510h234v-510h-158v179h-81l-86 -179h-158l110 207c-49 25 -76 67 -76 132c0 112 80 171 215 171zM297 277h53v128h-53c-56 0 -80 -20 -80 -64s24 -64 80 -64z" />
    <glyph glyph-name="uni0450" unicode="&#x450;" horiz-adv-x="546" 
d="M284 412c-49 0 -84 -36 -90 -111h168c0 80 -33 111 -78 111zM506 208h-310c12 -82 59 -106 120 -106c47 0 94 14 150 38l30 -109c-54 -25 -130 -43 -203 -43c-160 0 -262 87 -262 259c0 180 111 275 257 275c134 0 222 -81 222 -252c0 -18 -1 -42 -4 -62zM380 553h-124
l-144 167h175z" />
    <glyph glyph-name="afii10071" unicode="&#x451;" horiz-adv-x="546" 
d="M284 412c-49 0 -84 -36 -90 -111h168c0 80 -33 111 -78 111zM506 208h-310c12 -82 59 -106 120 -106c47 0 94 14 150 38l30 -109c-54 -25 -130 -43 -203 -43c-160 0 -262 87 -262 259c0 180 111 275 257 275c134 0 222 -81 222 -252c0 -18 -1 -42 -4 -62zM246 629
c0 -42 -32 -74 -76 -74s-76 32 -76 74s32 74 76 74s76 -32 76 -74zM460 629c0 -42 -32 -74 -76 -74s-76 32 -76 74s32 74 76 74s76 -32 76 -74z" />
    <glyph glyph-name="afii10099" unicode="&#x452;" horiz-adv-x="629" 
d="M10 547v103h88v70h161v-70h160v-103h-160v-139c43 45 101 82 180 82c77 0 134 -36 134 -142v-352c0 -121 -53 -174 -185 -174c-18 0 -40 1 -59 4v116c13 -3 24 -4 33 -4c40 0 50 19 50 58v302c0 44 -18 57 -47 57c-37 0 -72 -20 -106 -52v-303h-161v547h-88z" />
    <glyph glyph-name="afii10100" unicode="&#x453;" horiz-adv-x="427" 
d="M265 553h-124l93 167h175zM61 510h352v-118h-191v-392h-161v510z" />
    <glyph glyph-name="afii10101" unicode="&#x454;" horiz-adv-x="449" 
d="M424 487l-30 -120c-30 19 -58 35 -95 35c-50 0 -90 -28 -103 -97h164v-100h-165c12 -73 53 -102 108 -102c35 0 65 12 94 33l31 -110c-40 -23 -93 -38 -153 -38c-145 0 -244 88 -244 260c0 178 106 274 257 274c62 0 104 -16 136 -35z" />
    <glyph glyph-name="afii10102" unicode="&#x455;" horiz-adv-x="469" 
d="M422 481l-30 -122c-40 25 -90 44 -131 44c-37 0 -55 -16 -55 -39c0 -75 232 -18 232 -199c0 -111 -87 -177 -221 -177c-67 0 -134 16 -186 42l30 118c49 -26 103 -46 152 -46c47 0 70 20 70 47c0 79 -232 26 -232 203c0 105 82 170 207 170c62 0 119 -17 164 -41z" />
    <glyph glyph-name="afii10103" unicode="&#x456;" horiz-adv-x="295" 
d="M238 652c0 -49 -35 -84 -90 -84s-91 35 -91 84s36 84 91 84s90 -35 90 -84zM67 0v510h161v-510h-161z" />
    <glyph glyph-name="afii10104" unicode="&#x457;" horiz-adv-x="295" 
d="M117 629c0 -42 -32 -74 -76 -74s-76 32 -76 74s32 74 76 74s76 -32 76 -74zM331 629c0 -42 -32 -74 -76 -74s-76 32 -76 74s32 74 76 74s76 -32 76 -74zM67 0v510h161v-510h-161z" />
    <glyph glyph-name="afii10105" unicode="&#x458;" horiz-adv-x="295" 
d="M228 510v-552c0 -121 -53 -174 -185 -174c-18 0 -40 1 -59 4v116c13 -3 24 -4 33 -4c40 0 50 19 50 58v552h161zM238 652c0 -49 -35 -84 -90 -84s-91 35 -91 84s36 84 91 84s90 -35 90 -84z" />
    <glyph glyph-name="afii10106" unicode="&#x459;" horiz-adv-x="846" 
d="M599 0h-247v392h-90c-11 -312 -57 -398 -218 -398c-17 0 -32 1 -44 2v112c7 -1 16 -2 24 -2c80 0 89 111 98 404h388v-174h99c129 0 205 -56 205 -167c0 -114 -80 -169 -215 -169zM510 100h66c55 0 80 21 80 65c0 45 -25 65 -80 65h-66v-130z" />
    <glyph glyph-name="afii10107" unicode="&#x45a;" horiz-adv-x="843" 
d="M602 0h-253v209h-130v-209h-158v510h158v-184h130v184h158v-184h104c126 0 200 -54 200 -162c0 -112 -80 -164 -209 -164zM507 101h72c51 0 74 18 74 60s-23 60 -74 60h-72v-120z" />
    <glyph glyph-name="afii10108" unicode="&#x45b;" horiz-adv-x="622" 
d="M10 547v103h88v70h161v-70h160v-103h-160v-139c43 45 101 82 180 82c77 0 134 -36 134 -142v-348h-161v298c0 44 -18 57 -47 57c-37 0 -72 -20 -106 -52v-303h-161v547h-88z" />
    <glyph glyph-name="afii10109" unicode="&#x45c;" horiz-adv-x="561" 
d="M315 553h-124l93 167h175zM224 204h-2v-204h-161v510h161v-204h5c45 0 55 13 70 43l24 48c41 82 74 119 195 119v-116c-44 0 -56 -13 -70 -43l-23 -48c-11 -23 -30 -41 -70 -53c58 -15 83 -44 106 -87l87 -169h-166l-71 142c-22 44 -37 62 -85 62z" />
    <glyph glyph-name="uni045D" unicode="&#x45d;" horiz-adv-x="595" 
d="M393 553h-124l-144 167h175zM533 510v-510h-148v289l-183 -289h-141v510h148v-289l183 289h141z" />
    <glyph glyph-name="afii10110" unicode="&#x45e;" horiz-adv-x="508" 
d="M30 -212v126c16 -3 34 -5 54 -5c53 0 82 18 111 103h-42l-154 498h163l94 -358l97 358h157l-160 -498c-56 -175 -118 -228 -239 -228c-39 0 -66 1 -81 4zM254 634c55 0 75 38 75 86h105c0 -99 -51 -161 -180 -161s-181 62 -181 161h106c0 -48 20 -86 75 -86z" />
    <glyph glyph-name="afii10193" unicode="&#x45f;" horiz-adv-x="591" 
d="M222 510v-397h146v397h161v-510h-159v-130h-150v130h-159v510h161z" />
    <glyph glyph-name="afii10146" unicode="&#x462;" horiz-adv-x="734" 
d="M432 0h-267v519h-146v128h146v73h161v-73h178v-128h-178v-79h118c163 0 261 -74 261 -218c0 -150 -105 -222 -273 -222zM326 124h105c77 0 113 29 113 93s-36 93 -113 93h-105v-186z" />
    <glyph glyph-name="afii10194" unicode="&#x463;" horiz-adv-x="593" 
d="M345 0h-247v407h-88v103h88v210h158v-210h150v-103h-150v-71h99c129 0 205 -56 205 -168c0 -113 -80 -168 -215 -168zM256 100h66c55 0 80 21 80 65c0 45 -25 65 -80 65h-66v-130z" />
    <glyph glyph-name="afii10147" unicode="&#x472;" horiz-adv-x="723" 
d="M362 120c83 0 146 51 162 182c-25 -12 -53 -21 -82 -21c-57 0 -115 33 -164 33c-24 0 -50 -8 -77 -21c16 -124 81 -173 161 -173zM362 596c-81 0 -145 -50 -161 -174c24 12 50 20 79 20c57 0 115 -33 164 -33c24 0 51 8 78 21c-19 120 -83 166 -160 166zM686 362
c0 -244 -138 -374 -326 -374c-186 0 -322 128 -322 370c0 244 138 374 326 374c186 0 322 -128 322 -370z" />
    <glyph glyph-name="afii10195" unicode="&#x473;" horiz-adv-x="561" 
d="M281 101c46 0 85 29 95 109c-17 -9 -36 -15 -52 -15c-31 0 -63 22 -89 22c-16 0 -32 -8 -48 -19c12 -71 50 -97 94 -97zM281 405c-45 0 -82 -27 -94 -100c16 8 33 14 49 14c31 0 64 -22 89 -22c15 0 32 8 48 18c-14 65 -50 90 -92 90zM531 257
c0 -184 -114 -269 -252 -269c-136 0 -248 83 -248 265c0 184 114 269 252 269c136 0 248 -83 248 -265z" />
    <glyph glyph-name="afii10148" unicode="&#x474;" horiz-adv-x="682" 
d="M17 720h165l152 -511l100 350c33 116 75 167 248 167v-127c-70 0 -89 -19 -102 -62l-164 -537h-170z" />
    <glyph glyph-name="afii10196" unicode="&#x475;" horiz-adv-x="524" 
d="M254 187l47 172c30 108 67 157 224 157v-116c-55 0 -71 -19 -85 -63l-106 -337h-164l-171 510h163z" />
    <glyph glyph-name="afii10050" unicode="&#x490;" horiz-adv-x="547" 
d="M77 0v720h303v122h146v-258h-286v-584h-163z" />
    <glyph glyph-name="afii10098" unicode="&#x491;" horiz-adv-x="440" 
d="M61 510h225v122h138v-240h-202v-392h-161v510z" />
    <glyph glyph-name="uni0492" unicode="&#x492;" horiz-adv-x="557" 
d="M24 313v103h65v304h444v-136h-281v-168h162v-103h-162v-313h-163v313h-65z" />
    <glyph glyph-name="uni0493" unicode="&#x493;" horiz-adv-x="441" 
d="M73 510h352v-118h-191v-80h130v-103h-130v-209h-161v209h-66v103h66v198z" />
    <glyph glyph-name="uni0496" unicode="&#x496;" horiz-adv-x="1052" 
d="M887 -154v154h-49l-102 206c-33 66 -56 94 -126 94h-13v-300h-163v300h-19c-70 0 -93 -28 -126 -94l-102 -206h-173l119 233c34 67 68 111 139 133c-56 20 -83 53 -104 102l-30 69c-19 43 -36 62 -94 62v127c155 0 197 -52 247 -167l30 -69c19 -45 36 -62 99 -62h14v292
h163v-292h14c63 0 80 17 99 62l30 69c50 115 92 167 247 167v-127c-64 0 -81 -19 -100 -62l-30 -69c-20 -46 -45 -81 -104 -102c77 -22 111 -66 145 -133l56 -111h84v-276h-151z" />
    <glyph glyph-name="uni0497" unicode="&#x497;" horiz-adv-x="843" 
d="M331 0v204c-47 -1 -62 -19 -84 -62l-71 -142h-160l87 169c21 41 44 72 102 87c-40 12 -60 29 -72 53l-23 48c-14 30 -28 43 -64 43v116c121 0 154 -37 195 -119l24 -48c15 -30 24 -42 66 -43v204h161v-204c41 1 51 14 66 43l24 48c41 82 74 119 195 119v-116
c-44 0 -56 -13 -70 -43l-23 -48c-11 -23 -30 -41 -70 -53c58 -15 83 -44 106 -87l34 -66h74v-233h-150v130h-37l-71 142c-21 42 -36 60 -78 62v-204h-161z" />
    <glyph glyph-name="uni049A" unicode="&#x49a;" horiz-adv-x="706" 
d="M77 0v720h163v-292h23c63 0 80 17 99 62l30 69c50 115 92 167 247 167v-127c-64 0 -81 -19 -100 -62l-30 -69c-20 -46 -45 -81 -104 -102c77 -22 111 -66 145 -133l56 -111h86v-276h-151v154h-51l-102 206c-33 66 -56 94 -126 94h-22v-300h-163z" />
    <glyph glyph-name="uni049B" unicode="&#x49b;" horiz-adv-x="576" 
d="M61 0v510h161v-204h5c45 0 55 13 70 43l24 48c41 82 74 119 195 119v-116c-44 0 -56 -13 -70 -43l-23 -48c-11 -23 -30 -41 -70 -53c58 -15 83 -44 106 -87l34 -66h68v-233h-150v130h-31l-71 142c-22 44 -37 62 -85 62h-2v-204h-161z" />
    <glyph glyph-name="uni049C" unicode="&#x49c;" horiz-adv-x="734" 
d="M721 0h-174l-102 206c-24 48 -42 76 -79 88v-161h-86v167h-45v-300h-158v720h158v-292h45v147h86v-142c28 8 40 26 53 57l30 69c50 114 92 167 242 167v-127c-64 0 -81 -18 -100 -62l-30 -69c-20 -46 -45 -81 -104 -102c78 -21 110 -66 145 -133z" />
    <glyph glyph-name="uni049D" unicode="&#x49d;" horiz-adv-x="613" 
d="M61 0v510h156v-204h30v99h78v-92c13 6 20 18 29 36l24 48c41 82 74 119 190 119v-116c-44 0 -56 -13 -70 -43l-23 -48c-11 -23 -30 -41 -70 -53c58 -15 83 -44 106 -87l87 -169h-161l-71 142c-14 26 -24 43 -41 53v-103h-78v112h-30v-204h-156z" />
    <glyph glyph-name="uni04A2" unicode="&#x4a2;" horiz-adv-x="766" 
d="M77 0v720h163v-284h243v284h163v-598h84v-276h-152v154h-95v300h-243v-300h-163z" />
    <glyph glyph-name="uni04A3" unicode="&#x4a3;" horiz-adv-x="625" 
d="M366 0v204h-144v-204h-161v510h161v-189h144v189h161v-407h66v-233h-150v130h-77z" />
    <glyph glyph-name="uni04AE" unicode="&#x4ae;" horiz-adv-x="649" 
d="M243 0v290l-234 430h171l147 -279l148 279h165l-234 -430v-290h-163z" />
    <glyph glyph-name="uni04AF" unicode="&#x4af;" horiz-adv-x="508" 
d="M170 -210v210l-171 510h163l94 -330l96 330h157l-177 -510v-210h-162z" />
    <glyph glyph-name="uni04B0" unicode="&#x4b0;" horiz-adv-x="649" 
d="M108 187v103h135l-234 430h171l147 -279l148 279h165l-234 -430h135v-103h-135v-187h-163v187h-135z" />
    <glyph glyph-name="uni04B1" unicode="&#x4b1;" horiz-adv-x="508" 
d="M67 -78v102h103l-171 486h163l94 -330l96 330h157l-177 -486h103v-102h-103v-132h-162v132h-103z" />
    <glyph glyph-name="uni04B2" unicode="&#x4b2;" horiz-adv-x="688" 
d="M524 -154v154h-48l-136 259l-135 -259h-173l210 371l-201 349h178l128 -237l127 237h172l-201 -349l140 -249h91v-276h-152z" />
    <glyph glyph-name="uni04B3" unicode="&#x4b3;" horiz-adv-x="542" 
d="M11 0l155 265l-143 245h165l75 -149l75 149h159l-143 -245l94 -162h82v-233h-150v130h-36l-87 169l-87 -169h-159z" />
    <glyph glyph-name="uni04B6" unicode="&#x4b6;" horiz-adv-x="713" 
d="M201 720v-219c0 -84 43 -108 117 -108c34 0 71 5 118 20v307h163v-598h78v-276h-152v154h-89v292c-55 -18 -113 -27 -169 -27c-133 0 -229 50 -229 212v243h163z" />
    <glyph glyph-name="uni04B7" unicode="&#x4b7;" horiz-adv-x="597" 
d="M31 510h161v-155c0 -60 29 -75 73 -75c19 0 42 3 73 12v218h161v-407h66v-233h-150v130h-77v190c-43 -13 -87 -20 -131 -20c-103 0 -176 38 -176 160v180z" />
    <glyph glyph-name="uni04B8" unicode="&#x4b8;" horiz-adv-x="696" 
d="M195 720v-219c0 -71 33 -99 90 -107v146h86v-146c25 2 56 8 91 18v308h157v-720h-157v292c-31 -9 -61 -16 -91 -21v-173h-86v167h-9c-140 0 -238 51 -238 212v243h157z" />
    <glyph glyph-name="uni04B9" unicode="&#x4b9;" horiz-adv-x="581" 
d="M236 61v109h-19c-109 0 -186 39 -186 163v177h156v-155c0 -45 18 -66 49 -74v93h78v-95c15 3 30 6 49 11v220h156v-510h-156v190c-15 -5 -32 -9 -49 -12v-117h-78z" />
    <glyph glyph-name="uni04BA" unicode="&#x4ba;" horiz-adv-x="676" 
d="M475 0v222c0 84 -43 108 -117 108c-34 0 -71 -5 -118 -20v-310h-163v720h163v-284c55 18 113 27 169 27c133 0 229 -50 229 -212v-251h-163z" />
    <glyph glyph-name="uni04BB" unicode="&#x4bb;" horiz-adv-x="560" 
d="M529 0h-161v146c0 60 -29 75 -73 75c-19 0 -42 -3 -73 -12v-209h-161v510h161v-194c43 13 87 20 131 20c103 0 176 -38 176 -160v-176z" />
    <glyph glyph-name="uni04C0" unicode="&#x4c0;" horiz-adv-x="328" 
d="M83 0v720h163v-720h-163z" />
    <glyph glyph-name="uni04CF" unicode="&#x4cf;" horiz-adv-x="295" 
d="M67 0v720h161v-720h-161z" />
    <glyph glyph-name="uni04D8" unicode="&#x4d8;" horiz-adv-x="700" 
d="M342 117c79 0 138 54 154 183h-295c11 -132 64 -183 141 -183zM307 596c-68 0 -133 -23 -194 -60l-40 132c66 38 159 64 251 64c204 0 338 -131 338 -374c0 -245 -135 -370 -321 -370c-184 0 -303 122 -303 372c0 25 0 43 3 60h454c-17 121 -82 176 -188 176z" />
    <glyph glyph-name="afii10846" unicode="&#x4d9;" horiz-adv-x="545" 
d="M269 93c48 0 81 33 87 117h-168c4 -88 35 -117 81 -117zM43 303h309c-12 76 -52 100 -112 100c-47 0 -90 -15 -145 -39l-30 114c51 26 126 44 196 44c159 0 257 -93 257 -266c0 -182 -108 -268 -249 -268c-136 0 -230 80 -230 252c0 25 2 44 4 63z" />
    <glyph glyph-name="uni04E2" unicode="&#x4e2;" horiz-adv-x="731" 
d="M653 720v-720h-156v451l-271 -451h-149v720h156v-451l271 451h149zM189 768v103h352v-103h-352z" />
    <glyph glyph-name="uni04E3" unicode="&#x4e3;" horiz-adv-x="595" 
d="M121 560v103h351v-103h-351zM533 510v-510h-148v289l-183 -289h-141v510h148v-289l183 289h141z" />
    <glyph glyph-name="uni04E8" unicode="&#x4e8;" horiz-adv-x="723" 
d="M361 120c73 0 145 40 161 178h-322c16 -138 87 -178 161 -178zM361 596c-72 0 -143 -39 -160 -170h320c-18 131 -88 170 -160 170zM686 362c0 -244 -138 -374 -326 -374c-186 0 -322 128 -322 370c0 244 138 374 326 374c186 0 322 -128 322 -370z" />
    <glyph glyph-name="uni04E9" unicode="&#x4e9;" horiz-adv-x="561" 
d="M281 101c46 0 84 29 95 107h-190c10 -78 49 -107 95 -107zM281 405c-45 0 -82 -27 -94 -100h188c-12 73 -50 100 -94 100zM531 257c0 -184 -114 -269 -252 -269c-136 0 -248 83 -248 265c0 184 114 269 252 269c136 0 248 -83 248 -265z" />
    <glyph glyph-name="uni04EE" unicode="&#x4ee;" horiz-adv-x="649" 
d="M221 239l-212 481h165l153 -355l154 355h159l-216 -481c-85 -188 -156 -245 -309 -245c-20 0 -56 1 -75 4v133c19 -3 43 -6 71 -6c76 0 112 23 154 114h-44zM148 768v103h352v-103h-352z" />
    <glyph glyph-name="uni04EF" unicode="&#x4ef;" horiz-adv-x="508" 
d="M30 -212v126c16 -3 34 -5 54 -5c53 0 82 18 111 103h-42l-154 498h163l94 -358l97 358h157l-160 -498c-56 -175 -118 -228 -239 -228c-39 0 -66 1 -81 4zM78 560v103h351v-103h-351z" />
    <glyph glyph-name="Wgrave" unicode="&#x1e80;" horiz-adv-x="959" 
d="M357 0h-159l-177 720h171l71 -316c13 -58 25 -131 31 -189h2c7 57 18 124 33 186l77 319h154l76 -318c17 -71 27 -132 34 -187h2c6 57 17 127 31 189l71 316h164l-180 -720h-159l-82 338c-16 66 -28 127 -37 186h-2c-11 -75 -27 -151 -36 -187zM576 762h-125l-144 147
h176z" />
    <glyph glyph-name="wgrave" unicode="&#x1e81;" horiz-adv-x="740" 
d="M448 0l-54 211c-10 40 -18 80 -23 118h-3c-5 -38 -11 -77 -22 -117l-57 -212h-152l-135 510h152l52 -209c10 -40 15 -75 21 -119h2c4 37 11 80 21 119l54 209h139l54 -209c11 -43 17 -83 21 -119h2c5 37 10 80 20 119l52 209h147l-139 -510h-152zM466 553h-124l-144 167
h175z" />
    <glyph glyph-name="Wacute" unicode="&#x1e82;" horiz-adv-x="959" 
d="M357 0h-159l-177 720h171l71 -316c13 -58 25 -131 31 -189h2c7 57 18 124 33 186l77 319h154l76 -318c17 -71 27 -132 34 -187h2c6 57 17 127 31 189l71 316h164l-180 -720h-159l-82 338c-16 66 -28 127 -37 186h-2c-11 -75 -27 -151 -36 -187zM500 762h-125l93 147h176z
" />
    <glyph glyph-name="wacute" unicode="&#x1e83;" horiz-adv-x="740" 
d="M448 0l-54 211c-10 40 -18 80 -23 118h-3c-5 -38 -11 -77 -22 -117l-57 -212h-152l-135 510h152l52 -209c10 -40 15 -75 21 -119h2c4 37 11 80 21 119l54 209h139l54 -209c11 -43 17 -83 21 -119h2c5 37 10 80 20 119l52 209h147l-139 -510h-152zM397 553h-124l93 167
h175z" />
    <glyph glyph-name="Wdieresis" unicode="&#x1e84;" horiz-adv-x="959" 
d="M357 0h-159l-177 720h171l71 -316c13 -58 25 -131 31 -189h2c7 57 18 124 33 186l77 319h154l76 -318c17 -71 27 -132 34 -187h2c6 57 17 127 31 189l71 316h164l-180 -720h-159l-82 338c-16 66 -28 127 -37 186h-2c-11 -75 -27 -151 -36 -187zM448 837
c0 -42 -32 -74 -76 -74s-76 32 -76 74s32 74 76 74s76 -32 76 -74zM662 837c0 -42 -32 -74 -76 -74s-76 32 -76 74s32 74 76 74s76 -32 76 -74z" />
    <glyph glyph-name="wdieresis" unicode="&#x1e85;" horiz-adv-x="740" 
d="M448 0l-54 211c-10 40 -18 80 -23 118h-3c-5 -38 -11 -77 -22 -117l-57 -212h-152l-135 510h152l52 -209c10 -40 15 -75 21 -119h2c4 37 11 80 21 119l54 209h139l54 -209c11 -43 17 -83 21 -119h2c5 37 10 80 20 119l52 209h147l-139 -510h-152zM339 629
c0 -42 -32 -74 -76 -74s-76 32 -76 74s32 74 76 74s76 -32 76 -74zM553 629c0 -42 -32 -74 -76 -74s-76 32 -76 74s32 74 76 74s76 -32 76 -74z" />
    <glyph glyph-name="uni1E8A" unicode="&#x1e8a;" horiz-adv-x="688" 
d="M32 0l210 371l-201 349h178l128 -237l127 237h172l-201 -349l210 -371h-179l-136 259l-135 -259h-173zM435 842c0 -49 -36 -84 -91 -84s-91 35 -91 84s36 84 91 84s91 -35 91 -84z" />
    <glyph glyph-name="uni1E8B" unicode="&#x1e8b;" horiz-adv-x="521" 
d="M11 0l155 265l-143 245h165l75 -149l75 149h159l-143 -245l155 -265h-165l-87 169l-87 -169h-159zM351 636c0 -49 -36 -84 -91 -84s-91 35 -91 84s36 84 91 84s91 -35 91 -84z" />
    <glyph glyph-name="uni1E9E" unicode="&#x1e9e;" horiz-adv-x="1148" 
d="M602 45l38 133c63 -34 127 -60 192 -60c73 0 115 33 115 82c0 138 -326 63 -326 306c0 139 106 226 261 226c78 0 150 -22 207 -56l-38 -140c-51 34 -111 60 -168 60c-62 0 -99 -31 -99 -75c0 -128 326 -52 326 -300c0 -144 -111 -233 -276 -233c-78 0 -164 20 -232 57z
M38 45l38 133c63 -34 127 -60 192 -60c73 0 115 33 115 82c0 138 -326 63 -326 306c0 139 106 226 261 226c78 0 150 -22 207 -56l-38 -140c-51 34 -111 60 -168 60c-62 0 -99 -31 -99 -75c0 -128 326 -52 326 -300c0 -144 -111 -233 -276 -233c-78 0 -164 20 -232 57z" />
    <glyph glyph-name="Ygrave" unicode="&#x1ef2;" horiz-adv-x="649" 
d="M243 0v290l-234 430h171l147 -279l148 279h165l-234 -430v-290h-163zM421 762h-125l-144 147h176z" />
    <glyph glyph-name="ygrave" unicode="&#x1ef3;" horiz-adv-x="508" 
d="M30 -212v126c16 -3 34 -5 54 -5c53 0 82 18 111 103h-42l-154 498h163l94 -358l97 358h157l-160 -498c-56 -175 -118 -228 -239 -228c-39 0 -66 1 -81 4zM350 553h-124l-144 167h175z" />
    <glyph glyph-name="uni2007" unicode="&#x2007;" horiz-adv-x="645" 
 />
    <glyph glyph-name="uni2008" unicode="&#x2008;" horiz-adv-x="301" 
 />
    <glyph glyph-name="uni200B" unicode="&#x200b;" horiz-adv-x="0" 
 />
    <glyph glyph-name="endash" unicode="&#x2013;" horiz-adv-x="500" 
d="M40 245v133h420v-133h-420z" />
    <glyph glyph-name="emdash" unicode="&#x2014;" 
d="M40 245v133h920v-133h-920z" />
    <glyph glyph-name="afii00208" unicode="&#x2015;" 
d="M40 245v133h920v-133h-920z" />
    <glyph glyph-name="quoteleft" unicode="&#x2018;" horiz-adv-x="286" 
d="M192 732l69 -64c-66 -40 -96 -78 -109 -116c50 -4 82 -39 82 -85c0 -49 -36 -87 -92 -87c-64 0 -108 49 -108 129c0 75 38 152 158 223z" />
    <glyph glyph-name="quoteright" unicode="&#x2019;" horiz-adv-x="286" 
d="M25 444c66 40 96 78 109 116c-50 4 -82 39 -82 85c0 49 36 87 92 87c64 0 108 -49 108 -129c0 -75 -38 -152 -158 -223z" />
    <glyph glyph-name="quotesinglbase" unicode="&#x201a;" horiz-adv-x="286" 
d="M25 -116c66 40 96 78 109 116c-50 4 -82 39 -82 85c0 49 36 87 92 87c64 0 108 -49 108 -129c0 -75 -38 -152 -158 -223z" />
    <glyph glyph-name="quotedblleft" unicode="&#x201c;" horiz-adv-x="522" 
d="M192 732l69 -64c-66 -40 -96 -78 -109 -116c50 -4 82 -39 82 -85c0 -49 -36 -87 -92 -87c-64 0 -108 49 -108 129c0 75 38 152 158 223zM428 732l69 -64c-66 -40 -96 -78 -109 -116c50 -4 82 -39 82 -85c0 -49 -36 -87 -92 -87c-64 0 -108 49 -108 129
c0 75 38 152 158 223z" />
    <glyph glyph-name="quotedblright" unicode="&#x201d;" horiz-adv-x="522" 
d="M25 444c66 40 96 78 109 116c-50 4 -82 39 -82 85c0 49 36 87 92 87c64 0 108 -49 108 -129c0 -75 -38 -152 -158 -223zM261 444c66 40 96 78 109 116c-50 4 -82 39 -82 85c0 49 36 87 92 87c64 0 108 -49 108 -129c0 -75 -38 -152 -158 -223z" />
    <glyph glyph-name="quotedblbase" unicode="&#x201e;" horiz-adv-x="522" 
d="M25 -116c66 40 96 78 109 116c-50 4 -82 39 -82 85c0 49 36 87 92 87c64 0 108 -49 108 -129c0 -75 -38 -152 -158 -223zM261 -116c66 40 96 78 109 116c-50 4 -82 39 -82 85c0 49 36 87 92 87c64 0 108 -49 108 -129c0 -75 -38 -152 -158 -223z" />
    <glyph glyph-name="dagger" unicode="&#x2020;" horiz-adv-x="572" 
d="M208 -83l21 466l-165 -15v135l161 -15l-17 192h156l-17 -192l161 15v-135l-165 15l21 -466h-156z" />
    <glyph glyph-name="daggerdbl" unicode="&#x2021;" horiz-adv-x="572" 
d="M364 680l-17 -172l161 15v-135l-165 15v-209l165 15v-135l-161 15l17 -172h-156l17 172l-161 -15v135l165 -15v209l-165 -15v135l161 -15l-17 172h156z" />
    <glyph glyph-name="bullet" unicode="&#x2022;" horiz-adv-x="462" 
d="M367 351c0 -78 -58 -135 -136 -135s-136 57 -136 135s58 135 136 135s136 -57 136 -135z" />
    <glyph glyph-name="onedotenleader" unicode="&#x2024;" horiz-adv-x="301" 
d="M150 -12c-56 0 -96 40 -96 92s40 92 96 92s96 -40 96 -92s-40 -92 -96 -92z" />
    <glyph glyph-name="twodotenleader" unicode="&#x2025;" horiz-adv-x="551" 
d="M150 -12c-56 0 -96 40 -96 92s40 92 96 92s96 -40 96 -92s-40 -92 -96 -92zM400 -12c-56 0 -96 40 -96 92s40 92 96 92s96 -40 96 -92s-40 -92 -96 -92z" />
    <glyph glyph-name="ellipsis" unicode="&#x2026;" horiz-adv-x="801" 
d="M150 -12c-56 0 -96 40 -96 92s40 92 96 92s96 -40 96 -92s-40 -92 -96 -92zM400 -12c-56 0 -96 40 -96 92s40 92 96 92s96 -40 96 -92s-40 -92 -96 -92zM650 -12c-56 0 -96 40 -96 92s40 92 96 92s96 -40 96 -92s-40 -92 -96 -92z" />
    <glyph glyph-name="perthousand" unicode="&#x2030;" horiz-adv-x="1187" 
d="M1144 165c0 -96 -63 -171 -168 -171c-103 0 -166 73 -166 169s63 171 168 171c103 0 166 -73 166 -169zM1027 163c0 54 -16 84 -50 84s-50 -30 -50 -84s16 -84 50 -84s50 30 50 84zM377 557c0 -96 -63 -171 -168 -171c-103 0 -166 73 -166 169s63 171 168 171
c103 0 166 -73 166 -169zM260 555c0 54 -16 84 -50 84s-50 -30 -50 -84s16 -84 50 -84s50 30 50 84zM120 0l447 720h136l-447 -720h-136zM780 165c0 -96 -63 -171 -168 -171c-103 0 -166 73 -166 169s63 171 168 171c103 0 166 -73 166 -169zM663 163c0 54 -16 84 -50 84
s-50 -30 -50 -84s16 -84 50 -84s50 30 50 84z" />
    <glyph glyph-name="minute" unicode="&#x2032;" horiz-adv-x="213" 
d="M33 432l21 288h128l-39 -288h-110z" />
    <glyph glyph-name="second" unicode="&#x2033;" horiz-adv-x="405" 
d="M225 432l21 288h128l-39 -288h-110zM33 432l21 288h128l-39 -288h-110z" />
    <glyph glyph-name="guilsinglleft" unicode="&#x2039;" horiz-adv-x="340" 
d="M164 24l-138 231l138 231h145l-132 -231l132 -231h-145z" />
    <glyph glyph-name="guilsinglright" unicode="&#x203a;" horiz-adv-x="340" 
d="M314 255l-138 -231h-145l132 231l-132 231h145z" />
    <glyph glyph-name="exclamdbl" unicode="&#x203c;" horiz-adv-x="589" 
d="M260 74c0 -49 -38 -86 -92 -86s-92 37 -92 86s38 86 92 86s92 -37 92 -86zM105 224l-29 496h185l-29 -496h-127zM512 74c0 -49 -38 -86 -92 -86s-92 37 -92 86s38 86 92 86s92 -37 92 -86zM357 224l-29 496h185l-29 -496h-127z" />
    <glyph glyph-name="fraction" unicode="&#x2044;" horiz-adv-x="112" 
d="M-188 0l454 720h129l-454 -720h-129z" />
    <glyph glyph-name="uni2070" unicode="&#x2070;" horiz-adv-x="408" 
d="M134 601c0 -107 29 -143 70 -143s70 36 70 143s-29 143 -70 143s-70 -36 -70 -143zM382 604c0 -153 -76 -232 -179 -232s-177 79 -177 230c0 153 76 232 179 232s177 -79 177 -230z" />
    <glyph glyph-name="uni2071" unicode="&#x2071;" horiz-adv-x="204" 
d="M161 784c0 -32 -23 -56 -59 -56s-59 24 -59 56s23 56 59 56s59 -24 59 -56zM48 380v316h108v-316h-108z" />
    <glyph glyph-name="uni2074" unicode="&#x2074;" horiz-adv-x="401" 
d="M15 464v82l194 280h119v-276h64v-86h-64v-84h-105v84h-208zM120 550h103v150z" />
    <glyph glyph-name="uni2075" unicode="&#x2075;" horiz-adv-x="348" 
d="M224 522c0 44 -32 63 -91 63c-24 0 -61 -3 -105 -15l9 256h276v-90h-174l-3 -71c14 1 25 2 38 2c96 0 159 -54 159 -144c0 -97 -73 -151 -184 -151c-52 0 -101 12 -139 29l25 90c36 -17 69 -32 111 -32c51 0 78 22 78 63z" />
    <glyph glyph-name="uni2076" unicode="&#x2076;" horiz-adv-x="381" 
d="M226 834c42 0 82 -10 113 -27l-25 -91c-29 15 -57 27 -90 27c-47 0 -81 -26 -90 -102c32 31 64 39 94 39c82 0 133 -59 133 -147c0 -106 -74 -161 -159 -161c-101 0 -176 78 -176 228c0 155 81 234 200 234zM198 595c-22 0 -40 -9 -65 -29c5 -84 35 -110 69 -110
c33 0 56 24 56 69s-23 70 -60 70z" />
    <glyph glyph-name="uni2077" unicode="&#x2077;" horiz-adv-x="312" 
d="M157 380h-119c48 133 94 245 147 353h-179v93h301v-88c-55 -108 -102 -222 -150 -358z" />
    <glyph glyph-name="uni2078" unicode="&#x2078;" horiz-adv-x="374" 
d="M14 499c0 59 38 86 84 106c-38 20 -65 51 -65 101c0 77 63 128 158 128c92 0 150 -47 150 -117c0 -48 -28 -78 -69 -99c46 -18 89 -47 89 -111c0 -84 -72 -135 -178 -135c-104 0 -169 49 -169 127zM138 711c0 -28 20 -43 55 -58c27 16 43 31 43 57c0 28 -19 45 -49 45
c-29 0 -49 -16 -49 -44zM252 500c0 36 -31 51 -75 70c-35 -18 -54 -36 -54 -68c0 -35 24 -55 63 -55c40 0 66 20 66 53z" />
    <glyph glyph-name="uni2079" unicode="&#x2079;" horiz-adv-x="381" 
d="M155 372c-42 0 -82 10 -113 27l25 87c29 -15 58 -27 89 -27c46 0 83 27 91 106c-33 -32 -65 -39 -94 -39c-82 0 -133 58 -133 146c0 107 74 162 159 162c101 0 176 -78 176 -228c0 -155 -81 -234 -200 -234zM182 607c21 0 39 8 66 29c-7 83 -35 110 -70 110
c-32 0 -55 -24 -55 -69c0 -44 23 -70 59 -70z" />
    <glyph glyph-name="uni207A" unicode="&#x207a;" horiz-adv-x="364" 
d="M258 380h-86v116h-108v84h108v116h86v-116h108v-84h-108v-116z" />
    <glyph glyph-name="uni207B" unicode="&#x207b;" horiz-adv-x="364" 
d="M333 580v-84h-302v84h302z" />
    <glyph glyph-name="uni207C" unicode="&#x207c;" horiz-adv-x="364" 
d="M333 512v-75h-302v75h302zM333 638v-75h-302v75h302z" />
    <glyph glyph-name="uni207D" unicode="&#x207d;" horiz-adv-x="237" 
d="M128 554c0 -115 44 -186 96 -238l-55 -50c-63 53 -148 138 -148 288s85 235 148 288l55 -50c-52 -52 -96 -123 -96 -238z" />
    <glyph glyph-name="uni207E" unicode="&#x207e;" horiz-adv-x="237" 
d="M110 554c0 115 -44 186 -96 238l55 50c63 -53 148 -138 148 -288s-85 -235 -148 -288l-55 50c52 52 96 123 96 238z" />
    <glyph glyph-name="uni207F" unicode="&#x207f;" horiz-adv-x="368" 
d="M40 380v316h107v-36c28 27 63 44 104 44c47 0 84 -22 84 -89v-235h-107v201c0 24 -9 32 -27 32c-19 0 -37 -9 -54 -24v-209h-107z" />
    <glyph glyph-name="uni2080" unicode="&#x2080;" horiz-adv-x="408" 
d="M134 115c0 -107 29 -143 70 -143s70 36 70 143s-29 143 -70 143s-70 -36 -70 -143zM382 118c0 -153 -76 -232 -179 -232s-177 79 -177 230c0 153 76 232 179 232s177 -79 177 -230z" />
    <glyph glyph-name="uni2081" unicode="&#x2081;" horiz-adv-x="260" 
d="M42 198l-29 87l107 55h86v-446h-108v333z" />
    <glyph glyph-name="uni2082" unicode="&#x2082;" horiz-adv-x="360" 
d="M213 202c0 31 -20 52 -56 52c-40 0 -75 -25 -106 -57l-30 89c33 35 86 62 151 62c91 0 149 -54 149 -136c0 -79 -53 -150 -148 -231h160v-87h-312v77c146 119 192 184 192 231z" />
    <glyph glyph-name="uni2083" unicode="&#x2083;" horiz-adv-x="353" 
d="M169 348c87 0 151 -40 151 -115c0 -51 -29 -88 -81 -109c65 -17 92 -57 92 -107c0 -82 -73 -131 -183 -131c-54 0 -101 12 -140 29l25 89c35 -19 69 -32 111 -32c48 0 74 17 74 52s-27 53 -94 53c-16 0 -30 -1 -49 -2v79c104 0 137 21 137 59c0 30 -21 45 -57 45
c-33 0 -67 -12 -106 -35l-24 87c43 23 90 38 144 38z" />
    <glyph glyph-name="uni2084" unicode="&#x2084;" horiz-adv-x="401" 
d="M15 -22v82l194 280h119v-276h64v-86h-64v-84h-105v84h-208zM120 64h103v150z" />
    <glyph glyph-name="uni2085" unicode="&#x2085;" horiz-adv-x="348" 
d="M224 36c0 44 -32 63 -91 63c-24 0 -61 -3 -105 -15l9 256h276v-90h-174l-3 -71c14 1 25 2 38 2c96 0 159 -54 159 -144c0 -97 -73 -151 -184 -151c-52 0 -101 12 -139 29l25 90c36 -17 69 -32 111 -32c51 0 78 22 78 63z" />
    <glyph glyph-name="uni2086" unicode="&#x2086;" horiz-adv-x="381" 
d="M226 348c42 0 82 -10 113 -27l-25 -91c-29 15 -57 27 -90 27c-47 0 -81 -26 -90 -102c32 31 64 39 94 39c82 0 133 -59 133 -147c0 -106 -74 -161 -159 -161c-101 0 -176 78 -176 228c0 155 81 234 200 234zM198 109c-22 0 -40 -9 -65 -29c5 -84 35 -110 69 -110
c33 0 56 24 56 69s-23 70 -60 70z" />
    <glyph glyph-name="uni2087" unicode="&#x2087;" horiz-adv-x="312" 
d="M157 -106h-119c48 133 94 245 147 353h-179v93h301v-88c-55 -108 -102 -222 -150 -358z" />
    <glyph glyph-name="uni2088" unicode="&#x2088;" horiz-adv-x="374" 
d="M14 13c0 59 38 86 84 106c-38 20 -65 51 -65 101c0 77 63 128 158 128c92 0 150 -47 150 -117c0 -48 -28 -78 -69 -99c46 -18 89 -47 89 -111c0 -84 -72 -135 -178 -135c-104 0 -169 49 -169 127zM138 225c0 -28 20 -43 55 -58c27 16 43 31 43 57c0 28 -19 45 -49 45
c-29 0 -49 -16 -49 -44zM252 14c0 36 -31 51 -75 70c-35 -18 -54 -36 -54 -68c0 -35 24 -55 63 -55c40 0 66 20 66 53z" />
    <glyph glyph-name="uni2089" unicode="&#x2089;" horiz-adv-x="381" 
d="M155 -114c-42 0 -82 10 -113 27l25 87c29 -15 58 -27 89 -27c46 0 83 27 91 106c-33 -32 -65 -39 -94 -39c-82 0 -133 58 -133 146c0 107 74 162 159 162c101 0 176 -78 176 -228c0 -155 -81 -234 -200 -234zM182 121c21 0 39 8 66 29c-7 83 -35 110 -70 110
c-32 0 -55 -24 -55 -69c0 -44 23 -70 59 -70z" />
    <glyph glyph-name="uni208A" unicode="&#x208a;" horiz-adv-x="364" 
d="M258 -106h-86v116h-108v84h108v116h86v-116h108v-84h-108v-116z" />
    <glyph glyph-name="uni208B" unicode="&#x208b;" horiz-adv-x="364" 
d="M333 94v-84h-302v84h302z" />
    <glyph glyph-name="uni208C" unicode="&#x208c;" horiz-adv-x="364" 
d="M333 26v-75h-302v75h302zM333 152v-75h-302v75h302z" />
    <glyph glyph-name="uni208D" unicode="&#x208d;" horiz-adv-x="237" 
d="M128 68c0 -115 44 -186 96 -238l-55 -50c-63 53 -148 138 -148 288s85 235 148 288l55 -50c-52 -52 -96 -123 -96 -238z" />
    <glyph glyph-name="uni208E" unicode="&#x208e;" horiz-adv-x="237" 
d="M110 68c0 115 -44 186 -96 238l55 50c63 -53 148 -138 148 -288s-85 -235 -148 -288l-55 50c52 52 96 123 96 238z" />
    <glyph glyph-name="Euro" unicode="&#x20ac;" horiz-adv-x="623" 
d="M19 231v97h92v24c0 11 0 22 1 33h-93v97h106c37 164 149 250 296 250c75 0 126 -22 165 -49l-37 -133c-44 31 -80 52 -128 52c-64 0 -115 -36 -139 -120h185v-97h-200v-57h200v-97h-185c24 -85 76 -120 143 -120c49 0 89 19 128 49l37 -120c-48 -30 -112 -52 -185 -52
c-144 0 -249 83 -283 243h-103z" />
    <glyph glyph-name="uni20B1" unicode="&#x20b1;" horiz-adv-x="644" 
d="M-2 430v97h82v193h243c153 0 248 -64 267 -193h62v-97h-63c-21 -125 -122 -187 -279 -187h-69v-243h-161v430h-82zM241 602v-75h188c-13 50 -51 75 -116 75h-72zM241 356h72c64 0 102 25 115 74h-187v-74z" />
    <glyph glyph-name="uni20B4" unicode="&#x20b4;" horiz-adv-x="616" 
d="M20 386v96h360c9 12 14 26 14 43c0 50 -42 77 -100 77c-56 0 -108 -25 -155 -56l-39 127c62 35 133 59 216 59c143 0 240 -72 240 -203c0 -17 -2 -33 -5 -47h45v-96h-108c-30 -26 -73 -43 -116 -58h224v-97h-370c-5 -10 -7 -21 -7 -33c0 -58 50 -87 120 -87
c64 0 121 24 178 56l37 -120c-67 -35 -145 -59 -237 -59c-155 0 -260 68 -260 209c0 12 1 23 2 34h-39v97h88c23 25 58 43 94 58h-182z" />
    <glyph glyph-name="afii61289" unicode="&#x2113;" horiz-adv-x="572" 
d="M10 312c36 0 69 2 100 5l40 227c21 119 92 188 201 188c106 0 182 -66 182 -189c0 -126 -79 -254 -285 -311l-2 -10c-3 -16 -4 -31 -4 -42c0 -58 30 -77 83 -77c39 0 70 10 105 28l11 -113c-36 -18 -81 -30 -145 -30c-117 0 -206 41 -206 184c0 9 0 20 1 34
c-31 -3 -65 -4 -100 -4zM300 530l-31 -175c103 46 139 120 139 188c0 54 -22 69 -45 69c-28 0 -52 -21 -63 -82z" />
    <glyph glyph-name="afii61352" unicode="&#x2116;" horiz-adv-x="1091" 
d="M1049 523c0 -96 -63 -171 -168 -171c-103 0 -166 73 -166 169s63 171 168 171c103 0 166 -73 166 -169zM932 521c0 54 -16 84 -50 84s-50 -30 -50 -84s16 -84 50 -84s50 30 50 84zM77 0v720h171l255 -419v419h150v-720h-136l-290 477v-477h-150z" />
    <glyph glyph-name="uni2117" unicode="&#x2117;" horiz-adv-x="838" 
d="M284 541h154c97 0 155 -41 155 -124s-61 -125 -163 -125h-33v-117h-113v366zM124 360c0 -173 129 -301 295 -301s295 128 295 301s-129 301 -295 301s-295 -128 -295 -301zM791 360c0 -213 -163 -372 -372 -372s-372 159 -372 372s163 372 372 372s372 -159 372 -372z
M397 372h31c35 0 52 14 52 42s-17 42 -52 42h-31v-84z" />
    <glyph glyph-name="uni2120" unicode="&#x2120;" horiz-adv-x="809" 
d="M25 399l20 79c31 -15 66 -28 95 -28c28 0 44 12 44 29c0 50 -148 23 -148 136c0 67 53 112 137 112c40 0 75 -10 106 -24l-20 -83c-28 16 -53 27 -80 27c-25 0 -39 -9 -39 -24c0 -49 148 -18 148 -134c0 -70 -54 -116 -145 -116c-43 0 -84 10 -118 26zM665 380l-8 151
c-2 35 -1 69 -1 84h-2c-2 -15 -11 -52 -18 -74l-50 -161h-90l-49 161c-7 23 -16 58 -18 74h-2c0 -15 1 -49 -1 -84l-8 -151h-96l33 340h129l44 -161c11 -40 12 -46 15 -66h2c3 22 8 41 15 64l50 163h126l30 -340h-101z" />
    <glyph glyph-name="trademark" unicode="&#x2122;" horiz-adv-x="799" 
d="M102 380v260h-90v80h285v-80h-90v-260h-105zM655 380l-8 151c-2 35 -1 69 -1 84h-2c-2 -15 -11 -52 -18 -74l-50 -161h-90l-49 161c-7 23 -16 58 -18 74h-2c0 -15 1 -49 -1 -84l-8 -151h-96l33 340h129l44 -161c11 -40 12 -46 15 -66h2c3 22 8 41 15 64l50 163h126
l30 -340h-101z" />
    <glyph glyph-name="Omega" unicode="&#x2126;" horiz-adv-x="723" 
d="M364 732c186 0 322 -126 322 -325c0 -112 -43 -210 -117 -276h147v-131h-304v111c71 88 111 166 111 277c0 148 -70 208 -161 208s-161 -60 -161 -208c0 -111 40 -189 111 -277v-111h-304v131h146c-76 68 -116 162 -116 271c0 202 138 330 326 330z" />
    <glyph glyph-name="estimated" unicode="&#x212e;" horiz-adv-x="736" 
d="M368 24c64 0 124 28 163 72h81c-56 -65 -144 -108 -244 -108c-168 0 -308 125 -308 277s140 277 308 277s308 -125 308 -277v-18h-435v-183c36 -25 80 -40 127 -40zM241 283h254v183c-36 25 -80 40 -127 40s-91 -15 -127 -40v-183z" />
    <glyph glyph-name="uni2150" unicode="&#x2150;" horiz-adv-x="857" 
d="M96 0l454 720h129l-454 -720h-129zM42 578l-29 87l107 55h86v-446h-108v333zM703 0h-119c48 133 94 245 147 353h-179v93h301v-88c-55 -108 -102 -222 -150 -358z" />
    <glyph glyph-name="uni2151" unicode="&#x2151;" horiz-adv-x="868" 
d="M96 0l454 720h129l-454 -720h-129zM641 -5c-42 0 -82 10 -113 27l25 87c29 -15 58 -27 89 -27c46 0 83 27 91 106c-33 -32 -65 -39 -94 -39c-82 0 -133 58 -133 146c0 107 74 162 159 162c101 0 176 -78 176 -228c0 -155 -81 -234 -200 -234zM668 230c21 0 39 8 66 29
c-7 83 -35 110 -70 110c-32 0 -55 -24 -55 -69c0 -44 23 -70 59 -70zM42 578l-29 87l107 55h86v-446h-108v333z" />
    <glyph glyph-name="uni2152" unicode="&#x2152;" horiz-adv-x="1149" 
d="M96 0l454 720h129l-454 -720h-129zM42 578l-29 87l107 55h86v-446h-108v333zM551 304l-29 87l107 55h86v-446h-108v333zM876 221c0 -107 29 -143 70 -143s70 36 70 143s-29 143 -70 143s-70 -36 -70 -143zM1124 224c0 -153 -76 -232 -179 -232s-177 79 -177 230
c0 153 76 232 179 232s177 -79 177 -230z" />
    <glyph glyph-name="onethird" unicode="&#x2153;" horiz-adv-x="863" 
d="M95 0l454 720h129l-454 -720h-129zM679 454c87 0 151 -40 151 -115c0 -51 -29 -88 -81 -109c65 -17 92 -57 92 -107c0 -82 -73 -131 -183 -131c-54 0 -101 12 -140 29l25 89c35 -19 69 -32 111 -32c48 0 74 17 74 52s-27 53 -94 53c-16 0 -30 -1 -49 -2v79
c104 0 137 21 137 59c0 30 -21 45 -57 45c-33 0 -67 -12 -106 -35l-24 87c43 23 90 38 144 38zM42 578l-29 87l107 55h86v-446h-108v333z" />
    <glyph glyph-name="twothirds" unicode="&#x2154;" horiz-adv-x="990" 
d="M222 0l454 720h129l-454 -720h-129zM806 454c87 0 151 -40 151 -115c0 -51 -29 -88 -81 -109c65 -17 92 -57 92 -107c0 -82 -73 -131 -183 -131c-54 0 -101 12 -140 29l25 89c35 -19 69 -32 111 -32c48 0 74 17 74 52s-27 53 -94 53c-16 0 -30 -1 -49 -2v79
c104 0 137 21 137 59c0 30 -21 45 -57 45c-33 0 -67 -12 -106 -35l-24 87c43 23 90 38 144 38zM213 582c0 31 -20 52 -56 52c-40 0 -75 -25 -106 -57l-30 89c33 35 86 62 151 62c91 0 149 -54 149 -136c0 -79 -53 -150 -148 -231h160v-87h-312v77c146 119 192 184 192 231z
" />
    <glyph glyph-name="uni2155" unicode="&#x2155;" horiz-adv-x="869" 
d="M96 0l454 720h129l-454 -720h-129zM737 142c0 44 -32 63 -91 63c-24 0 -61 -3 -105 -15l9 256h276v-90h-174l-3 -71c14 1 25 2 38 2c96 0 159 -54 159 -144c0 -97 -73 -151 -184 -151c-52 0 -101 12 -139 29l25 90c36 -17 69 -32 111 -32c51 0 78 22 78 63zM42 578
l-29 87l107 55h86v-446h-108v333z" />
    <glyph glyph-name="uni2156" unicode="&#x2156;" horiz-adv-x="996" 
d="M223 0l454 720h129l-454 -720h-129zM213 582c0 31 -20 52 -56 52c-40 0 -75 -25 -106 -57l-30 89c33 35 86 62 151 62c91 0 149 -54 149 -136c0 -79 -53 -150 -148 -231h160v-87h-312v77c146 119 192 184 192 231zM864 142c0 44 -32 63 -91 63c-24 0 -61 -3 -105 -15
l9 256h276v-90h-174l-3 -71c14 1 25 2 38 2c96 0 159 -54 159 -144c0 -97 -73 -151 -184 -151c-52 0 -101 12 -139 29l25 90c36 -17 69 -32 111 -32c51 0 78 22 78 63z" />
    <glyph glyph-name="uni2157" unicode="&#x2157;" horiz-adv-x="940" 
d="M167 0l454 720h129l-454 -720h-129zM808 142c0 44 -32 63 -91 63c-24 0 -61 -3 -105 -15l9 256h276v-90h-174l-3 -71c14 1 25 2 38 2c96 0 159 -54 159 -144c0 -97 -73 -151 -184 -151c-52 0 -101 12 -139 29l25 90c36 -17 69 -32 111 -32c51 0 78 22 78 63zM169 728
c87 0 151 -40 151 -115c0 -51 -29 -88 -81 -109c65 -17 92 -57 92 -107c0 -82 -73 -131 -183 -131c-54 0 -101 12 -140 29l25 89c35 -19 69 -32 111 -32c48 0 74 17 74 52s-27 53 -94 53c-16 0 -30 -1 -49 -2v79c104 0 137 21 137 59c0 30 -21 45 -57 45
c-33 0 -67 -12 -106 -35l-24 87c43 23 90 38 144 38z" />
    <glyph glyph-name="uni2158" unicode="&#x2158;" horiz-adv-x="986" 
d="M212 0l454 720h129l-454 -720h-129zM15 358v82l194 280h119v-276h64v-86h-64v-84h-105v84h-208zM120 444h103v150zM854 142c0 44 -32 63 -91 63c-24 0 -61 -3 -105 -15l9 256h276v-90h-174l-3 -71c14 1 25 2 38 2c96 0 159 -54 159 -144c0 -97 -73 -151 -184 -151
c-52 0 -101 12 -139 29l25 90c36 -17 69 -32 111 -32c51 0 78 22 78 63z" />
    <glyph glyph-name="uni2159" unicode="&#x2159;" horiz-adv-x="824" 
d="M96 0l454 720h129l-454 -720h-129zM675 454c42 0 82 -10 113 -27l-25 -91c-29 15 -57 27 -90 27c-47 0 -81 -26 -90 -102c32 31 64 39 94 39c82 0 133 -59 133 -147c0 -106 -74 -161 -159 -161c-101 0 -176 78 -176 228c0 155 81 234 200 234zM647 215
c-22 0 -40 -9 -65 -29c5 -84 35 -110 69 -110c33 0 56 24 56 69s-23 70 -60 70zM42 578l-29 87l107 55h86v-446h-108v333z" />
    <glyph glyph-name="uni215A" unicode="&#x215a;" horiz-adv-x="878" 
d="M150 0l454 720h129l-454 -720h-129zM224 416c0 44 -32 63 -91 63c-24 0 -61 -3 -105 -15l9 256h276v-90h-174l-3 -71c14 1 25 2 38 2c96 0 159 -54 159 -144c0 -97 -73 -151 -184 -151c-52 0 -101 12 -139 29l25 90c36 -17 69 -32 111 -32c51 0 78 22 78 63zM729 454
c42 0 82 -10 113 -27l-25 -91c-29 15 -57 27 -90 27c-47 0 -81 -26 -90 -102c32 31 64 39 94 39c82 0 133 -59 133 -147c0 -106 -74 -161 -159 -161c-101 0 -176 78 -176 228c0 155 81 234 200 234zM701 215c-22 0 -40 -9 -65 -29c5 -84 35 -110 69 -110c33 0 56 24 56 69
s-23 70 -60 70z" />
    <glyph glyph-name="oneeighth" unicode="&#x215b;" horiz-adv-x="845" 
d="M95 0l454 720h129l-454 -720h-129zM484 119c0 59 38 86 84 106c-38 20 -65 51 -65 101c0 77 63 128 158 128c92 0 150 -47 150 -117c0 -48 -28 -78 -69 -99c46 -18 89 -47 89 -111c0 -84 -72 -135 -178 -135c-104 0 -169 49 -169 127zM608 331c0 -28 20 -43 55 -58
c27 16 43 31 43 57c0 28 -19 45 -49 45c-29 0 -49 -16 -49 -44zM722 120c0 36 -31 51 -75 70c-35 -18 -54 -36 -54 -68c0 -35 24 -55 63 -55c40 0 66 20 66 53zM42 578l-29 87l107 55h86v-446h-108v333z" />
    <glyph glyph-name="threeeighths" unicode="&#x215c;" horiz-adv-x="917" 
d="M166 0l454 720h129l-454 -720h-129zM556 119c0 59 38 86 84 106c-38 20 -65 51 -65 101c0 77 63 128 158 128c92 0 150 -47 150 -117c0 -48 -28 -78 -69 -99c46 -18 89 -47 89 -111c0 -84 -72 -135 -178 -135c-104 0 -169 49 -169 127zM680 331c0 -28 20 -43 55 -58
c27 16 43 31 43 57c0 28 -19 45 -49 45c-29 0 -49 -16 -49 -44zM794 120c0 36 -31 51 -75 70c-35 -18 -54 -36 -54 -68c0 -35 24 -55 63 -55c40 0 66 20 66 53zM169 728c87 0 151 -40 151 -115c0 -51 -29 -88 -81 -109c65 -17 92 -57 92 -107c0 -82 -73 -131 -183 -131
c-54 0 -101 12 -140 29l25 89c35 -19 69 -32 111 -32c48 0 74 17 74 52s-27 53 -94 53c-16 0 -30 -1 -49 -2v79c104 0 137 21 137 59c0 30 -21 45 -57 45c-33 0 -67 -12 -106 -35l-24 87c43 23 90 38 144 38z" />
    <glyph glyph-name="fiveeighths" unicode="&#x215d;" horiz-adv-x="899" 
d="M150 0l454 720h129l-454 -720h-129zM538 119c0 59 38 86 84 106c-38 20 -65 51 -65 101c0 77 63 128 158 128c92 0 150 -47 150 -117c0 -48 -28 -78 -69 -99c46 -18 89 -47 89 -111c0 -84 -72 -135 -178 -135c-104 0 -169 49 -169 127zM662 331c0 -28 20 -43 55 -58
c27 16 43 31 43 57c0 28 -19 45 -49 45c-29 0 -49 -16 -49 -44zM776 120c0 36 -31 51 -75 70c-35 -18 -54 -36 -54 -68c0 -35 24 -55 63 -55c40 0 66 20 66 53zM224 416c0 44 -32 63 -91 63c-24 0 -61 -3 -105 -15l9 256h276v-90h-174l-3 -71c14 1 25 2 38 2
c96 0 159 -54 159 -144c0 -97 -73 -151 -184 -151c-52 0 -101 12 -139 29l25 90c36 -17 69 -32 111 -32c51 0 78 22 78 63z" />
    <glyph glyph-name="seveneighths" unicode="&#x215e;" horiz-adv-x="788" 
d="M37 0l454 720h129l-454 -720h-129zM427 119c0 59 38 86 84 106c-38 20 -65 51 -65 101c0 77 63 128 158 128c92 0 150 -47 150 -117c0 -48 -28 -78 -69 -99c46 -18 89 -47 89 -111c0 -84 -72 -135 -178 -135c-104 0 -169 49 -169 127zM551 331c0 -28 20 -43 55 -58
c27 16 43 31 43 57c0 28 -19 45 -49 45c-29 0 -49 -16 -49 -44zM665 120c0 36 -31 51 -75 70c-35 -18 -54 -36 -54 -68c0 -35 24 -55 63 -55c40 0 66 20 66 53zM157 274h-119c48 133 94 245 147 353h-179v93h301v-88c-55 -108 -102 -222 -150 -358z" />
    <glyph glyph-name="uni215F" unicode="&#x215f;" horiz-adv-x="706" 
d="M96 0l454 720h129l-454 -720h-129zM42 578l-29 87l107 55h86v-446h-108v333z" />
    <glyph glyph-name="uni2189" unicode="&#x2189;" horiz-adv-x="963" 
d="M195 0l454 720h129l-454 -720h-129zM779 454c87 0 151 -40 151 -115c0 -51 -29 -88 -81 -109c65 -17 92 -57 92 -107c0 -82 -73 -131 -183 -131c-54 0 -101 12 -140 29l25 89c35 -19 69 -32 111 -32c48 0 74 17 74 52s-27 53 -94 53c-16 0 -30 -1 -49 -2v79
c104 0 137 21 137 59c0 30 -21 45 -57 45c-33 0 -67 -12 -106 -35l-24 87c43 23 90 38 144 38zM149 495c0 -107 29 -143 70 -143s70 36 70 143s-29 143 -70 143s-70 -36 -70 -143zM397 498c0 -153 -76 -232 -179 -232s-177 79 -177 230c0 153 76 232 179 232
s177 -79 177 -230z" />
    <glyph glyph-name="arrowleft" unicode="&#x2190;" 
d="M866 371v-124h-387c-57 0 -93 1 -116 4v-2c15 -12 40 -34 73 -68l91 -92l-87 -87l-306 307l306 307l87 -87l-91 -92c-39 -40 -58 -56 -73 -68v-2c23 3 59 4 116 4h387z" />
    <glyph glyph-name="arrowup" unicode="&#x2191;" 
d="M564 0h-128v387c0 57 1 93 4 116h-2c-12 -15 -32 -40 -66 -73l-92 -91l-87 87l307 306l307 -306l-87 -87l-92 91c-34 33 -54 58 -66 73h-2c3 -23 4 -59 4 -116v-387z" />
    <glyph glyph-name="arrowright" unicode="&#x2192;" 
d="M134 247v124h387c57 0 93 -1 116 -4v2c-15 12 -40 34 -73 68l-91 92l87 87l306 -307l-306 -307l-87 87l91 92c39 40 58 56 73 68v2c-23 -3 -59 -4 -116 -4h-387z" />
    <glyph glyph-name="arrowdown" unicode="&#x2193;" 
d="M436 720h128v-387c0 -57 -1 -93 -4 -116h2c12 15 32 40 66 73l92 91l87 -87l-307 -306l-307 306l87 87l92 -91c34 -33 54 -58 66 -73h2c-3 23 -4 59 -4 116v387z" />
    <glyph glyph-name="uni2196" unicode="&#x2196;" 
d="M749 164l-88 -88l-274 274c-40 40 -63 66 -77 85l-1 -2c2 -19 3 -52 3 -99v-129h-125v433h434v-124h-130c-47 0 -80 2 -99 4l-2 -1c19 -14 45 -39 85 -79z" />
    <glyph glyph-name="uni2197" unicode="&#x2197;" 
d="M285 76l-88 88l274 274c40 40 66 65 85 79l-2 1c-19 -2 -52 -4 -99 -4h-130v124h434v-433h-125v129c0 47 1 80 3 99l-1 2c-14 -19 -37 -45 -77 -85z" />
    <glyph glyph-name="uni2198" unicode="&#x2198;" 
d="M197 540l88 88l274 -274c40 -40 63 -66 77 -85l1 2c-2 19 -3 52 -3 99v129h125v-433h-434v124h130c47 0 80 -2 99 -4l2 1c-19 14 -45 39 -85 79z" />
    <glyph glyph-name="uni2199" unicode="&#x2199;" 
d="M661 628l88 -88l-274 -274c-40 -40 -66 -65 -85 -79l2 -1c19 2 52 4 99 4h130v-124h-434v433h125v-129c0 -47 -1 -80 -3 -99l1 -2c14 19 37 45 77 85z" />
    <glyph glyph-name="partialdiff" unicode="&#x2202;" horiz-adv-x="572" 
d="M282 611c-40 0 -87 -16 -127 -41l-11 119c42 26 98 43 161 43c147 0 252 -92 252 -313c0 -271 -157 -431 -325 -431c-112 0 -217 71 -217 226c0 170 126 268 252 268c40 0 84 -10 128 -42c-5 124 -45 171 -113 171zM251 103c65 0 121 80 139 214c-32 32 -61 46 -92 46
c-63 0 -122 -54 -122 -153c0 -76 35 -107 75 -107z" />
    <glyph glyph-name="emptyset" unicode="&#x2205;" horiz-adv-x="676" 
d="M201 -73l-94 54l45 75c-57 51 -92 122 -92 209c0 160 120 277 278 277c33 0 64 -5 92 -15l45 76l94 -54l-45 -75c57 -51 92 -122 92 -209c0 -160 -120 -277 -278 -277c-33 0 -64 5 -92 15zM170 265c0 -44 13 -81 39 -111l163 275c-11 2 -23 3 -34 3
c-97 0 -168 -71 -168 -167zM506 265c0 44 -13 81 -39 111l-163 -275c11 -2 23 -3 34 -3c97 0 168 71 168 167z" />
    <glyph glyph-name="Delta" unicode="&#x2206;" horiz-adv-x="695" 
d="M446 720l196 -608v-112h-588v112l200 608h192zM345 565l-125 -434h249z" />
    <glyph glyph-name="product" unicode="&#x220f;" horiz-adv-x="740" 
d="M77 -140v860h577v-860h-163v724h-251v-724h-163z" />
    <glyph glyph-name="summation" unicode="&#x2211;" horiz-adv-x="586" 
d="M31 -140v111l249 323l-229 310v116h504v-136h-290l211 -287l-236 -306h319v-131h-528z" />
    <glyph glyph-name="minus" unicode="&#x2212;" horiz-adv-x="572" 
d="M530 317v-124h-488v124h488z" />
    <glyph glyph-name="uni2215" unicode="&#x2215;" horiz-adv-x="572" 
d="M-5 0l454 720h129l-454 -720h-129z" />
    <glyph glyph-name="uni2219" unicode="&#x2219;" horiz-adv-x="572" 
d="M422 351c0 -78 -58 -135 -136 -135s-136 57 -136 135s58 135 136 135s136 -57 136 -135z" />
    <glyph glyph-name="radical" unicode="&#x221a;" horiz-adv-x="572" 
d="M173 -80l-183 510h163l104 -331l208 621h157l-288 -800h-161z" />
    <glyph glyph-name="infinity" unicode="&#x221e;" horiz-adv-x="800" 
d="M590 349c-35 0 -65 -30 -119 -90c58 -66 84 -98 120 -98c35 0 63 31 63 94s-28 94 -64 94zM210 161c35 0 65 30 119 90c-58 66 -84 98 -120 98c-35 0 -63 -31 -63 -94s28 -94 64 -94zM594 464c95 0 166 -73 166 -206c0 -134 -72 -212 -173 -212c-87 0 -131 58 -190 122
c-55 -58 -103 -122 -191 -122c-95 0 -166 73 -166 206c0 134 72 212 173 212c87 0 131 -58 190 -122c55 58 103 122 191 122z" />
    <glyph glyph-name="integral" unicode="&#x222b;" horiz-adv-x="423" 
d="M131 -24v559c0 129 68 185 236 185h27v-113h-27c-56 0 -75 -17 -75 -73v-558c0 -130 -68 -186 -236 -186h-27v113h27c56 0 75 17 75 73z" />
    <glyph glyph-name="congruent" unicode="&#x2245;" horiz-adv-x="572" 
d="M530 76v-111h-488v111h488zM530 280v-111h-488v111h488zM170 392c-45 0 -81 -15 -109 -36l-40 104c29 22 85 44 146 44c82 0 161 -40 234 -40c45 0 81 15 109 36l40 -104c-29 -22 -86 -44 -146 -44c-81 0 -160 40 -234 40z" />
    <glyph glyph-name="approxequal" unicode="&#x2248;" horiz-adv-x="572" 
d="M170 120c-45 0 -81 -15 -109 -36l-40 104c29 22 85 44 146 44c82 0 161 -40 234 -40c45 0 81 15 109 36l40 -104c-29 -22 -86 -44 -146 -44c-81 0 -160 40 -234 40zM170 318c-45 0 -81 -15 -109 -36l-40 104c29 22 85 44 146 44c82 0 161 -40 234 -40c45 0 81 15 109 36
l40 -104c-29 -22 -86 -44 -146 -44c-81 0 -160 40 -234 40z" />
    <glyph glyph-name="notequal" unicode="&#x2260;" horiz-adv-x="572" 
d="M530 208v-111h-272l-76 -131l-97 56l44 75h-87v111h152l54 93h-206v111h271l77 131l97 -56l-44 -75h87v-111h-152l-55 -93h207z" />
    <glyph glyph-name="lessequal" unicode="&#x2264;" horiz-adv-x="572" 
d="M42 248v114l488 148v-106l-350 -99l350 -99v-106zM530 76v-110h-488v110h488z" />
    <glyph glyph-name="greaterequal" unicode="&#x2265;" horiz-adv-x="572" 
d="M530 362v-114l-488 -148v106l350 99l-350 99v106zM42 -34v110h488v-110h-488z" />
    <glyph glyph-name="circleplus" unicode="&#x2295;" 
d="M872 360c0 -213 -163 -372 -372 -372s-372 159 -372 372s163 372 372 372s372 -159 372 -372zM205 360c0 -173 129 -301 295 -301s295 128 295 301s-129 301 -295 301s-295 -128 -295 -301zM555 140h-110v167h-156v106h156v167h110v-167h156v-106h-156v-167z" />
    <glyph glyph-name="uni2296" unicode="&#x2296;" 
d="M872 360c0 -213 -163 -372 -372 -372s-372 159 -372 372s163 372 372 372s372 -159 372 -372zM205 360c0 -173 129 -301 295 -301s295 128 295 301s-129 301 -295 301s-295 -128 -295 -301zM711 413v-106h-422v106h422z" />
    <glyph glyph-name="circlemultiply" unicode="&#x2297;" 
d="M872 360c0 -213 -163 -372 -372 -372s-372 159 -372 372s163 372 372 372s372 -159 372 -372zM205 360c0 -173 129 -301 295 -301s295 128 295 301s-129 301 -295 301s-295 -128 -295 -301zM297 487l76 76l127 -127l127 127l76 -76l-126 -127l126 -127l-76 -76l-127 127
l-127 -127l-76 76l126 127z" />
    <glyph glyph-name="uni2298" unicode="&#x2298;" 
d="M872 360c0 -213 -163 -372 -372 -372s-372 159 -372 372s163 372 372 372s372 -159 372 -372zM205 360c0 -173 129 -301 295 -301s295 128 295 301s-129 301 -295 301s-295 -128 -295 -301zM297 233l330 330l76 -76l-330 -330z" />
    <glyph glyph-name="uni229C" unicode="&#x229c;" 
d="M872 360c0 -213 -163 -372 -372 -372s-372 159 -372 372s163 372 372 372s372 -159 372 -372zM205 360c0 -173 129 -301 295 -301s295 128 295 301s-129 301 -295 301s-295 -128 -295 -301zM711 496v-96h-422v96h422zM711 320v-96h-422v96h422z" />
    <glyph glyph-name="dotmath" unicode="&#x22c5;" horiz-adv-x="572" 
d="M286 166c-56 0 -96 40 -96 92s40 92 96 92s96 -40 96 -92s-40 -92 -96 -92z" />
    <glyph glyph-name="uni2460" unicode="&#x2460;" 
d="M968 330c0 -269 -205 -468 -468 -468s-468 199 -468 468s205 468 468 468s468 -199 468 -468zM891 330c0 228 -172 397 -391 397s-391 -169 -391 -397s172 -397 391 -397s391 169 391 397zM398 407l-27 82l101 51h81v-419h-102v313z" />
    <glyph glyph-name="uni2461" unicode="&#x2461;" 
d="M968 330c0 -269 -205 -468 -468 -468s-468 199 -468 468s205 468 468 468s468 -199 468 -468zM891 330c0 228 -172 397 -391 397s-391 -169 -391 -397s172 -397 391 -397s391 169 391 397zM533 411c0 29 -19 49 -53 49c-37 0 -70 -24 -99 -54l-28 84c31 33 81 58 142 58
c85 0 140 -51 140 -128c0 -74 -50 -141 -139 -217h150v-82h-293v73c137 111 180 173 180 217z" />
    <glyph glyph-name="uni2462" unicode="&#x2462;" 
d="M968 330c0 -269 -205 -468 -468 -468s-468 199 -468 468s205 468 468 468s468 -199 468 -468zM891 330c0 228 -172 397 -391 397s-391 -169 -391 -397s172 -397 391 -397s391 169 391 397zM503 548c81 0 142 -38 142 -108c0 -48 -28 -83 -76 -103c61 -16 86 -53 86 -100
c0 -77 -69 -123 -172 -123c-51 0 -95 11 -131 27l23 84c33 -18 65 -30 104 -30c45 0 70 15 70 48s-26 50 -89 50c-15 0 -28 -1 -46 -2v75c98 0 129 19 129 55c0 28 -20 42 -53 42c-31 0 -63 -11 -100 -33l-23 82c41 22 85 36 136 36z" />
    <glyph glyph-name="uni2463" unicode="&#x2463;" 
d="M968 330c0 -269 -205 -468 -468 -468s-468 199 -468 468s205 468 468 468s468 -199 468 -468zM891 330c0 228 -172 397 -391 397s-391 -169 -391 -397s172 -397 391 -397s391 169 391 397zM297 200v77l182 263h112v-259h60v-81h-60v-79h-99v79h-195zM396 281h96v141z" />
    <glyph glyph-name="uni2464" unicode="&#x2464;" 
d="M968 330c0 -269 -205 -468 -468 -468s-468 199 -468 468s205 468 468 468s468 -199 468 -468zM891 330c0 228 -172 397 -391 397s-391 -169 -391 -397s172 -397 391 -397s391 169 391 397zM548 255c0 41 -30 59 -85 59c-23 0 -57 -3 -99 -14l9 240h259v-84h-163l-3 -67
c13 1 23 2 35 2c91 0 150 -51 150 -135c0 -92 -69 -142 -173 -142c-49 0 -95 11 -131 27l24 85c34 -16 65 -31 104 -31c48 0 73 21 73 60z" />
    <glyph glyph-name="uni2465" unicode="&#x2465;" 
d="M968 330c0 -269 -205 -468 -468 -468s-468 199 -468 468s205 468 468 468s468 -199 468 -468zM891 330c0 228 -172 397 -391 397s-391 -169 -391 -397s172 -397 391 -397s391 169 391 397zM521 548c40 0 77 -9 106 -25l-23 -86c-27 14 -54 25 -85 25
c-44 0 -76 -24 -84 -95c30 29 60 36 88 36c77 0 125 -55 125 -138c0 -100 -69 -151 -149 -151c-95 0 -166 73 -166 214c0 146 77 220 188 220zM495 323c-21 0 -38 -8 -61 -27c5 -79 33 -103 65 -103c31 0 52 22 52 65c0 42 -21 65 -56 65z" />
    <glyph glyph-name="uni2466" unicode="&#x2466;" 
d="M968 330c0 -269 -205 -468 -468 -468s-468 199 -468 468s205 468 468 468s468 -199 468 -468zM891 330c0 228 -172 397 -391 397s-391 -169 -391 -397s172 -397 391 -397s391 169 391 397zM505 121h-111c45 125 88 230 138 332h-168v87h282v-82
c-51 -102 -95 -209 -141 -337z" />
    <glyph glyph-name="uni2467" unicode="&#x2467;" 
d="M968 330c0 -269 -205 -468 -468 -468s-468 199 -468 468s205 468 468 468s468 -199 468 -468zM891 330c0 228 -172 397 -391 397s-391 -169 -391 -397s172 -397 391 -397s391 169 391 397zM337 233c0 56 36 81 79 100c-36 18 -61 48 -61 95c0 72 59 120 148 120
c87 0 141 -44 141 -110c0 -45 -26 -73 -64 -93c43 -17 83 -44 83 -104c0 -79 -68 -127 -167 -127c-98 0 -159 46 -159 119zM454 432c0 -26 18 -40 51 -54c26 15 41 29 41 53c0 27 -18 43 -46 43s-46 -15 -46 -42zM561 234c0 34 -29 48 -71 66c-33 -17 -50 -34 -50 -64
c0 -33 22 -52 59 -52s62 19 62 50z" />
    <glyph glyph-name="uni2468" unicode="&#x2468;" 
d="M968 330c0 -269 -205 -468 -468 -468s-468 199 -468 468s205 468 468 468s468 -199 468 -468zM891 330c0 228 -172 397 -391 397s-391 -169 -391 -397s172 -397 391 -397s391 169 391 397zM479 114c-40 0 -77 9 -107 25l24 82c27 -14 54 -26 84 -26c43 0 78 26 85 100
c-31 -30 -61 -37 -88 -37c-77 0 -125 55 -125 138c0 100 69 152 149 152c95 0 165 -73 165 -214c0 -146 -76 -220 -187 -220zM504 335c20 0 37 7 62 27c-7 78 -33 103 -66 103c-30 0 -51 -22 -51 -65c0 -41 21 -65 55 -65z" />
    <glyph glyph-name="uni2469" unicode="&#x2469;" 
d="M968 330c0 -269 -205 -468 -468 -468s-468 199 -468 468s205 468 468 468s468 -199 468 -468zM891 330c0 228 -172 397 -391 397s-391 -169 -391 -397s172 -397 391 -397s391 169 391 397zM551 329c0 -101 27 -134 66 -134c38 0 65 33 65 134s-27 134 -65 134
c-39 0 -66 -33 -66 -134zM784 332c0 -144 -72 -218 -168 -218c-97 0 -167 74 -167 216c0 144 72 218 169 218c96 0 166 -74 166 -216zM241 407l-27 82l101 51h81v-419h-102v313z" />
    <glyph glyph-name="uni246A" unicode="&#x246a;" 
d="M968 330c0 -269 -205 -468 -468 -468s-468 199 -468 468s205 468 468 468s468 -199 468 -468zM891 330c0 228 -172 397 -391 397s-391 -169 -391 -397s172 -397 391 -397s391 169 391 397zM527 407l-27 82l101 51h81v-419h-102v313zM278 407l-27 82l101 51h81v-419h-102
v313z" />
    <glyph glyph-name="uni246B" unicode="&#x246b;" 
d="M968 330c0 -269 -205 -468 -468 -468s-468 199 -468 468s205 468 468 468s468 -199 468 -468zM891 330c0 228 -172 397 -391 397s-391 -169 -391 -397s172 -397 391 -397s391 169 391 397zM248 407l-27 82l101 51h81v-419h-102v313zM646 411c0 29 -19 49 -53 49
c-37 0 -70 -24 -99 -54l-28 84c31 33 81 58 142 58c85 0 140 -51 140 -128c0 -74 -50 -141 -139 -217h150v-82h-293v73c137 111 180 173 180 217z" />
    <glyph glyph-name="uni246C" unicode="&#x246c;" 
d="M968 330c0 -269 -205 -468 -468 -468s-468 199 -468 468s205 468 468 468s468 -199 468 -468zM891 330c0 228 -172 397 -391 397s-391 -169 -391 -397s172 -397 391 -397s391 169 391 397zM248 407l-27 82l101 51h81v-419h-102v313zM605 548c81 0 142 -38 142 -108
c0 -48 -28 -83 -76 -103c61 -16 86 -53 86 -100c0 -77 -69 -123 -172 -123c-51 0 -95 11 -131 27l23 84c33 -18 65 -30 104 -30c45 0 70 15 70 48s-26 50 -89 50c-15 0 -28 -1 -46 -2v75c98 0 129 19 129 55c0 28 -20 42 -53 42c-31 0 -63 -11 -100 -33l-23 82
c41 22 85 36 136 36z" />
    <glyph glyph-name="uni246D" unicode="&#x246d;" 
d="M968 330c0 -269 -205 -468 -468 -468s-468 199 -468 468s205 468 468 468s468 -199 468 -468zM891 330c0 228 -172 397 -391 397s-391 -169 -391 -397s172 -397 391 -397s391 169 391 397zM441 200v77l182 263h112v-259h60v-81h-60v-79h-99v79h-195zM540 281h96v141z
M248 407l-27 82l101 51h81v-419h-102v313z" />
    <glyph glyph-name="uni246E" unicode="&#x246e;" 
d="M968 330c0 -269 -205 -468 -468 -468s-468 199 -468 468s205 468 468 468s468 -199 468 -468zM891 330c0 228 -172 397 -391 397s-391 -169 -391 -397s172 -397 391 -397s391 169 391 397zM657 255c0 41 -30 59 -85 59c-23 0 -57 -3 -99 -14l9 240h259v-84h-163l-3 -67
c13 1 23 2 35 2c91 0 150 -51 150 -135c0 -92 -69 -142 -173 -142c-49 0 -95 11 -131 27l24 85c34 -16 65 -31 104 -31c48 0 73 21 73 60zM248 407l-27 82l101 51h81v-419h-102v313z" />
    <glyph glyph-name="uni246F" unicode="&#x246f;" 
d="M968 330c0 -269 -205 -468 -468 -468s-468 199 -468 468s205 468 468 468s468 -199 468 -468zM891 330c0 228 -172 397 -391 397s-391 -169 -391 -397s172 -397 391 -397s391 169 391 397zM643 548c40 0 77 -9 106 -25l-23 -86c-27 14 -54 25 -85 25
c-44 0 -76 -24 -84 -95c30 29 60 36 88 36c77 0 125 -55 125 -138c0 -100 -69 -151 -149 -151c-95 0 -166 73 -166 214c0 146 77 220 188 220zM617 323c-21 0 -38 -8 -61 -27c5 -79 33 -103 65 -103c31 0 52 22 52 65c0 42 -21 65 -56 65zM248 407l-27 82l101 51h81v-419
h-102v313z" />
    <glyph glyph-name="uni2470" unicode="&#x2470;" 
d="M968 330c0 -269 -205 -468 -468 -468s-468 199 -468 468s205 468 468 468s468 -199 468 -468zM891 330c0 228 -172 397 -391 397s-391 -169 -391 -397s172 -397 391 -397s391 169 391 397zM618 121h-111c45 125 88 230 138 332h-168v87h282v-82
c-51 -102 -95 -209 -141 -337zM263 407l-27 82l101 51h81v-419h-102v313z" />
    <glyph glyph-name="uni2471" unicode="&#x2471;" 
d="M968 330c0 -269 -205 -468 -468 -468s-468 199 -468 468s205 468 468 468s468 -199 468 -468zM891 330c0 228 -172 397 -391 397s-391 -169 -391 -397s172 -397 391 -397s391 169 391 397zM449 233c0 56 36 81 79 100c-36 18 -61 48 -61 95c0 72 59 120 148 120
c87 0 141 -44 141 -110c0 -45 -26 -73 -64 -93c43 -17 83 -44 83 -104c0 -79 -68 -127 -167 -127c-98 0 -159 46 -159 119zM566 432c0 -26 18 -40 51 -54c26 15 41 29 41 53c0 27 -18 43 -46 43s-46 -15 -46 -42zM673 234c0 34 -29 48 -71 66c-33 -17 -50 -34 -50 -64
c0 -33 22 -52 59 -52s62 19 62 50zM248 407l-27 82l101 51h81v-419h-102v313z" />
    <glyph glyph-name="uni2472" unicode="&#x2472;" 
d="M968 330c0 -269 -205 -468 -468 -468s-468 199 -468 468s205 468 468 468s468 -199 468 -468zM891 330c0 228 -172 397 -391 397s-391 -169 -391 -397s172 -397 391 -397s391 169 391 397zM593 114c-40 0 -77 9 -107 25l24 82c27 -14 54 -26 84 -26c43 0 78 26 85 100
c-31 -30 -61 -37 -88 -37c-77 0 -125 55 -125 138c0 100 69 152 149 152c95 0 165 -73 165 -214c0 -146 -76 -220 -187 -220zM618 335c20 0 37 7 62 27c-7 78 -33 103 -66 103c-30 0 -51 -22 -51 -65c0 -41 21 -65 55 -65zM248 407l-27 82l101 51h81v-419h-102v313z" />
    <glyph glyph-name="uni2473" unicode="&#x2473;" 
d="M968 330c0 -269 -205 -468 -468 -468s-468 199 -468 468s205 468 468 468s468 -199 468 -468zM891 330c0 228 -172 397 -391 397s-391 -169 -391 -397s172 -397 391 -397s391 169 391 397zM606 329c0 -101 27 -134 66 -134c38 0 65 33 65 134s-27 134 -65 134
c-39 0 -66 -33 -66 -134zM839 332c0 -144 -72 -218 -168 -218c-97 0 -167 74 -167 216c0 144 72 218 169 218c96 0 166 -74 166 -216zM375 411c0 29 -19 49 -53 49c-37 0 -70 -24 -99 -54l-28 84c31 33 81 58 142 58c85 0 140 -51 140 -128c0 -74 -50 -141 -139 -217h150
v-82h-293v73c137 111 180 173 180 217z" />
    <glyph glyph-name="uni24EA" unicode="&#x24ea;" 
d="M968 330c0 -269 -205 -468 -468 -468s-468 199 -468 468s205 468 468 468s468 -199 468 -468zM891 330c0 228 -172 397 -391 397s-391 -169 -391 -397s172 -397 391 -397s391 169 391 397zM435 329c0 -101 27 -134 66 -134c38 0 65 33 65 134s-27 134 -65 134
c-39 0 -66 -33 -66 -134zM668 332c0 -144 -72 -218 -168 -218c-97 0 -167 74 -167 216c0 144 72 218 169 218c96 0 166 -74 166 -216z" />
    <glyph glyph-name="uni24EB" unicode="&#x24eb;" 
d="M968 330c0 -269 -205 -468 -468 -468s-468 199 -468 468s205 468 468 468s468 -199 468 -468zM507 489l27 -82l53 27v-313h102v419h-81zM243 489l27 -82l53 27v-313h102v419h-81z" />
    <glyph glyph-name="uni24EC" unicode="&#x24ec;" 
d="M968 330c0 -269 -205 -468 -468 -468s-468 199 -468 468s205 468 468 468s468 -199 468 -468zM213 489l27 -82l53 27v-313h102v419h-81zM653 411c0 -44 -43 -106 -180 -217v-73h293v82h-150c89 76 139 143 139 217c0 77 -55 128 -140 128c-61 0 -111 -25 -142 -58l28 -84
c29 30 62 54 99 54c34 0 53 -20 53 -49z" />
    <glyph glyph-name="uni24ED" unicode="&#x24ed;" 
d="M968 330c0 -269 -205 -468 -468 -468s-468 199 -468 468s205 468 468 468s468 -199 468 -468zM213 489l27 -82l53 27v-313h102v419h-81zM613 548c-51 0 -95 -14 -136 -36l23 -82c37 22 69 33 100 33c33 0 53 -14 53 -42c0 -36 -31 -55 -129 -55v-75c18 1 31 2 46 2
c63 0 89 -17 89 -50s-25 -48 -70 -48c-39 0 -71 12 -104 30l-23 -84c36 -16 80 -27 131 -27c103 0 172 46 172 123c0 47 -25 84 -86 100c48 20 76 55 76 103c0 70 -61 108 -142 108z" />
    <glyph glyph-name="uni24EE" unicode="&#x24ee;" 
d="M968 330c0 -269 -205 -468 -468 -468s-468 199 -468 468s205 468 468 468s468 -199 468 -468zM448 277v-77h195v-79h99v79h60v81h-60v259h-112zM643 281h-96l96 141v-141zM213 489l27 -82l53 27v-313h102v419h-81z" />
    <glyph glyph-name="uni24EF" unicode="&#x24ef;" 
d="M968 330c0 -269 -205 -468 -468 -468s-468 199 -468 468s205 468 468 468s468 -199 468 -468zM664 255c0 -39 -25 -60 -73 -60c-39 0 -70 15 -104 31l-24 -85c36 -16 82 -27 131 -27c104 0 173 50 173 142c0 84 -59 135 -150 135c-12 0 -22 -1 -35 -2l3 67h163v84h-259
l-9 -240c42 11 76 14 99 14c55 0 85 -18 85 -59zM213 489l27 -82l53 27v-313h102v419h-81z" />
    <glyph glyph-name="uni24F0" unicode="&#x24f0;" 
d="M968 330c0 -269 -205 -468 -468 -468s-468 199 -468 468s205 468 468 468s468 -199 468 -468zM650 548c-111 0 -188 -74 -188 -220c0 -141 71 -214 166 -214c80 0 149 51 149 151c0 83 -48 138 -125 138c-28 0 -58 -7 -88 -36c8 71 40 95 84 95c31 0 58 -11 85 -25l23 86
c-29 16 -66 25 -106 25zM624 323c35 0 56 -23 56 -65c0 -43 -21 -65 -52 -65c-32 0 -60 24 -65 103c23 19 40 27 61 27zM213 489l27 -82l53 27v-313h102v419h-81z" />
    <glyph glyph-name="uni24F1" unicode="&#x24f1;" 
d="M968 330c0 -269 -205 -468 -468 -468s-468 199 -468 468s205 468 468 468s468 -199 468 -468zM515 121h111c46 128 90 235 141 337v82h-282v-87h168c-50 -102 -93 -207 -138 -332zM229 489l27 -82l53 27v-313h102v419h-81z" />
    <glyph glyph-name="uni24F2" unicode="&#x24f2;" 
d="M968 330c0 -269 -205 -468 -468 -468s-468 199 -468 468s205 468 468 468s468 -199 468 -468zM456 233c0 -73 61 -119 159 -119c99 0 167 48 167 127c0 60 -40 87 -83 104c38 20 64 48 64 93c0 66 -54 110 -141 110c-89 0 -148 -48 -148 -120c0 -47 25 -77 61 -95
c-43 -19 -79 -44 -79 -100zM573 432c0 27 18 42 46 42s46 -16 46 -43c0 -24 -15 -38 -41 -53c-33 14 -51 28 -51 54zM680 234c0 -31 -25 -50 -62 -50s-59 19 -59 52c0 30 17 47 50 64c42 -18 71 -32 71 -66zM213 489l27 -82l53 27v-313h102v419h-81z" />
    <glyph glyph-name="uni24F3" unicode="&#x24f3;" 
d="M968 330c0 -269 -205 -468 -468 -468s-468 199 -468 468s205 468 468 468s468 -199 468 -468zM600 114c111 0 187 74 187 220c0 141 -70 214 -165 214c-80 0 -149 -52 -149 -152c0 -83 48 -138 125 -138c27 0 57 7 88 37c-7 -74 -42 -100 -85 -100c-30 0 -57 12 -84 26
l-24 -82c30 -16 67 -25 107 -25zM625 335c-34 0 -55 24 -55 65c0 43 21 65 51 65c33 0 59 -25 66 -103c-25 -20 -42 -27 -62 -27zM213 489l27 -82l53 27v-313h102v419h-81z" />
    <glyph glyph-name="filledbox" unicode="&#x25a0;" 
d="M140 0v720h720v-720h-720z" />
    <glyph glyph-name="H22073" unicode="&#x25a1;" 
d="M140 0v720h720v-720h-720zM258 602v-484h484v484h-484z" />
    <glyph glyph-name="triagup" unicode="&#x25b2;" horiz-adv-x="584" 
d="M292 542l255 -442h-510z" />
    <glyph glyph-name="triagrt" unicode="&#x25ba;" horiz-adv-x="584" 
d="M542 309l-442 -255v510z" />
    <glyph glyph-name="triagdn" unicode="&#x25bc;" horiz-adv-x="584" 
d="M547 518l-255 -442l-255 442h510z" />
    <glyph glyph-name="triaglf" unicode="&#x25c4;" horiz-adv-x="584" 
d="M484 54l-442 255l442 255v-510z" />
    <glyph glyph-name="uni25C6" unicode="&#x25c6;" 
d="M128 360l372 372l372 -372l-372 -372z" />
    <glyph glyph-name="uni25C7" unicode="&#x25c7;" 
d="M500 566l-206 -206l206 -206l206 206zM128 360l372 372l372 -372l-372 -372z" />
    <glyph glyph-name="lozenge" unicode="&#x25ca;" horiz-adv-x="584" 
d="M347 0h-110l-201 360l201 360h110l201 -360zM428 360l-136 243l-136 -243l136 -243z" />
    <glyph glyph-name="circle" unicode="&#x25cb;" 
d="M872 360c0 -213 -163 -372 -372 -372s-372 159 -372 372s163 372 372 372s372 -159 372 -372zM754 360c0 145 -111 254 -254 254s-254 -109 -254 -254s111 -254 254 -254s254 109 254 254z" />
    <glyph glyph-name="H18533" unicode="&#x25cf;" 
d="M872 360c0 -213 -163 -372 -372 -372s-372 159 -372 372s163 372 372 372s372 -159 372 -372z" />
    <glyph glyph-name="uni2605" unicode="&#x2605;" 
d="M409 459l91 282l91 -282h294l-239 -173l92 -279l-238 172l-238 -172l92 279l-239 173h294z" />
    <glyph glyph-name="uni272D" unicode="&#x272d;" 
d="M409 459l91 282l91 -282h294l-239 -173l92 -279l-238 172l-238 -172l92 279l-239 173h294zM500 513l-40 -124h-129l105 -76l-39 -123l103 75l103 -75l-39 123l106 76h-130z" />
    <glyph glyph-name="uni2756" unicode="&#x2756;" 
d="M128 360l161 161l162 -161l-162 -161zM338 149l162 162l161 -162l-161 -161zM339 571l161 161l161 -161l-161 -162zM549 360l162 161l161 -161l-161 -161z" />
    <glyph glyph-name="uni2767" unicode="&#x2767;" horiz-adv-x="1315" 
d="M193 110l-153 27c13 61 59 275 340 275c278 0 308 -208 515 -232v7c-174 59 -166 204 -380 251c0 93 76 152 176 152c266 0 178 -418 419 -418c49 0 104 17 154 48l11 -160c-60 -31 -116 -44 -187 -44c-56 0 -117 8 -176 46c-85 -44 -185 -74 -288 -74
c-161 0 -234 73 -234 175c0 40 11 74 34 101c-21 7 -39 11 -60 11c-109 0 -160 -106 -171 -165z" />
    <glyph glyph-name="uni2780" unicode="&#x2780;" 
d="M968 330c0 -269 -205 -468 -468 -468s-468 199 -468 468s205 468 468 468s468 -199 468 -468zM891 330c0 228 -172 397 -391 397s-391 -169 -391 -397s172 -397 391 -397s391 169 391 397zM398 407l-27 82l101 51h81v-419h-102v313z" />
    <glyph glyph-name="uni2781" unicode="&#x2781;" 
d="M968 330c0 -269 -205 -468 -468 -468s-468 199 -468 468s205 468 468 468s468 -199 468 -468zM891 330c0 228 -172 397 -391 397s-391 -169 -391 -397s172 -397 391 -397s391 169 391 397zM533 411c0 29 -19 49 -53 49c-37 0 -70 -24 -99 -54l-28 84c31 33 81 58 142 58
c85 0 140 -51 140 -128c0 -74 -50 -141 -139 -217h150v-82h-293v73c137 111 180 173 180 217z" />
    </font>
</defs>
</svg>
